<svg width="375" height="280" viewBox="0 0 375 280" fill="none" xmlns="http://www.w3.org/2000/svg">
<path d="M374.555 245.258H9.53674e-07V245.446H374.555V245.258Z" fill="#EBEBEB"/>
<path d="M337.024 257.312H312.214V257.499H337.024V257.312Z" fill="#EBEBEB"/>
<path d="M248.12 259.349H241.61V259.536H248.12V259.349Z" fill="#EBEBEB"/>
<path d="M311.465 250.36H297.089V250.547H311.465V250.36Z" fill="#EBEBEB"/>
<path d="M71.6524 251.618H39.2983V251.806H71.6524V251.618Z" fill="#EBEBEB"/>
<path d="M83.0687 251.618H78.3269V251.806H83.0687V251.618Z" fill="#EBEBEB"/>
<path d="M168.662 254.78H98.4854V254.967H168.662V254.78Z" fill="#EBEBEB"/>
<path d="M177.539 211.848H32.8934C31.7603 211.846 30.6742 211.395 29.8737 210.593C29.0731 209.791 28.6235 208.704 28.6235 207.571V4.23996C28.6334 3.11332 29.0873 2.03606 29.8868 1.24219C30.6863 0.448311 31.7667 0.00193 32.8934 0H177.539C178.673 0 179.761 0.450655 180.564 1.25283C181.366 2.055 181.816 3.14297 181.816 4.27741V207.571C181.816 208.705 181.366 209.793 180.564 210.595C179.761 211.397 178.673 211.848 177.539 211.848ZM32.8934 0.149822C31.8099 0.151807 30.7715 0.583605 30.0061 1.35044C29.2407 2.11727 28.8108 3.15648 28.8108 4.23996V207.571C28.8108 208.654 29.2407 209.693 30.0061 210.46C30.7715 211.227 31.8099 211.659 32.8934 211.661H177.539C178.623 211.659 179.662 211.227 180.429 210.461C181.196 209.694 181.627 208.655 181.629 207.571V4.23996C181.627 3.1558 181.196 2.1166 180.429 1.34998C179.662 0.583362 178.623 0.151803 177.539 0.149822H32.8934Z" fill="#EBEBEB"/>
<path d="M339.579 211.848H194.926C193.792 211.846 192.705 211.395 191.903 210.593C191.102 209.791 190.65 208.705 190.648 207.571V4.23996C190.66 3.11263 191.116 2.03539 191.916 1.24172C192.717 0.448049 193.798 0.00190895 194.926 0H339.579C340.704 0.00389874 341.783 0.45115 342.58 1.24482C343.378 2.03848 343.831 3.11461 343.841 4.23996V207.571C343.841 208.703 343.393 209.788 342.594 210.59C341.795 211.392 340.711 211.844 339.579 211.848ZM194.926 0.149822C193.842 0.151803 192.802 0.583362 192.036 1.34998C191.269 2.1166 190.838 3.1558 190.836 4.23996V207.571C190.838 208.655 191.269 209.694 192.036 210.461C192.802 211.227 193.842 211.659 194.926 211.661H339.579C340.663 211.659 341.702 211.227 342.469 210.461C343.235 209.694 343.667 208.655 343.669 207.571V4.23996C343.667 3.1558 343.235 2.1166 342.469 1.34998C341.702 0.583362 340.663 0.151803 339.579 0.149822H194.926Z" fill="#EBEBEB"/>
<path d="M147.747 73.4876H50.033V78.5067H147.747V73.4876Z" fill="#E0E0E0"/>
<path d="M58.835 54.9771H54.5276V73.4801H58.835V54.9771Z" fill="#EBEBEB"/>
<path d="M79.6528 54.9771H75.3455V73.4801H79.6528V54.9771Z" fill="#EBEBEB"/>
<path d="M103.282 54.5169L99.0374 55.2485L102.18 73.4826L106.425 72.751L103.282 54.5169Z" fill="#EBEBEB"/>
<path d="M64.1687 57.4192H59.8614V73.4876H64.1687V57.4192Z" fill="#EBEBEB"/>
<path d="M74.0645 57.4192H69.7571V73.4876H74.0645V57.4192Z" fill="#EBEBEB"/>
<path d="M99.0397 57.4192H94.7324V73.4876H99.0397V57.4192Z" fill="#EBEBEB"/>
<path d="M85.3101 56.8562L81.1053 57.7907L84.5914 73.4764L88.7962 72.5419L85.3101 56.8562Z" fill="#EBEBEB"/>
<path d="M67.8843 54.0632H65.7344V73.4876H67.8843V54.0632Z" fill="#EBEBEB"/>
<path d="M93.4888 54.0632H91.3389V73.4876H93.4888V54.0632Z" fill="#EBEBEB"/>
<path d="M138.368 58.8426H117.393V73.3228H138.368V58.8426Z" fill="#EBEBEB"/>
<path d="M50.0255 115.985L147.739 115.985V110.966L50.0255 110.966V115.985Z" fill="#E0E0E0"/>
<path d="M138.937 110.966H143.245V92.4626H138.937V110.966Z" fill="#EBEBEB"/>
<path d="M118.12 110.966H122.427V92.4626H118.12V110.966Z" fill="#EBEBEB"/>
<path d="M91.3554 110.23L95.6002 110.962L98.7432 92.7279L94.4984 91.9962L91.3554 110.23Z" fill="#EBEBEB"/>
<path d="M133.604 110.966H137.911V94.8972H133.604V110.966Z" fill="#EBEBEB"/>
<path d="M123.708 110.966H128.015V94.8972H123.708V110.966Z" fill="#EBEBEB"/>
<path d="M98.7325 110.966H103.04V94.8972H98.7325V110.966Z" fill="#EBEBEB"/>
<path d="M108.989 110.027L113.194 110.961L116.68 95.2753L112.475 94.3408L108.989 110.027Z" fill="#EBEBEB"/>
<path d="M129.888 110.966H132.038V91.5412H129.888V110.966Z" fill="#EBEBEB"/>
<path d="M104.276 110.966H106.426V91.5412H104.276V110.966Z" fill="#EBEBEB"/>
<path d="M59.4118 110.801H80.3869V96.3205H59.4118V110.801Z" fill="#EBEBEB"/>
<path d="M322.102 30.4888H202.754C201.877 30.4888 201.166 31.1998 201.166 32.0769V33.7774C201.166 34.6544 201.877 35.3655 202.754 35.3655H322.102C322.979 35.3655 323.69 34.6544 323.69 33.7774V32.0769C323.69 31.1998 322.979 30.4888 322.102 30.4888Z" fill="#E0E0E0"/>
<path d="M316.409 34.3691H208.44V130.18H316.409V34.3691Z" fill="#B4B4B4"/>
<path d="M313.57 36.9985H211.144V127.603H313.57V36.9985Z" fill="#F0F0F0"/>
<path d="M235.183 36.9985L211.144 127.401V84.919L223.834 36.9985H235.183Z" fill="white"/>
<path d="M243.693 36.9985L219.444 127.603H215.579L239.827 36.9985H243.693Z" fill="white"/>
<path d="M313.57 94.1706V108.643L308.663 127.603H304.79L313.57 94.1706Z" fill="white"/>
<path d="M246.869 35.3655H245.146V129.626H246.869V35.3655Z" fill="#B4B4B4"/>
<path d="M280.302 35.3655H278.579V129.626H280.302V35.3655Z" fill="#B4B4B4"/>
<path d="M298.812 32.0469C298.812 32.0469 301.299 64.4608 315.585 80.9787C315.585 80.9787 305.18 122.697 305.187 137.244L324.522 133.671L317.555 81.2334L320.888 32.0544L298.812 32.0469Z" fill="#E0E0E0"/>
<path d="M226.036 32.0469C226.036 32.0469 223.557 64.4608 209.271 80.9787C209.271 80.9787 219.676 122.697 219.669 137.244L200.327 133.671L207.301 81.2334L203.967 32.0544L226.036 32.0469Z" fill="#E0E0E0"/>
<path d="M102.707 37.5229C111.638 35.415 117.169 26.4662 115.061 17.5353C112.953 8.60431 104.005 3.07313 95.0737 5.18102C86.1428 7.28892 80.6116 16.2377 82.7195 25.1686C84.8274 34.0996 93.7762 39.6308 102.707 37.5229Z" fill="#E0E0E0"/>
<path d="M101.156 35.2877C108.858 34.0375 114.088 26.7803 112.838 19.0783C111.588 11.3763 104.331 6.14613 96.6287 7.39633C88.9267 8.64654 83.6965 15.9037 84.9467 23.6057C86.1969 31.3077 93.4541 36.5379 101.156 35.2877Z" fill="#F0F0F0"/>
<path d="M99.5566 11.6562V21.5294L106.096 17.8288" fill="#F0F0F0"/>
<path d="M99.5566 11.6562V21.5294L106.096 17.8288" stroke="#E0E0E0" stroke-width="2" stroke-linecap="round" stroke-linejoin="round"/>
<path d="M187.277 279.088C267.494 279.088 332.522 275.292 332.522 270.608C332.522 265.925 267.494 262.128 187.277 262.128C107.061 262.128 42.0325 265.925 42.0325 270.608C42.0325 275.292 107.061 279.088 187.277 279.088Z" fill="#F5F5F5"/>
<path d="M60.7978 247.094C60.6854 246.345 58.0635 228.239 63.3148 221.991C63.8374 221.333 64.4995 220.798 65.2534 220.427C66.0072 220.055 66.8342 219.855 67.6746 219.841C78.282 219.594 79.7278 228.081 79.7428 228.194L78.4918 228.388C78.4468 228.081 77.1883 220.897 67.7046 221.107C67.0434 221.118 66.3929 221.276 65.8006 221.57C65.2083 221.864 64.6892 222.287 64.2812 222.808C59.397 228.621 62.0338 246.727 62.0338 246.906L60.7978 247.094Z" fill="#49768C"/>
<path d="M60.161 246.27L58.895 246.232C58.895 246.06 59.3145 229.565 51.1867 226.149C43.2162 222.815 39.6279 229.677 39.4856 229.969L38.3545 229.4C38.3545 229.317 42.6019 221.16 51.6736 224.987C60.603 228.733 60.1835 245.551 60.161 246.27Z" fill="#49768C"/>
<path d="M60.1985 247.566C60.1985 247.303 60.1161 221.204 55.0296 213.571C50.1454 206.245 42.2948 209.691 41.9277 209.826L41.4108 208.679C41.5007 208.634 50.5949 204.619 56.0859 212.852C61.3821 220.815 61.427 246.457 61.427 247.566H60.1985Z" fill="#49768C"/>
<path d="M69.1953 220.47C69.1953 220.47 64.5658 222.178 65.9217 226.231C67.2775 230.284 81.9526 236.868 81.9526 236.868C81.9526 236.868 88.0878 231.243 82.4545 222.111C76.8212 212.979 69.3226 217.586 69.1953 220.47Z" fill="#49768C"/>
<path d="M54.8049 212.193C54.8049 212.193 58.086 211.841 57.8013 209.841C57.5166 207.84 45.0215 202.687 37.6428 211.017C37.6428 211.017 42.3696 219.137 49.2015 219.257C56.0334 219.377 54.8049 212.193 54.8049 212.193Z" fill="#49768C"/>
<path d="M51.4264 225.572C51.4264 225.572 53.6737 223.737 51.2466 222.845C48.8195 221.954 36.7888 222.201 36.669 234.082C36.669 234.082 50.6548 236.404 52.4003 231.872C54.1457 227.34 51.4264 225.572 51.4264 225.572Z" fill="#49768C"/>
<path opacity="0.2" d="M69.1953 220.47C69.1953 220.47 64.5658 222.178 65.9217 226.231C67.2775 230.284 81.9526 236.868 81.9526 236.868C81.9526 236.868 88.0878 231.243 82.4545 222.111C76.8212 212.979 69.3226 217.586 69.1953 220.47Z" fill="white"/>
<path opacity="0.2" d="M54.8049 212.193C54.8049 212.193 58.086 211.841 57.8013 209.841C57.5166 207.84 45.0215 202.687 37.6428 211.017C37.6428 211.017 42.3696 219.137 49.2015 219.257C56.0334 219.377 54.8049 212.193 54.8049 212.193Z" fill="white"/>
<path opacity="0.2" d="M51.4264 225.572C51.4264 225.572 53.6737 223.737 51.2466 222.845C48.8195 221.954 36.7888 222.201 36.669 234.082C36.669 234.082 50.6548 236.404 52.4003 231.872C54.1457 227.34 51.4264 225.572 51.4264 225.572Z" fill="white"/>
<path d="M71.6823 271.327H49.9731L47.6359 247.566H74.0195L71.6823 271.327Z" fill="#49768C"/>
<path opacity="0.5" d="M71.6823 271.327H49.9731L47.6359 247.566H74.0195L71.6823 271.327Z" fill="white"/>
<path d="M75.1807 244.944H46.4748V250.188H75.1807V244.944Z" fill="#49768C"/>
<path opacity="0.2" d="M75.1807 244.944H46.4748V250.188H75.1807V244.944Z" fill="white"/>
<path d="M294.07 154.316H220.313C219.444 154.315 218.583 154.486 217.779 154.818C216.976 155.15 216.246 155.637 215.631 156.251C215.016 156.866 214.528 157.595 214.195 158.398C213.862 159.201 213.691 160.062 213.691 160.931L204.702 218.215H291.688L300.677 160.931C300.677 159.178 299.982 157.497 298.743 156.257C297.504 155.016 295.823 154.318 294.07 154.316Z" fill="#49768C"/>
<path opacity="0.4" d="M294.07 154.316H220.313C219.444 154.315 218.583 154.486 217.779 154.818C216.976 155.15 216.246 155.637 215.631 156.251C215.016 156.866 214.528 157.595 214.195 158.398C213.862 159.201 213.691 160.062 213.691 160.931L204.702 218.215H291.688L300.677 160.931C300.677 159.178 299.982 157.497 298.743 156.257C297.504 155.016 295.823 154.318 294.07 154.316Z" fill="white"/>
<path opacity="0.2" d="M278.459 219.084H291.688L300.677 160.954C300.677 159.199 299.981 157.517 298.74 156.276C297.5 155.036 295.817 154.339 294.063 154.339C292.308 154.339 290.626 155.036 289.386 156.276C288.145 157.517 287.448 159.199 287.448 160.954L278.459 219.084Z" fill="black"/>
<path d="M201.945 191.472H170.587H170.25C168.11 191.472 166.057 192.322 164.543 193.835C163.028 195.348 162.177 197.4 162.175 199.54V271.327H209.541V199.525C209.57 197.459 208.793 195.462 207.375 193.959C205.957 192.456 204.009 191.564 201.945 191.472Z" fill="#49768C"/>
<path opacity="0.5" d="M201.945 191.472H170.587H170.25C168.11 191.472 166.057 192.322 164.543 193.835C163.028 195.348 162.177 197.4 162.175 199.54V271.327H209.541V199.525C209.57 197.459 208.793 195.462 207.375 193.959C205.957 192.456 204.009 191.564 201.945 191.472Z" fill="white"/>
<path opacity="0.6" d="M170.25 191.457C168.11 191.457 166.057 192.307 164.543 193.82C163.028 195.333 162.177 197.385 162.175 199.525V271.327H178.325V199.525C178.323 197.385 177.472 195.333 175.958 193.82C174.443 192.307 172.39 191.457 170.25 191.457Z" fill="white"/>
<path d="M245.333 211.773H183.599V271.327H245.333V211.773Z" fill="#49768C"/>
<path opacity="0.4" d="M245.333 211.773H183.599V271.327H245.333V211.773Z" fill="white"/>
<path d="M188.101 206.754H258.518V223.759H188.101C185.844 223.759 183.68 222.862 182.084 221.266C180.488 219.671 179.591 217.506 179.591 215.249C179.595 212.995 180.494 210.834 182.089 209.241C183.685 207.649 185.847 206.754 188.101 206.754Z" fill="#49768C"/>
<path opacity="0.6" d="M188.101 206.754H258.518V223.759H188.101C185.844 223.759 183.68 222.862 182.084 221.266C180.488 219.671 179.591 217.506 179.591 215.249C179.595 212.995 180.494 210.834 182.089 209.241C183.685 207.649 185.847 206.754 188.101 206.754Z" fill="white"/>
<path d="M285.096 191.472H253.738H253.401C251.261 191.472 249.208 192.322 247.694 193.835C246.179 195.348 245.328 197.4 245.326 199.54V271.327H292.692V199.525C292.721 197.459 291.945 195.462 290.526 193.959C289.108 192.456 287.161 191.564 285.096 191.472Z" fill="#49768C"/>
<path opacity="0.5" d="M285.096 191.472H253.738H253.401C251.261 191.472 249.208 192.322 247.694 193.835C246.179 195.348 245.328 197.4 245.326 199.54V271.327H292.692V199.525C292.721 197.459 291.945 195.462 290.526 193.959C289.108 192.456 287.161 191.564 285.096 191.472Z" fill="white"/>
<path opacity="0.6" d="M253.401 191.457C251.261 191.457 249.208 192.307 247.694 193.82C246.179 195.333 245.328 197.385 245.326 199.525V271.327H261.477V199.525C261.475 197.385 260.623 195.333 259.109 193.82C257.594 192.307 255.542 191.457 253.401 191.457Z" fill="white"/>
<path d="M328.537 194.192H272.878V271.327H328.537V194.192Z" fill="#49768C"/>
<path opacity="0.2" d="M328.544 194.192H311.465V271.327H328.544V194.192Z" fill="black"/>
<path opacity="0.2" d="M307.659 196.948H275.65V208.986H307.659V196.948Z" fill="white"/>
<path opacity="0.2" d="M307.659 211.93H275.65V223.969H307.659V211.93Z" fill="white"/>
<path opacity="0.2" d="M307.659 226.913H275.65V258.922H307.659V226.913Z" fill="white"/>
<path opacity="0.2" d="M290.834 200.537C291.533 200.537 292.1 199.97 292.1 199.271C292.1 198.571 291.533 198.005 290.834 198.005C290.135 198.005 289.568 198.571 289.568 199.271C289.568 199.97 290.135 200.537 290.834 200.537Z" fill="black"/>
<path opacity="0.2" d="M290.834 214.987C291.533 214.987 292.1 214.42 292.1 213.721C292.1 213.022 291.533 212.455 290.834 212.455C290.135 212.455 289.568 213.022 289.568 213.721C289.568 214.42 290.135 214.987 290.834 214.987Z" fill="black"/>
<path opacity="0.2" d="M278.459 242.914C278.472 243.088 278.45 243.262 278.392 243.427C278.335 243.592 278.244 243.743 278.126 243.871C278.007 243.999 277.863 244.101 277.703 244.171C277.544 244.241 277.371 244.277 277.197 244.277C277.022 244.277 276.85 244.241 276.69 244.171C276.53 244.101 276.386 243.999 276.268 243.871C276.149 243.743 276.058 243.592 276.001 243.427C275.944 243.262 275.921 243.088 275.934 242.914C275.959 242.596 276.102 242.299 276.336 242.082C276.57 241.865 276.878 241.745 277.197 241.745C277.515 241.745 277.823 241.865 278.057 242.082C278.291 242.299 278.434 242.596 278.459 242.914Z" fill="black"/>
<path d="M308.648 146.196H305.052V194.184H308.648V146.196Z" fill="#263238"/>
<path d="M287.643 162.692H326.065L322.956 135.499H290.752L287.643 162.692Z" fill="#49768C"/>
<g opacity="0.6">
<path d="M287.643 162.692H326.065L322.956 135.499H290.752L287.643 162.692Z" fill="white"/>
</g>
<path opacity="0.2" d="M305.052 173.636V194.192H308.655V171.389L305.052 173.636Z" fill="white"/>
<path d="M313.15 192.079H300.558L298.31 194.192H315.397L313.15 192.079Z" fill="#49768C"/>
<path opacity="0.2" d="M313.15 192.079H300.558L298.31 194.192H315.397L313.15 192.079Z" fill="white"/>
<path d="M104.126 80.2895C103.147 79.6844 101.976 79.4679 100.845 79.6827C97.6389 80.2895 96.8748 83.4283 97.3018 85.758C97.4865 86.7026 97.922 87.58 98.5625 88.2983C99.2031 89.0167 100.025 89.5494 100.942 89.8407C103.467 90.4774 105.692 88.1402 106.344 86.3873C106.757 85.273 106.761 84.0481 106.355 82.9311C105.949 81.8142 105.159 80.8779 104.126 80.2895Z" fill="#263238"/>
<path d="M160.646 114.734L173.314 111.183C173.314 111.183 173.314 110.434 175.284 109.033C177.254 107.632 182.528 106.531 182.528 106.531C182.528 106.531 184.955 113.55 184.168 113.745C183.382 113.94 176.273 116.314 175.876 115.528L162.392 119.341L160.646 114.734Z" fill="#B97964"/>
<path d="M122.052 100.096C129.446 102.486 140.96 115.528 143.207 116.314C145.454 117.101 166.969 112.449 166.969 112.449L169.965 117.985C169.965 117.985 150.219 125.131 143.185 124.577C136.151 124.023 126.974 113.595 120.397 112.089L122.052 100.096Z" fill="#49768C"/>
<path opacity="0.5" d="M169.988 117.985C169.988 117.985 150.241 125.131 143.207 124.577C138.66 124.217 133.229 119.745 128.225 116.217C125.446 114.284 122.786 112.629 120.457 112.089L121.311 105.812L122.06 100.096C129.454 102.486 140.967 115.52 143.215 116.314C145.462 117.108 166.976 112.449 166.976 112.449L169.988 117.985Z" fill="white"/>
<path opacity="0.2" d="M128.188 116.217C125.408 114.284 122.749 112.629 120.419 112.089L121.273 105.812C123.393 107.872 126.659 111.617 128.188 116.217Z" fill="black"/>
<path d="M132.944 260.952L127.948 261.829L125.903 255.027L124.038 248.787L129.791 246.779L131.461 254.278L132.944 260.952Z" fill="#E4897B"/>
<path d="M126.824 261.701C126.742 261.147 133.566 260.39 133.566 260.39C133.566 260.39 138.473 263.881 142.683 264.136C146.893 264.391 145.057 267.192 140.54 267.994L129.379 269.964C126.172 270.511 127.701 267.432 126.824 261.701Z" fill="#263238"/>
<path d="M136.937 261.529C136.108 261.491 135.285 261.355 134.488 261.125C134.468 261.129 134.447 261.129 134.428 261.125C134.407 261.113 134.391 261.094 134.383 261.072C134.383 261.072 134.383 261.072 134.383 261.027C134.379 261 134.379 260.972 134.383 260.945C134.383 260.87 134.69 259.192 135.536 258.652C135.664 258.568 135.809 258.512 135.96 258.49C136.112 258.468 136.266 258.48 136.413 258.525C136.75 258.615 136.93 258.78 136.96 259.012C137.005 259.372 136.585 259.814 136.083 260.203C136.578 260.024 137.112 259.988 137.626 260.098C137.723 260.131 137.812 260.183 137.888 260.251C137.964 260.319 138.026 260.402 138.068 260.495C138.142 260.606 138.182 260.736 138.182 260.87C138.182 261.003 138.142 261.134 138.068 261.244C137.91 261.367 137.727 261.456 137.533 261.505C137.338 261.554 137.135 261.562 136.937 261.529ZM135.087 260.907C136.151 261.154 137.454 261.304 137.731 260.99C137.731 260.99 137.829 260.877 137.731 260.623C137.71 260.574 137.679 260.53 137.638 260.495C137.598 260.46 137.551 260.434 137.499 260.42C136.945 260.226 135.814 260.6 135.087 260.907ZM136.083 258.817C135.947 258.817 135.813 258.859 135.701 258.937C135.229 259.377 134.911 259.958 134.795 260.593C135.731 260.038 136.608 259.342 136.57 259.035C136.57 258.937 136.39 258.877 136.285 258.847C136.219 258.83 136.152 258.82 136.083 258.817Z" fill="#49768C"/>
<path opacity="0.2" d="M131.491 254.435L125.925 255.169L124.052 248.854L129.798 246.809L131.491 254.435Z" fill="black"/>
<path d="M99.6315 263.087H94.56L93.7285 256.038L92.9794 249.558L98.9947 248.584L99.3319 256.263L99.6315 263.087Z" fill="#E4897B"/>
<path d="M93.4738 262.765C93.4738 262.203 100.351 262.645 100.351 262.645C100.351 262.645 104.576 266.938 108.673 267.889C112.771 268.84 110.486 271.312 105.902 271.312H94.56C91.3014 271.327 93.339 268.556 93.4738 262.765Z" fill="#263238"/>
<path d="M103.961 264.436C102.972 264.314 102.011 264.02 101.122 263.567C101.096 263.559 101.072 263.543 101.055 263.522V263.484C101.036 263.439 101.036 263.387 101.055 263.342C101.055 263.274 101.654 261.671 102.553 261.289C102.691 261.224 102.842 261.191 102.995 261.191C103.148 261.191 103.299 261.224 103.437 261.289C103.752 261.439 103.901 261.634 103.886 261.866C103.886 262.226 103.377 262.615 102.823 262.885C103.328 262.805 103.846 262.865 104.321 263.057C104.412 263.103 104.492 263.169 104.556 263.249C104.619 263.329 104.664 263.422 104.688 263.522C104.744 263.648 104.759 263.789 104.729 263.923C104.699 264.058 104.627 264.18 104.523 264.271C104.359 264.385 104.161 264.443 103.961 264.436ZM101.714 263.454C102.725 263.881 103.961 264.263 104.306 263.994C104.306 263.994 104.426 263.904 104.351 263.634C104.339 263.582 104.316 263.533 104.282 263.491C104.248 263.45 104.205 263.416 104.156 263.394C103.692 263.072 102.516 263.245 101.744 263.417L101.714 263.454ZM102.943 261.567C102.848 261.566 102.754 261.584 102.665 261.619C102.124 261.98 101.712 262.505 101.489 263.117C102.508 262.735 103.489 262.196 103.504 261.889C103.504 261.799 103.355 261.709 103.257 261.664C103.174 261.598 103.076 261.551 102.972 261.529L102.943 261.567Z" fill="#49768C"/>
<path opacity="0.2" d="M99.3318 256.42L93.7285 256.173L92.9794 249.633L98.9947 248.614L99.3318 256.42Z" fill="black"/>
<path d="M131.956 250.472L123.715 251.918C115.475 231.295 109.55 214.08 105.392 199.795C103.145 192.087 101.407 185.232 100.066 179.149L100.441 201.623V252.6H92.1404C71.877 155.965 86.2374 133.881 86.2374 133.881L110.479 129.738C111.438 134.214 112.116 138.745 112.509 143.305L113.602 151.32L123.079 200.252L131.956 250.472Z" fill="#49768C"/>
<path opacity="0.5" d="M131.956 250.472L123.715 251.918C115.475 231.295 109.55 214.08 105.392 199.795C103.145 192.087 101.407 185.232 100.066 179.149L100.441 201.623V252.6H92.1404C71.877 155.965 86.2374 133.881 86.2374 133.881L110.479 129.738C111.438 134.214 112.116 138.745 112.509 143.305L113.602 151.32L123.079 200.252L131.956 250.472Z" fill="white"/>
<path d="M122.472 250.907L132.645 247.536L132.502 251.858L124.09 254.547L122.472 250.907Z" fill="#49768C"/>
<path d="M91.0617 251.379L101.669 249.828L100.778 254.06L92.028 255.244L91.0617 251.379Z" fill="#49768C"/>
<path opacity="0.2" d="M105.43 199.795C103.182 192.087 101.444 185.232 100.103 179.149C100.217 171.949 100.74 164.761 101.669 157.62C101.669 157.62 105.22 185.39 105.43 199.795Z" fill="black"/>
<path d="M114.479 148.324L104.126 151.829L102.208 145.529L100.111 151.335L81.3158 146.96C82.9264 135.424 89.3612 126.217 90.3725 122.727C91.7659 117.902 92.8596 108.673 91.9082 102.703V102.628C91.8134 102.026 91.8439 101.41 91.9977 100.82C92.1516 100.23 92.4254 99.6778 92.8023 99.1984C93.1791 98.7189 93.6508 98.3223 94.1878 98.0334C94.7248 97.7444 95.3157 97.5693 95.9234 97.5191C97.7363 97.3767 99.5641 97.3093 101.392 97.3018C105.016 97.2592 108.638 97.472 112.232 97.9386C116.846 98.6877 122.067 100.066 122.067 100.066C122.067 100.066 122.816 100.373 122.457 105.31C122.15 109.647 121.318 123.124 112.449 134.525L114.479 148.324Z" fill="#49768C"/>
<path opacity="0.6" d="M114.479 148.324L104.126 151.829L102.208 145.529L100.111 151.335L81.3158 146.96C82.9264 135.424 89.3612 126.217 90.3725 122.727C91.7659 117.902 92.8596 108.673 91.9082 102.703V102.628C91.8134 102.026 91.8439 101.41 91.9977 100.82C92.1516 100.23 92.4254 99.6778 92.8023 99.1984C93.1791 98.7189 93.6508 98.3223 94.1878 98.0334C94.7248 97.7444 95.3157 97.5693 95.9234 97.5191C97.7363 97.3767 99.5641 97.3093 101.392 97.3018C105.016 97.2592 108.638 97.472 112.232 97.9386C116.846 98.6877 122.067 100.066 122.067 100.066C122.067 100.066 122.816 100.373 122.457 105.31C122.15 109.647 121.318 123.124 112.449 134.525L114.479 148.324Z" fill="white"/>
<path d="M103.939 106.531C103.939 106.531 108.074 110.119 109.28 119.341L113.947 106.448L117.153 107.43C117.153 107.43 114.681 95.7361 106.666 95.5189C98.6502 95.3017 99.2495 107.43 99.2495 107.43L103.939 106.531Z" fill="#49768C"/>
<path opacity="0.5" d="M103.939 106.531C103.939 106.531 108.074 110.119 109.28 119.341L113.947 106.448L117.153 107.43C117.153 107.43 114.681 95.7361 106.666 95.5189C98.6502 95.3017 99.2495 107.43 99.2495 107.43L103.939 106.531Z" fill="white"/>
<path d="M115.565 93.384C115.565 93.384 112.628 95.2792 112.119 96.5377C112.087 96.6154 112.062 96.6956 112.044 96.7774C111.904 97.4927 111.806 98.2156 111.752 98.9424C113.999 103.774 109.692 112.089 109.692 112.089C107.939 107.176 105.456 102.555 102.328 98.3805C107.04 96.5377 107.939 87.5035 107.939 87.5035L110.186 89.2639L115.565 93.384Z" fill="#B97964"/>
<path opacity="0.2" d="M115.565 93.3839C115.565 93.3839 112.629 95.2792 112.119 96.5377C112.088 96.6154 112.063 96.6956 112.044 96.7774C110.8 95.8278 109.808 94.5874 109.155 93.1651C108.502 91.7428 108.208 90.182 108.299 88.6196L110.209 89.2638L115.565 93.3839Z" fill="black"/>
<path d="M118.824 72.2066C118.824 72.2066 124.764 70.5436 127.641 75.3379C130.517 80.1322 128.218 83.7654 126.217 85.4958" stroke="#263238" stroke-width="0.488465" stroke-linecap="round" stroke-linejoin="round"/>
<path d="M121.191 71.9145C121.191 71.9145 126.03 72.0643 127.371 76.1545C128.712 80.2446 127.716 84.8366 120.532 89.7808C117.018 92.2004 108.291 87.4735 108.291 87.4735L107.595 89.586C106.428 88.7413 105.369 87.7577 104.441 86.657C101.617 83.3459 102.343 72.379 110.179 70.229C118.359 68.0191 121.191 71.9145 121.191 71.9145Z" fill="#263238"/>
<path d="M116.576 73.3153C122.726 74.1468 124.262 77.7126 123.85 84.1175C123.333 92.1105 120.809 97.5041 113.363 94.7623C103.212 91.0393 106.373 71.9145 116.576 73.3153Z" fill="#B97964"/>
<path d="M119.917 83.226C120.286 84.2118 120.771 85.1499 121.363 86.0202C121.148 86.2516 120.874 86.4188 120.569 86.5035C120.265 86.5881 119.944 86.5868 119.64 86.4996L119.917 83.226Z" fill="#A24E3F"/>
<path d="M116.224 82.2147C116.164 82.7166 115.842 83.0987 115.475 83.0612C115.108 83.0238 114.913 82.5818 114.966 82.0724C115.018 81.563 115.348 81.1885 115.715 81.2259C116.082 81.2634 116.277 81.7053 116.224 82.2147Z" fill="#263238"/>
<path d="M115.573 81.2334L116.719 80.9263C116.719 80.9263 116.067 81.7953 115.573 81.2334Z" fill="#263238"/>
<path d="M122.532 82.814C122.479 83.3234 122.157 83.7055 121.82 83.668C121.483 83.6306 121.251 83.1886 121.311 82.6792C121.371 82.1698 121.685 81.7878 122.06 81.8327C122.434 81.8777 122.592 82.3121 122.532 82.814Z" fill="#263238"/>
<path d="M121.88 81.8402L123.034 81.5331C123.034 81.5331 122.382 82.402 121.88 81.8402Z" fill="#263238"/>
<path d="M116.741 77.9598C116.264 77.8328 115.763 77.8174 115.279 77.9149C114.794 78.0123 114.338 78.2199 113.947 78.5216" stroke="#263238" stroke-width="0.707962" stroke-linecap="round" stroke-linejoin="round"/>
<path d="M121.243 78.3044C121.678 78.2549 122.118 78.3047 122.531 78.4501C122.943 78.5954 123.318 78.8325 123.625 79.1434" stroke="#263238" stroke-width="0.707962" stroke-linecap="round" stroke-linejoin="round"/>
<path d="M108.441 82.7616C108.441 82.7616 112.007 78.1021 112.104 74.1393C112.104 74.1393 124.974 70.8208 123.888 83.2785C123.888 83.2785 126.577 72.4538 116.037 70.7683C105.497 69.0828 103.062 83.6006 107.872 88.9567C107.872 88.9567 106.231 85.6831 108.441 82.7616Z" fill="#263238"/>
<path d="M109.273 84.1999C109.307 83.4807 109.057 82.7768 108.576 82.241C108.095 81.7053 107.422 81.3809 106.703 81.3383C104.77 81.2859 103.325 85.0839 107.939 86.6645C108.621 86.8967 109.078 86.2749 109.273 84.1999Z" fill="#B97964"/>
<path d="M119.311 88.335C119.052 89.0684 118.847 89.8195 118.696 90.5823H118.284C116.427 90.4924 115.595 89.8332 115.235 89.144C115.064 88.8001 114.979 88.4195 114.988 88.0353C114.987 87.8179 115.014 87.6012 115.071 87.3911C116.195 87.9518 117.426 88.2659 118.681 88.3125C119.108 88.335 119.311 88.335 119.311 88.335Z" fill="#263238"/>
<path d="M118.681 88.2975L118.479 88.9567C116.734 88.8668 115.483 88.5747 114.988 88.0203C114.987 87.8029 115.014 87.5862 115.071 87.3761C116.195 87.9367 117.426 88.2509 118.681 88.2975Z" fill="white"/>
<path d="M118.284 90.5673C116.427 90.4774 115.595 89.8182 115.235 89.129C115.939 89.1739 116.629 89.3439 117.273 89.6309C117.7 89.8294 118.054 90.157 118.284 90.5673Z" fill="#DE5753"/>
<path d="M102.928 79.1434L103.377 69.5698L101.692 66.9254C106.066 65.3211 110.801 64.9734 115.363 65.9216L121.213 71.9145C121.213 71.9145 109.902 69.1353 102.928 79.1434Z" fill="#49768C"/>
<path opacity="0.6" d="M121.191 71.9145C116.929 71.0597 112.503 71.725 108.681 73.7948C106.381 75.1043 104.413 76.9238 102.928 79.1134L103.377 69.5398L101.692 66.8955C106.068 65.3012 110.804 64.9638 115.363 65.9216L121.191 71.9145Z" fill="white"/>
<path opacity="0.1" d="M108.681 73.8247C106.381 75.1342 104.413 76.9538 102.928 79.1434L103.377 69.5698L101.692 66.9254L108.681 73.8247Z" fill="black"/>
<path d="M131.843 140.967L140.083 142.87C142.14 142.993 144.177 143.339 146.159 143.904C149.275 144.818 152.646 146.151 152.152 146.96C151.657 147.769 146.264 152.107 144.541 151.829C142.818 151.552 137.971 148.833 138.548 147.485L130.502 145.529L131.843 140.967Z" fill="#B97964"/>
<path d="M94.163 98.0584C97.1145 97.1969 102.845 125.026 107.07 129.738C111.295 134.45 136.765 141.387 136.765 141.387L135.476 146.96C135.476 146.96 104.254 143.162 100.103 137.222C95.9534 131.281 90.1778 115.363 89.4436 107.43C88.7095 99.4967 92.4251 98.5753 94.163 98.0584Z" fill="#49768C"/>
<path opacity="0.5" d="M94.163 98.0584C97.1145 97.1969 102.845 125.026 107.07 129.738C111.295 134.45 136.765 141.387 136.765 141.387L135.476 146.96C135.476 146.96 104.254 143.162 100.103 137.222C95.9534 131.281 90.1778 115.363 89.4436 107.43C88.7095 99.4967 92.4251 98.5753 94.163 98.0584Z" fill="white"/>
<path d="M120.876 121.58L112.651 121.026L113.235 116.434L121.468 116.988L120.876 121.58Z" fill="#49768C"/>
<path opacity="0.5" d="M120.442 121.221L113.355 120.741L113.865 116.794L120.944 117.273L120.442 121.221Z" fill="white"/>
<path d="M117.595 115.183L116.801 117.4H118.127V115.183H117.595Z" fill="#263238"/>
<path d="M142.511 147.477L134.84 148.923C134.84 148.923 126.817 147.17 125.423 147.477C124.03 147.784 120.419 154.863 120.419 154.863C120.419 154.863 132.742 157.553 134.315 157.028C135.888 156.504 137.192 154.459 137.192 154.459L143.185 153.35L142.511 147.477Z" fill="#E4897B"/>
<path d="M158.167 111.168C154.541 116.614 159.807 138.705 160.137 140.106C160.467 141.507 138.533 147.44 138.533 147.44L141.694 157.111C141.694 157.111 169.029 153.957 172.063 150.698C175.097 147.44 171.681 120.652 171.681 120.652L158.197 111.168H158.167Z" fill="#49768C"/>
<path opacity="0.4" d="M172.063 150.698C169.478 153.478 149.223 156.182 143.312 156.916L141.694 157.111L138.533 147.44L139.971 147.043C144.848 145.694 160.414 141.29 160.137 140.106C159.807 138.705 154.541 116.614 158.167 111.168L160.512 112.157L168.272 118.06L171.681 120.652C171.681 120.652 173.044 131.094 173.269 139.686C173.426 144.908 173.202 149.47 172.063 150.698Z" fill="black"/>
<path opacity="0.1" d="M143.312 156.916L141.694 157.111L138.533 147.44L139.971 147.043L143.312 156.916Z" fill="black"/>
<path opacity="0.2" d="M173.269 139.686C168.774 132.487 168.332 124.599 168.272 118.06L171.681 120.652C171.681 120.652 173.044 131.094 173.269 139.686Z" fill="black"/>
<path d="M108.973 271.312L114.217 185.817H156.669L161.912 271.312H165.658L158.871 161.411C158.707 158.912 157.608 156.566 155.792 154.842C153.976 153.117 151.577 152.141 149.073 152.107H121.955C119.43 152.113 117.001 153.077 115.159 154.806C113.318 156.535 112.202 158.898 112.037 161.418L105.295 271.312H108.973ZM115.715 161.65C115.818 160.08 116.513 158.608 117.66 157.531C118.808 156.455 120.322 155.855 121.895 155.852H149.073C150.644 155.856 152.154 156.456 153.3 157.531C154.446 158.606 155.141 160.075 155.245 161.643L156.504 182.071H114.479L115.715 161.65Z" fill="#49768C"/>
<path d="M187.352 265.642L181.494 267.35L178.041 254.667L183.899 252.952L187.352 265.642Z" fill="#B97964"/>
<path d="M180.857 264.63H188.026C188.144 264.631 188.257 264.671 188.348 264.745C188.439 264.818 188.503 264.921 188.528 265.035L189.689 270.279C189.736 270.504 189.693 270.739 189.568 270.932C189.443 271.126 189.247 271.262 189.023 271.312C188.958 271.32 188.893 271.32 188.828 271.312C186.513 271.275 184.835 271.133 181.929 271.133C180.138 271.133 174.745 271.32 172.273 271.32C169.801 271.32 169.478 268.885 170.49 268.661C175.029 267.672 178.438 266.301 179.891 264.997C180.155 264.758 180.501 264.627 180.857 264.63Z" fill="#263238"/>
<path opacity="0.2" d="M183.899 252.952L178.041 254.667L179.824 261.207L185.689 259.499L183.899 252.952Z" fill="black"/>
<path d="M206.402 144.256C208.002 152.328 208.668 160.557 208.387 168.782C207.863 181.974 178.048 198.349 177.479 202.956C176.91 207.563 186.656 255.738 186.656 255.738L176.37 259.394C176.37 259.394 156.047 215.781 155.815 205.106C155.583 194.431 178.048 168.782 184.176 161.71C186.558 158.961 184.213 147.897 184.213 147.897L206.402 144.256Z" fill="#263238"/>
<path opacity="0.3" d="M208.387 168.782C208.2 173.554 204.177 178.737 199.091 183.637C191.023 191.442 180.183 198.514 177.906 201.975C177.692 202.266 177.546 202.601 177.479 202.956C176.917 207.571 186.656 255.738 186.656 255.738L176.37 259.387C176.37 259.387 156.047 215.781 155.815 205.106C155.583 194.431 178.048 168.782 184.176 161.71C186.558 158.961 184.213 147.897 184.213 147.897L206.41 144.248C208.006 152.324 208.67 160.555 208.387 168.782Z" fill="white"/>
<path d="M175.734 261.192L188.259 256.945L187.225 253.454L174.145 257.634L175.734 261.192Z" fill="#49768C"/>
<path opacity="0.6" d="M175.734 261.192L188.259 256.945L187.225 253.454L174.145 257.634L175.734 261.192Z" fill="white"/>
<path opacity="0.2" d="M199.091 183.637C191.023 191.442 180.183 198.514 177.906 201.975C178.34 186.461 197.068 169.95 197.068 169.95L199.091 183.637Z" fill="black"/>
<path d="M215.721 265.642L209.863 267.35L206.402 254.667L212.268 252.952L215.721 265.642Z" fill="#B97964"/>
<path d="M209.226 264.63H216.373C216.49 264.631 216.603 264.671 216.694 264.745C216.786 264.818 216.849 264.921 216.875 265.035L218.036 270.279C218.082 270.505 218.038 270.741 217.911 270.934C217.785 271.128 217.588 271.264 217.362 271.312C217.299 271.32 217.236 271.32 217.174 271.312C214.859 271.275 213.174 271.133 210.275 271.133C208.485 271.133 203.083 271.32 200.619 271.32C198.154 271.32 197.825 268.885 198.836 268.661C203.368 267.672 206.784 266.301 208.237 264.997C208.507 264.752 208.862 264.621 209.226 264.63Z" fill="#263238"/>
<path opacity="0.2" d="M212.268 252.952L206.402 254.667L208.193 261.207L214.051 259.499L212.268 252.952Z" fill="black"/>
<path d="M218.051 141.582C221.378 149.154 222.992 157.367 222.778 165.636C222.253 178.82 206.417 198.342 205.848 202.949C205.278 207.556 214.994 255.738 214.994 255.738L204.702 259.394C204.702 259.394 184.378 215.781 184.139 205.106C183.899 194.431 197.038 169.95 197.038 169.95L194.304 145.679L218.051 141.582Z" fill="#263238"/>
<path opacity="0.3" d="M218.051 141.582C221.378 149.154 222.992 157.367 222.778 165.636C222.253 178.82 206.417 198.342 205.848 202.949C205.278 207.556 214.994 255.738 214.994 255.738L204.702 259.394C204.702 259.394 184.378 215.781 184.139 205.106C183.899 194.431 197.038 169.95 197.038 169.95L194.304 145.679L218.051 141.582Z" fill="white"/>
<path d="M204.095 261.192L216.627 256.945L215.586 253.454L202.514 257.634L204.095 261.192Z" fill="#49768C"/>
<path opacity="0.6" d="M204.095 261.192L216.627 256.945L215.586 253.454L202.514 257.634L204.095 261.192Z" fill="white"/>
<path d="M222.815 157.096C222.815 157.096 187.068 162.489 183.517 159.62C178.273 155.395 172.482 120.052 158.167 111.168C159.64 108.807 161.429 106.66 163.486 104.785C167.923 100.597 173.288 97.5173 179.142 95.7961C183.596 94.5076 188.224 93.9237 192.858 94.0657C192.858 94.0657 220.92 114.007 222.815 157.096Z" fill="#49768C"/>
<path opacity="0.3" d="M222.815 157.096C222.815 157.096 187.068 162.489 183.517 159.62C183.131 159.29 182.798 158.904 182.528 158.474C177.524 151.08 171.591 119.52 158.167 111.168C159.64 108.807 161.429 106.66 163.486 104.785L164.085 104.231C168.408 100.331 173.555 97.456 179.142 95.8186C179.434 95.7287 179.734 95.6463 180.034 95.5714C184.212 94.4489 188.533 93.9441 192.858 94.0732C192.858 94.0732 199.113 98.5154 205.915 107.737C209.99 113.275 213.378 119.287 216.006 125.641C219.683 134.597 221.911 144.082 222.605 153.74C222.695 154.856 222.763 155.965 222.815 157.096Z" fill="black"/>
<path opacity="0.1" d="M180.034 95.5714C178.904 101.358 177.197 107.017 174.94 112.464C174.94 112.464 167.606 109.752 164.085 104.224C168.408 100.324 173.555 97.4485 179.142 95.8111C179.434 95.7287 179.734 95.6463 180.034 95.5714Z" fill="black"/>
<path opacity="0.1" d="M222.815 157.096C222.815 157.096 187.068 162.489 183.517 159.62C183.131 159.29 182.798 158.904 182.528 158.474C196.044 158.816 209.539 157.227 222.605 153.755C222.695 154.856 222.763 155.965 222.815 157.096Z" fill="black"/>
<path opacity="0.2" d="M216.006 125.656C203.473 122.352 196.956 108.254 196.956 108.254L205.945 107.752C210.009 113.292 213.387 119.304 216.006 125.656Z" fill="black"/>
<path d="M178.288 96.3429C176.116 104.269 172.962 105.632 170.49 105.167C169.025 104.799 167.697 104.02 166.662 102.92C166.918 102.448 167.037 101.913 167.006 101.377C166.957 100.791 166.778 100.223 166.481 99.7145C166.184 99.2064 165.778 98.7711 165.291 98.4404C164.816 98.0735 164.315 97.7406 163.793 97.4441L163.95 95.4066L164.699 85.7355C166.076 87.8423 167.606 89.8453 169.276 91.7284C169.838 92.3427 170.43 92.942 171.037 93.4888C173.306 95.5639 175.838 96.9497 178.288 96.3429Z" fill="#E4897B"/>
<path opacity="0.2" d="M170.482 105.167C169.018 104.799 167.689 104.02 166.654 102.92C166.91 102.448 167.03 101.913 166.999 101.377C166.95 100.791 166.77 100.223 166.474 99.7145C166.177 99.2064 165.77 98.7711 165.283 98.4404C164.808 98.0735 164.307 97.7406 163.785 97.4441L163.943 95.4065L171.037 93.4738C171.037 93.4738 172.812 100.575 170.482 105.167Z" fill="black"/>
<path d="M152.758 85.346C152.758 85.346 150.638 85.1213 150.294 87.878C149.949 90.6347 150.886 90.6872 150.886 90.6872C150.886 90.6872 150.136 92.9944 151.065 93.6462C151.994 94.2979 152.758 97.0546 152.758 97.0546L154.856 93.2042L152.758 85.346Z" fill="#263238"/>
<path opacity="0.6" d="M152.758 85.346C152.758 85.346 150.638 85.1213 150.294 87.878C149.949 90.6347 150.886 90.6872 150.886 90.6872C150.886 90.6872 150.136 92.9944 151.065 93.6462C151.994 94.2979 152.758 97.0546 152.758 97.0546L154.856 93.2042L152.758 85.346Z" fill="white"/>
<path d="M169.134 99.5042C168.985 99.814 168.818 100.114 168.632 100.403C167.74 101.912 166.377 103.084 164.752 103.739C163.127 104.395 161.331 104.497 159.643 104.029C157.444 103.474 155.541 102.099 154.324 100.186C154.147 99.9244 153.987 99.6516 153.845 99.3694C153.567 98.8 153.29 98.1783 153.043 97.5116C151.035 92.1405 148.953 84.7767 155.448 80.8963C159.538 78.4318 166.407 78.1246 168.857 82.2372C169.754 83.7373 170.332 85.406 170.557 87.1394C170.781 88.8728 170.646 90.6338 170.16 92.3128C170.535 94.4252 170.902 95.9534 169.134 99.5042Z" fill="#E4897B"/>
<path d="M171.823 87.2787C171.823 87.2787 172.909 87.2263 172.467 85.7805C172.025 84.3347 170.168 83.3909 170.168 83.3909C170.168 83.3909 171.666 82.402 169.703 81.4657C168.701 81.0069 167.563 80.9375 166.512 81.2709C165.86 80.724 160.137 76.132 156.249 78.8662C156.215 78.8964 156.192 78.9382 156.187 78.9836C156.181 79.0291 156.192 79.0751 156.218 79.1129C156.244 79.1508 156.282 79.1778 156.327 79.189C156.371 79.2001 156.418 79.1946 156.459 79.1734C159.852 76.7912 164.969 80.5293 166.093 81.4207L165.808 81.5555C164.639 81.0312 156.032 77.3381 153.14 81.6754C153.126 81.696 153.117 81.7192 153.112 81.7436C153.107 81.768 153.107 81.7931 153.112 81.8175C153.116 81.8419 153.126 81.8651 153.14 81.8857C153.154 81.9064 153.172 81.924 153.193 81.9376C153.213 81.9514 153.235 81.9611 153.259 81.9659C153.283 81.9708 153.308 81.9708 153.331 81.9659C153.355 81.961 153.378 81.9513 153.398 81.9374C153.418 81.9235 153.435 81.9058 153.448 81.8852C155.987 78.0797 163.62 81.0312 165.396 81.7878C165.203 81.9073 165.02 82.0426 164.849 82.1923C163.066 81.7054 157.418 80.372 154.032 82.1923C153.455 82.4931 152.948 82.9121 152.544 83.4219C152.14 83.9317 151.848 84.521 151.687 85.1513C151.68 85.1744 151.678 85.1986 151.681 85.2226C151.684 85.2465 151.691 85.2697 151.703 85.2906C151.715 85.3116 151.731 85.3299 151.75 85.3446C151.769 85.3593 151.791 85.37 151.815 85.376H151.867C151.907 85.376 151.947 85.3629 151.979 85.3386C152.012 85.3142 152.035 85.2801 152.047 85.2412C152.197 84.6606 152.467 84.1181 152.84 83.6484C153.213 83.1788 153.68 82.7925 154.212 82.5144C157.305 80.8289 162.587 81.9601 164.534 82.4695C164.222 82.8234 163.969 83.2256 163.785 83.6605C162.759 86.1326 164.422 87.069 165.508 88.3125C166.594 89.556 166.093 91.6086 166.078 91.676C165.561 92.8846 164.777 93.9604 163.785 94.8223C163.091 94.5396 162.314 94.5396 161.62 94.8223C160.68 95.2519 159.927 96.0077 159.5 96.9497C156.212 96.6052 155.68 99.2945 155.68 99.2945C154.24 98.2416 153.093 96.839 152.346 95.2193C152.017 98.2157 153.095 101.347 154.152 102.628C155.208 103.909 155.732 102.628 155.732 102.628C155.732 102.628 155.98 105.145 157.388 106.089C158.796 107.033 159.291 105.887 159.291 105.887C159.291 105.887 160.04 107.467 162.699 108.134C165.358 108.801 166.205 104.973 166.205 104.973C169.119 107.22 168.872 101.909 168.872 101.909C168.872 101.909 170.303 102.306 170.168 99.714C170.055 97.6914 168.257 93.781 167.463 92.1405C168.647 91.9532 170.46 94.6575 170.46 94.6575C175.576 95.1369 171.823 87.2787 171.823 87.2787Z" fill="#263238"/>
<path opacity="0.6" d="M171.823 87.2787C171.823 87.2787 172.909 87.2263 172.467 85.7805C172.025 84.3347 170.168 83.3909 170.168 83.3909C170.168 83.3909 171.666 82.402 169.703 81.4657C168.701 81.0069 167.563 80.9375 166.512 81.2709C165.86 80.724 160.137 76.132 156.249 78.8662C156.215 78.8964 156.192 78.9382 156.187 78.9836C156.181 79.0291 156.192 79.0751 156.218 79.1129C156.244 79.1508 156.282 79.1778 156.327 79.189C156.371 79.2001 156.418 79.1946 156.459 79.1734C159.852 76.7912 164.969 80.5293 166.093 81.4207L165.808 81.5555C164.639 81.0312 156.032 77.3381 153.14 81.6754C153.126 81.696 153.117 81.7192 153.112 81.7436C153.107 81.768 153.107 81.7931 153.112 81.8175C153.116 81.8419 153.126 81.8651 153.14 81.8857C153.154 81.9064 153.172 81.924 153.193 81.9376C153.213 81.9514 153.235 81.9611 153.259 81.9659C153.283 81.9708 153.308 81.9708 153.331 81.9659C153.355 81.961 153.378 81.9513 153.398 81.9374C153.418 81.9235 153.435 81.9058 153.448 81.8852C155.987 78.0797 163.62 81.0312 165.396 81.7878C165.203 81.9073 165.02 82.0426 164.849 82.1923C163.066 81.7054 157.418 80.372 154.032 82.1923C153.455 82.4931 152.948 82.9121 152.544 83.4219C152.14 83.9317 151.848 84.521 151.687 85.1513C151.68 85.1744 151.678 85.1986 151.681 85.2226C151.684 85.2465 151.691 85.2697 151.703 85.2906C151.715 85.3116 151.731 85.3299 151.75 85.3446C151.769 85.3593 151.791 85.37 151.815 85.376H151.867C151.907 85.376 151.947 85.3629 151.979 85.3386C152.012 85.3142 152.035 85.2801 152.047 85.2412C152.197 84.6606 152.467 84.1181 152.84 83.6484C153.213 83.1788 153.68 82.7925 154.212 82.5144C157.305 80.8289 162.587 81.9601 164.534 82.4695C164.222 82.8234 163.969 83.2256 163.785 83.6605C162.759 86.1326 164.422 87.069 165.508 88.3125C166.594 89.556 166.093 91.6086 166.078 91.676C165.561 92.8846 164.777 93.9604 163.785 94.8223C163.091 94.5396 162.314 94.5396 161.62 94.8223C160.68 95.2519 159.927 96.0077 159.5 96.9497C156.212 96.6052 155.68 99.2945 155.68 99.2945C154.24 98.2416 153.093 96.839 152.346 95.2193C152.017 98.2157 153.095 101.347 154.152 102.628C155.208 103.909 155.732 102.628 155.732 102.628C155.732 102.628 155.98 105.145 157.388 106.089C158.796 107.033 159.291 105.887 159.291 105.887C159.291 105.887 160.04 107.467 162.699 108.134C165.358 108.801 166.205 104.973 166.205 104.973C169.119 107.22 168.872 101.909 168.872 101.909C168.872 101.909 170.303 102.306 170.168 99.714C170.055 97.6914 168.257 93.781 167.463 92.1405C168.647 91.9532 170.46 94.6575 170.46 94.6575C175.576 95.1369 171.823 87.2787 171.823 87.2787Z" fill="white"/>
<path d="M160.085 90.5523C160.235 91.0393 160.032 91.5187 159.703 91.5936C159.373 91.6685 159.013 91.3239 158.894 90.8445C158.774 90.3651 158.954 89.8706 159.283 89.7957C159.613 89.7208 159.965 90.0429 160.085 90.5523Z" fill="#263238"/>
<path d="M154.406 91.8633C154.489 92.0535 154.494 92.2683 154.421 92.4624C154.349 92.6566 154.204 92.8151 154.017 92.9046C153.687 92.9795 153.328 92.6349 153.208 92.1555C153.088 91.676 153.268 91.1816 153.597 91.1067C153.927 91.0318 154.316 91.3914 154.406 91.8633Z" fill="#263238"/>
<path d="M156.264 91.691C156.022 93.3666 155.548 95.0004 154.856 96.5452C155.259 96.7127 155.694 96.79 156.13 96.7719C156.566 96.7538 156.993 96.6406 157.38 96.4404L156.264 91.691Z" fill="#DE5753"/>
<path d="M161.426 88.305C161.373 88.3243 161.317 88.3297 161.261 88.3205C161.206 88.3113 161.154 88.2879 161.111 88.2526C160.825 88.0019 160.484 87.8213 160.116 87.7251C159.748 87.6289 159.363 87.6197 158.991 87.6982C158.916 87.7218 158.834 87.7145 158.764 87.678C158.693 87.6415 158.641 87.5788 158.616 87.5035C158.595 87.427 158.604 87.3453 158.642 87.2755C158.68 87.2056 158.743 87.1531 158.819 87.1289C159.286 87.0166 159.774 87.0186 160.241 87.1346C160.708 87.2507 161.14 87.4774 161.501 87.7956C161.562 87.8455 161.601 87.9175 161.609 87.9961C161.618 88.0747 161.595 88.1534 161.545 88.2151C161.511 88.2515 161.47 88.2818 161.426 88.305Z" fill="#263238"/>
<path d="M151.507 90.4624C151.459 90.501 151.397 90.5197 151.335 90.5149C151.259 90.4969 151.192 90.4505 151.149 90.385C151.106 90.3196 151.089 90.24 151.103 90.1628C151.199 89.6912 151.407 89.2497 151.709 88.8754C152.012 88.5012 152.4 88.2053 152.841 88.0129C152.878 87.9986 152.918 87.9919 152.958 87.9932C152.998 87.9946 153.037 88.0039 153.073 88.0207C153.11 88.0374 153.142 88.0612 153.169 88.0908C153.196 88.1203 153.217 88.155 153.23 88.1926C153.253 88.2683 153.248 88.3499 153.215 88.4217C153.182 88.4935 153.123 88.5507 153.051 88.5822C152.706 88.7438 152.404 88.9838 152.168 89.2829C151.933 89.5821 151.771 89.9321 151.695 90.3051C151.677 90.3436 151.651 90.3777 151.619 90.4049C151.586 90.4321 151.548 90.4518 151.507 90.4624Z" fill="#263238"/>
<path opacity="0.6" d="M161.426 88.305C161.373 88.3243 161.317 88.3297 161.261 88.3205C161.206 88.3113 161.154 88.2879 161.111 88.2526C160.825 88.0019 160.484 87.8213 160.116 87.7251C159.748 87.6289 159.363 87.6197 158.991 87.6982C158.916 87.7218 158.834 87.7145 158.764 87.678C158.693 87.6415 158.641 87.5788 158.616 87.5035C158.595 87.427 158.604 87.3453 158.642 87.2755C158.68 87.2056 158.743 87.1531 158.819 87.1289C159.286 87.0166 159.774 87.0186 160.241 87.1346C160.708 87.2507 161.14 87.4774 161.501 87.7956C161.562 87.8455 161.601 87.9175 161.609 87.9961C161.618 88.0747 161.595 88.1534 161.545 88.2151C161.511 88.2515 161.47 88.2818 161.426 88.305Z" fill="white"/>
<path opacity="0.6" d="M151.507 90.4624C151.459 90.501 151.397 90.5197 151.335 90.5149C151.259 90.4969 151.192 90.4505 151.149 90.385C151.106 90.3196 151.089 90.24 151.103 90.1628C151.199 89.6912 151.407 89.2497 151.709 88.8754C152.012 88.5012 152.4 88.2053 152.841 88.0129C152.878 87.9986 152.918 87.9919 152.958 87.9932C152.998 87.9946 153.037 88.0039 153.073 88.0207C153.11 88.0374 153.142 88.0612 153.169 88.0908C153.196 88.1203 153.217 88.155 153.23 88.1926C153.253 88.2683 153.248 88.3499 153.215 88.4217C153.182 88.4935 153.123 88.5507 153.051 88.5822C152.706 88.7438 152.404 88.9838 152.168 89.2829C151.933 89.5821 151.771 89.9321 151.695 90.3051C151.677 90.3436 151.651 90.3777 151.619 90.4049C151.586 90.4321 151.548 90.4518 151.507 90.4624Z" fill="white"/>
<path opacity="0.2" d="M156.317 100.163C156.317 100.163 156.864 100.71 157.598 99.8713C157.598 99.8713 158.639 101.497 159.725 97.8936C159.725 97.8936 162.632 98.4779 163.426 97.8936C163.973 97.4966 163.426 96.7774 163.426 96.7774C163.426 96.7774 164.617 96.6576 164.924 95.7736C164.924 95.7736 165.868 99.3019 160.429 98.6352C160.414 98.6352 158.669 102.441 156.317 100.163Z" fill="black"/>
<path d="M172.924 91.0992C172.747 91.8695 172.418 92.5971 171.958 93.2399C171.498 93.8828 170.915 94.4282 170.243 94.8447C168.445 95.9534 166.962 94.4777 166.969 92.4775C166.969 90.6946 167.943 87.9155 169.965 87.6458C171.988 87.3761 173.344 89.1889 172.924 91.0992Z" fill="#E4897B"/>
<path opacity="0.2" d="M158.856 91.3914C158.856 91.3914 159.141 92.8297 160.864 92.3802" stroke="black" stroke-width="0.5" stroke-linecap="round" stroke-linejoin="round"/>
<path opacity="0.2" d="M154.669 92.5C154.669 92.5 154.631 94.208 153.448 94.0731" stroke="black" stroke-width="0.5" stroke-linecap="round" stroke-linejoin="round"/>
<path opacity="0.2" d="M152.534 87.039C154.25 86.0832 156.206 85.6412 158.167 85.7655" stroke="black" stroke-width="0.5" stroke-linecap="round" stroke-linejoin="round"/>
<path opacity="0.2" d="M152.534 86.1476C153.276 85.4551 154.186 84.968 155.174 84.7342C156.161 84.5004 157.193 84.5279 158.167 84.8141" stroke="black" stroke-width="0.5" stroke-linecap="round" stroke-linejoin="round"/>
<path opacity="0.2" d="M153.253 84.5595C153.979 84.0158 154.827 83.659 155.723 83.5205C156.619 83.3821 157.536 83.4662 158.392 83.7654" stroke="black" stroke-width="0.5" stroke-linecap="round" stroke-linejoin="round"/>
<path d="M225.092 135.963L221.347 140.106C221.347 140.106 218.695 141.709 218.538 142.623C218.38 143.537 221.834 155.395 221.834 155.395C221.834 155.395 226.531 151.785 226.381 150.698C226.231 149.612 224.014 144.248 224.014 144.248L228.141 140.406L225.092 135.963Z" fill="#E4897B"/>
<path d="M192.858 94.0882C192.858 94.0882 225.759 96.3355 237.91 110.381C250.06 124.427 226.351 144.249 226.351 144.249L222.074 136.975C222.074 136.975 231.692 127.236 228.134 120.652C224.576 114.067 206.41 114.621 206.41 114.621C206.41 114.621 188.708 107.325 192.858 94.0882Z" fill="#49768C"/>
<path opacity="0.4" d="M228.111 142.66C227.033 143.679 226.351 144.249 226.351 144.249L222.074 136.975C222.074 136.975 222.441 136.608 223.002 135.963C225.317 133.312 231.003 125.978 228.134 120.652C224.576 114.044 206.41 114.621 206.41 114.621C206.41 114.621 188.716 107.325 192.866 94.0882C192.866 94.0882 225.767 96.3355 237.917 110.374C248 122.037 233.363 137.686 228.111 142.66Z" fill="black"/>
<path opacity="0.1" d="M228.111 142.66C227.033 143.679 226.351 144.248 226.351 144.248L222.073 136.975C222.073 136.975 222.441 136.608 223.002 135.963L228.111 142.66Z" fill="black"/>
<path d="M157.418 170.362H114.307C113.81 170.362 113.334 170.165 112.982 169.814C112.631 169.463 112.434 168.986 112.434 168.49C112.434 167.993 112.631 167.517 112.982 167.165C113.334 166.814 113.81 166.617 114.307 166.617H157.418C157.915 166.617 158.391 166.814 158.742 167.165C159.093 167.517 159.291 167.993 159.291 168.49C159.291 168.986 159.093 169.463 158.742 169.814C158.391 170.165 157.915 170.362 157.418 170.362Z" fill="#49768C"/>
<g opacity="0.2">
<path d="M157.418 170.362H114.307C113.81 170.362 113.334 170.165 112.982 169.814C112.631 169.463 112.434 168.986 112.434 168.49C112.434 167.993 112.631 167.517 112.982 167.165C113.334 166.814 113.81 166.617 114.307 166.617H157.418C157.915 166.617 158.391 166.814 158.742 167.165C159.093 167.517 159.291 167.993 159.291 168.49C159.291 168.986 159.093 169.463 158.742 169.814C158.391 170.165 157.915 170.362 157.418 170.362Z" fill="white"/>
</g>
<path d="M153.672 227.257H110.561C110.064 227.257 109.588 227.06 109.237 226.709C108.886 226.358 108.688 225.881 108.688 225.385C108.688 224.888 108.886 224.411 109.237 224.06C109.588 223.709 110.064 223.512 110.561 223.512H153.672C154.169 223.512 154.645 223.709 154.996 224.06C155.348 224.411 155.545 224.888 155.545 225.385C155.545 225.881 155.348 226.358 154.996 226.709C154.645 227.06 154.169 227.257 153.672 227.257Z" fill="#49768C"/>
<g opacity="0.2">
<path d="M153.672 227.257H110.561C110.064 227.257 109.588 227.06 109.237 226.709C108.886 226.358 108.688 225.881 108.688 225.385C108.688 224.888 108.886 224.411 109.237 224.06C109.588 223.709 110.064 223.512 110.561 223.512H153.672C154.169 223.512 154.645 223.709 154.996 224.06C155.348 224.411 155.545 224.888 155.545 225.385C155.545 225.881 155.348 226.358 154.996 226.709C154.645 227.06 154.169 227.257 153.672 227.257Z" fill="white"/>
</g>
<path d="M153.17 271.312L158.414 185.817H200.866L206.147 271.312H209.893L203.106 161.411C202.942 158.905 201.837 156.555 200.013 154.829C198.189 153.104 195.781 152.131 193.27 152.107H166.153C163.627 152.113 161.198 153.077 159.357 154.806C157.516 156.535 156.4 158.898 156.234 161.418L149.492 271.312H153.17ZM159.912 161.65C160.015 160.08 160.711 158.608 161.858 157.531C163.005 156.455 164.519 155.855 166.093 155.852H193.27C194.841 155.856 196.352 156.456 197.498 157.531C198.643 158.606 199.339 160.075 199.443 161.643L200.701 182.071H158.676L159.912 161.65Z" fill="#49768C"/>
<path opacity="0.2" d="M153.17 271.312L158.414 185.817H200.866L206.147 271.312H209.893L203.106 161.411C202.942 158.905 201.837 156.555 200.013 154.829C198.189 153.104 195.781 152.131 193.27 152.107H166.153C163.627 152.113 161.198 153.077 159.357 154.806C157.516 156.535 156.4 158.898 156.234 161.418L149.492 271.312H153.17ZM159.912 161.65C160.015 160.08 160.711 158.608 161.858 157.531C163.005 156.455 164.519 155.855 166.093 155.852H193.27C194.841 155.856 196.352 156.456 197.498 157.531C198.643 158.606 199.339 160.075 199.443 161.643L200.701 182.071H158.676L159.912 161.65Z" fill="white"/>
</svg>
