<svg width="332" height="307" viewBox="0 0 332 307" fill="none" xmlns="http://www.w3.org/2000/svg">
<path d="M218.996 10.5253C218.996 10.5253 165.478 -8.5113 112.945 21.7908C60.4129 52.0928 33.8986 112.236 11.1371 160.414C-11.6244 208.593 1.47205 257.596 41.579 279.917C81.6859 302.239 108.955 269.323 165.212 267.722C221.469 266.122 236.6 274.159 283.318 242.382C330.036 210.606 338.436 135.542 301.613 80.0048C264.791 24.4674 218.996 10.5253 218.996 10.5253Z" fill="#49768C"/>
<path opacity="0.8" d="M218.996 10.5253C218.996 10.5253 165.478 -8.5113 112.945 21.7908C60.4129 52.0928 33.8986 112.236 11.1371 160.414C-11.6244 208.593 1.47205 257.596 41.579 279.917C81.6859 302.239 108.955 269.323 165.212 267.722C221.469 266.122 236.6 274.159 283.318 242.382C330.036 210.606 338.436 135.542 301.613 80.0048C264.791 24.4674 218.996 10.5253 218.996 10.5253Z" fill="white"/>
<path d="M3.82016 299.213H328.086" stroke="#263238" stroke-linecap="round" stroke-linejoin="round"/>
<path d="M248.885 2.94281H185.01V243.004H248.885V2.94281Z" stroke="#263238" stroke-linecap="round" stroke-linejoin="round"/>
<path d="M330.022 2.9428H183.389C183.132 2.9428 182.885 2.84045 182.702 2.65828C182.52 2.47611 182.418 2.22903 182.418 1.9714C182.418 1.71377 182.52 1.46669 182.702 1.28452C182.885 1.10234 183.132 1 183.389 1H330.022C330.28 0.999993 330.528 1.10211 330.711 1.28409C330.894 1.46606 330.998 1.71313 331 1.9714C330.998 2.22967 330.894 2.47674 330.711 2.65871C330.528 2.84068 330.28 2.94281 330.022 2.9428Z" fill="#263238" stroke="#263238" stroke-linecap="round" stroke-linejoin="round"/>
<path d="M248.787 183.965H327.086" stroke="#263238" stroke-linecap="round" stroke-linejoin="round"/>
<path d="M248.787 179.304H327.086" stroke="#263238" stroke-linecap="round" stroke-linejoin="round"/>
<path d="M248.787 88.9221H327.086" stroke="#263238" stroke-linecap="round" stroke-linejoin="round"/>
<path d="M248.787 93.0244H327.086" stroke="#263238" stroke-linecap="round" stroke-linejoin="round"/>
<path d="M189.644 3.29919V21.7348" stroke="#263238" stroke-linecap="round" stroke-linejoin="round"/>
<path d="M192.635 6.03171V125.011" stroke="#263238" stroke-linecap="round" stroke-linejoin="round"/>
<path d="M199.889 3.07559V17.409" stroke="#263238" stroke-linecap="round" stroke-linejoin="round"/>
<path d="M199.889 20.8193V28.7862" stroke="#263238" stroke-linecap="round" stroke-linejoin="round"/>
<path d="M242.344 24.0061V27.4234" stroke="#263238" stroke-linecap="round" stroke-linejoin="round"/>
<path d="M242.344 3.29919V20.8193" stroke="#263238" stroke-linecap="round" stroke-linejoin="round"/>
<path d="M207.779 41.5262V44.2587" stroke="#263238" stroke-linecap="round" stroke-linejoin="round"/>
<path d="M207.779 6.26233V38.3395" stroke="#263238" stroke-linecap="round" stroke-linejoin="round"/>
<path d="M212.475 6.03171V16.0462" stroke="#263238" stroke-linecap="round" stroke-linejoin="round"/>
<path d="M236.795 6.03171V16.0462" stroke="#263238" stroke-linecap="round" stroke-linejoin="round"/>
<path d="M218.451 3.07559V88.6705" stroke="#263238" stroke-linecap="round" stroke-linejoin="round"/>
<path d="M226.34 3.52985V8.07935" stroke="#263238" stroke-linecap="round" stroke-linejoin="round"/>
<path d="M231.037 3.52985V64.2108" stroke="#263238" stroke-linecap="round" stroke-linejoin="round"/>
<path d="M223.783 7.17084V19.9108" stroke="#263238" stroke-linecap="round" stroke-linejoin="round"/>
<path d="M263.911 76.4547L262.261 78.5093" stroke="#263238" stroke-linecap="round" stroke-linejoin="round"/>
<path d="M298.427 35.2296L266.573 73.1351" stroke="#263238" stroke-linecap="round" stroke-linejoin="round"/>
<path d="M291.284 57.1944L279.041 71.7095" stroke="#263238" stroke-linecap="round" stroke-linejoin="round"/>
<path d="M263.911 166.837L262.261 168.898" stroke="#263238" stroke-linecap="round" stroke-linejoin="round"/>
<path d="M299.636 122.383L266.573 163.517" stroke="#263238" stroke-linecap="round" stroke-linejoin="round"/>
<path d="M291.284 147.583L279.041 162.092" stroke="#263238" stroke-linecap="round" stroke-linejoin="round"/>
<path d="M304.479 93.0593V178.06" stroke="#263238" stroke-linecap="round" stroke-linejoin="round"/>
<path d="M304.479 2.54446V88.7544" stroke="#263238" stroke-linecap="round" stroke-linejoin="round"/>
<path d="M308.714 93.1641V178.06" stroke="#263238" stroke-linecap="round" stroke-linejoin="round"/>
<path d="M308.714 2.54446V88.7124" stroke="#263238" stroke-linecap="round" stroke-linejoin="round"/>
<path d="M159.936 72.5901H15.8264V76.1542H159.936V72.5901Z" stroke="#263238" stroke-linecap="round" stroke-linejoin="round"/>
<path d="M174.206 106.121H1.56287V109.685H174.206V106.121Z" stroke="#263238" stroke-linecap="round" stroke-linejoin="round"/>
<path d="M30.3344 32.5461V72.4992H64.1098V32.5461H30.3344ZM62.754 70.8988H31.6832V34.1394H62.754V70.8988Z" fill="#263238" stroke="#263238" stroke-linecap="round" stroke-linejoin="round"/>
<path d="M87.647 78.5372V105.792H110.709V78.5372H87.647ZM109.759 104.702H88.5695V79.6204H109.766L109.759 104.702Z" fill="#263238" stroke="#263238" stroke-linecap="round" stroke-linejoin="round"/>
<path d="M71.238 48.7383V72.4992H91.3649V48.7383H71.238ZM88.9468 69.7038H73.6281V51.5337H88.9468V69.7038Z" fill="#263238" stroke="#263238" stroke-linecap="round" stroke-linejoin="round"/>
<path d="M12.2622 82.0035V105.764H32.3611V82.0035H12.2622ZM29.971 102.969H14.6523V84.8339H29.971V102.969Z" fill="#263238" stroke="#263238" stroke-linecap="round" stroke-linejoin="round"/>
<path d="M37.9449 90.3129V105.785H51.0274V90.3129H37.9449ZM49.469 103.947H39.5034V92.1578H49.469V103.947Z" fill="#263238" stroke="#263238" stroke-linecap="round" stroke-linejoin="round"/>
<path d="M66.9541 90.3129V105.785H80.0365V90.3129H66.9541ZM78.4781 103.947H68.5125V92.1578H78.4781V103.947Z" fill="#263238" stroke="#263238" stroke-linecap="round" stroke-linejoin="round"/>
<path d="M117.18 61.8557H124.798C125.274 61.8557 125.731 62.045 126.068 62.3818C126.405 62.7186 126.594 63.1754 126.594 63.6518V72.4992H115.412V63.6588C115.41 63.186 115.595 62.7316 115.926 62.3941C116.257 62.0565 116.708 61.8631 117.18 61.8557Z" stroke="#263238" stroke-linecap="round" stroke-linejoin="round"/>
<path d="M124.371 59.3469H117.607V61.7789H124.371V59.3469Z" stroke="#263238" stroke-linecap="round" stroke-linejoin="round"/>
<path d="M122.366 59.27C123.377 56.733 124.568 54.2714 125.93 51.9041C127.6 49.2835 131.64 47.145 134.253 47.145C136.867 47.145 141.864 49.9963 145.197 53.805" stroke="#263238" stroke-linecap="round" stroke-linejoin="round"/>
<path d="M131.64 47.8578C131.64 47.8578 133.037 43.1056 137.349 41.1978C141.661 39.2899 145.91 40.0097 146.623 39.2969" stroke="#263238" stroke-linecap="round" stroke-linejoin="round"/>
<path d="M120.129 59.2211C120.121 57.2772 119.486 55.3878 118.319 53.8329C116.419 51.4569 111.904 50.4994 109.046 52.4352C107.235 53.6816 105.631 55.2051 104.294 56.9498" stroke="#263238" stroke-linecap="round" stroke-linejoin="round"/>
<path d="M112.617 51.6665C112.617 51.6665 109.535 54.7554 108.836 57.8234C108.441 59.9556 108.522 62.1486 109.074 64.2458" stroke="#263238" stroke-linecap="round" stroke-linejoin="round"/>
<path d="M125.93 51.9041C128.39 47.2847 127.845 41.8687 129.697 37.0676C131.612 32.1127 135.93 29.4362 141.151 29.0728" stroke="#263238" stroke-linecap="round" stroke-linejoin="round"/>
<path d="M104.699 56.3558C104.699 56.3558 102.742 56.3558 102.092 57.9142C101.701 58.906 101.567 59.9805 101.701 61.0381C102.252 60.9146 102.765 60.6593 103.196 60.2942C103.627 59.929 103.963 59.4649 104.175 58.9415C104.957 57.1245 104.699 56.3558 104.699 56.3558Z" fill="#49768C"/>
<path d="M108.277 52.7987C108.277 52.7987 107.522 50.9956 105.831 51.0026C104.765 51.0228 103.721 51.3138 102.798 51.8482C103.124 52.3079 103.555 52.682 104.057 52.9388C104.558 53.1955 105.114 53.3273 105.677 53.3228C107.655 53.3438 108.277 52.7987 108.277 52.7987Z" fill="#49768C"/>
<path d="M108.249 60.4091C108.249 60.4091 106.565 59.4168 105.209 60.4091C104.366 61.0615 103.702 61.9176 103.28 62.897C103.816 63.0727 104.386 63.1162 104.942 63.0237C105.498 62.9312 106.024 62.7055 106.474 62.3659C108.074 61.2128 108.249 60.4091 108.249 60.4091Z" fill="#49768C"/>
<path d="M108.976 63.6238C108.976 63.6238 107.501 64.9097 108.032 66.5101C108.39 67.5158 108.996 68.4149 109.793 69.1237C110.127 68.6707 110.347 68.1437 110.433 67.5877C110.519 67.0316 110.47 66.463 110.29 65.93C109.682 64.0431 108.976 63.6238 108.976 63.6238Z" fill="#49768C"/>
<path d="M108.899 56.8101C108.899 56.8101 108.403 58.6969 109.745 59.7243C110.604 60.3544 111.609 60.756 112.666 60.8913C112.686 60.3278 112.569 59.7677 112.326 59.259C112.082 58.7504 111.72 58.3081 111.268 57.9701C109.717 56.7541 108.899 56.8101 108.899 56.8101Z" fill="#49768C"/>
<path d="M110.66 51.2193C110.66 51.2193 111.247 49.3603 109.961 48.2631C109.134 47.5917 108.151 47.1398 107.103 46.9493C107.054 47.5095 107.141 48.0734 107.356 48.5929C107.571 49.1124 107.909 49.5722 108.34 49.9334C109.835 51.2332 110.66 51.2193 110.66 51.2193Z" fill="#49768C"/>
<path d="M114.161 51.408C114.161 51.408 115.608 50.1011 115.049 48.5008C114.671 47.5111 114.051 46.6319 113.246 45.943C112.919 46.401 112.708 46.9313 112.63 47.4885C112.552 48.0458 112.61 48.6136 112.799 49.1437C113.442 51.0026 114.161 51.408 114.161 51.408Z" fill="#49768C"/>
<path d="M133.946 43.5948C133.946 43.5948 135.392 42.288 134.833 40.6946C134.459 39.6947 133.839 38.8054 133.03 38.1089C132.704 38.5683 132.493 39.1001 132.416 39.6586C132.34 40.2172 132.399 40.786 132.59 41.3166C133.226 43.1895 133.946 43.5948 133.946 43.5948Z" fill="#49768C"/>
<path d="M139.676 40.6038C139.676 40.6038 141.123 39.2969 140.564 37.6965C140.189 36.6994 139.569 35.8126 138.761 35.1178C138.434 35.5759 138.223 36.1061 138.145 36.6633C138.067 37.2206 138.125 37.7884 138.313 38.3185C138.956 40.1984 139.676 40.6038 139.676 40.6038Z" fill="#49768C"/>
<path d="M144.477 39.6883C144.477 39.6883 145.924 38.3814 145.365 36.788C144.989 35.7895 144.369 34.9006 143.562 34.2023C143.235 34.6618 143.024 35.1935 142.948 35.7521C142.871 36.3107 142.931 36.8795 143.122 37.41C143.778 39.2829 144.477 39.6883 144.477 39.6883Z" fill="#49768C"/>
<path d="M112.072 56.5794C112.072 56.5794 114.029 56.5165 114.63 54.9371C114.99 53.9325 115.088 52.8526 114.916 51.7993C114.371 51.9391 113.868 52.2085 113.449 52.5844C113.031 52.9604 112.709 53.4319 112.512 53.9588C111.792 55.8107 112.072 56.5794 112.072 56.5794Z" fill="#49768C"/>
<path d="M143.576 44.0561C143.576 44.0561 144.009 42.1552 142.632 41.1698C141.755 40.564 140.737 40.1912 139.676 40.0866C139.672 40.6498 139.803 41.2058 140.06 41.7071C140.317 42.2085 140.691 42.6403 141.151 42.9659C142.751 44.1329 143.576 44.0561 143.576 44.0561Z" fill="#49768C"/>
<path d="M148.258 43.9303C148.258 43.9303 148.698 42.0224 147.322 41.037C146.443 40.4326 145.426 40.0599 144.365 39.9538C144.365 40.5202 144.502 41.0781 144.765 41.5797C145.028 42.0813 145.409 42.5114 145.875 42.8331C147.44 44.0071 148.258 43.9303 148.258 43.9303Z" fill="#49768C"/>
<path d="M106.886 58.7878C106.886 58.7878 108.612 57.8793 108.459 56.1951C108.341 55.1344 107.959 54.1203 107.347 53.2459C106.918 53.6106 106.583 54.0737 106.372 54.5958C106.16 55.1178 106.078 55.6833 106.132 56.244C106.292 58.2217 106.886 58.7878 106.886 58.7878Z" fill="#49768C"/>
<path d="M126.803 55.9295C126.803 55.9295 128.53 55.014 128.376 53.3298C128.258 52.2692 127.876 51.255 127.265 50.3806C126.835 50.7453 126.501 51.2084 126.289 51.7305C126.077 52.2525 125.995 52.818 126.049 53.3787C126.209 55.3564 126.803 55.9295 126.803 55.9295Z" fill="#49768C"/>
<path d="M123.058 49.8565C123.058 49.8565 121.66 51.2542 122.268 52.7917C122.676 53.7773 123.327 54.6431 124.162 55.3075C124.471 54.8377 124.663 54.3001 124.72 53.7404C124.777 53.1807 124.698 52.6155 124.49 52.0928C123.784 50.2409 123.058 49.8565 123.058 49.8565Z" fill="#49768C"/>
<path d="M131.626 53.0642C131.626 53.0642 133.352 52.1487 133.198 50.4645C133.081 49.4049 132.696 48.3925 132.08 47.5224C131.653 47.8871 131.32 48.3494 131.109 48.87C130.899 49.3907 130.817 49.9544 130.871 50.5134C131.025 52.4912 131.626 53.0642 131.626 53.0642Z" fill="#49768C"/>
<path d="M137.489 53.0712C137.489 53.0712 138.928 51.7504 138.348 50.157C137.963 49.1621 137.333 48.2802 136.517 47.5922C136.187 48.0569 135.976 48.5954 135.902 49.1606C135.827 49.7258 135.892 50.3006 136.091 50.8349C136.734 52.6729 137.489 53.0712 137.489 53.0712Z" fill="#49768C"/>
<path d="M142.01 55.5451C142.01 55.5451 143.45 54.2243 142.87 52.6309C142.484 51.6361 141.855 50.7541 141.039 50.0662C140.718 50.5286 140.514 51.0618 140.443 51.6203C140.372 52.1788 140.438 52.7461 140.634 53.2739C141.291 55.1468 142.01 55.5451 142.01 55.5451Z" fill="#49768C"/>
<path d="M147.846 49.9334C147.846 49.9334 146.616 48.4239 144.994 48.9061C143.977 49.2294 143.058 49.8067 142.325 50.5833C142.768 50.9313 143.288 51.167 143.842 51.2704C144.396 51.3739 144.966 51.3419 145.505 51.1773C147.406 50.6322 147.846 49.9334 147.846 49.9334Z" fill="#49768C"/>
<path d="M141.717 32.9584C141.717 32.9584 141.717 31.0086 140.144 30.3587C139.152 29.972 138.077 29.8422 137.021 29.9813C137.145 30.5311 137.401 31.0426 137.766 31.4722C138.131 31.9018 138.595 32.2366 139.117 32.4482C140.934 33.2239 141.717 32.9584 141.717 32.9584Z" fill="#49768C"/>
<path d="M139.369 25.0334C139.369 25.0334 137.433 25.299 137 26.9343C136.746 27.9714 136.76 29.0561 137.042 30.0861C137.57 29.8898 138.043 29.5686 138.42 29.15C138.797 28.7314 139.067 28.2278 139.208 27.6821C139.732 25.7742 139.369 25.0334 139.369 25.0334Z" fill="#49768C"/>
<path d="M136.378 35.5651C136.378 35.5651 136.378 33.6083 134.812 32.9653C133.818 32.5734 132.741 32.4411 131.681 32.581C131.806 33.1308 132.062 33.6423 132.427 34.0719C132.792 34.5015 133.255 34.8363 133.778 35.0479C135.602 35.8236 136.378 35.5651 136.378 35.5651Z" fill="#49768C"/>
<path d="M134.03 27.6331C134.03 27.6331 132.094 27.9057 131.66 29.541C131.411 30.5763 131.425 31.6576 131.702 32.6858C132.23 32.4902 132.702 32.1701 133.079 31.7527C133.456 31.3354 133.727 30.8332 133.869 30.2888C134.393 28.3739 134.03 27.6331 134.03 27.6331Z" fill="#49768C"/>
<path d="M134.386 38.8007C134.386 38.8007 133.177 37.2702 131.549 37.7315C130.528 38.0377 129.603 38.5979 128.858 39.3598C129.294 39.715 129.81 39.9596 130.361 40.0728C130.912 40.1859 131.483 40.1643 132.024 40.0097C133.939 39.4926 134.386 38.8007 134.386 38.8007Z" fill="#49768C"/>
<path d="M127.635 34.0625C127.635 34.0625 126.279 35.4602 126.936 37.0187C127.379 37.9896 128.059 38.8332 128.914 39.4716C129.208 38.9908 129.381 38.4461 129.419 37.8839C129.456 37.3217 129.357 36.7587 129.131 36.2429C128.404 34.384 127.635 34.0625 127.635 34.0625Z" fill="#49768C"/>
<path d="M132.953 45.4398C132.953 45.4398 131.744 43.9093 130.116 44.3706C129.097 44.6792 128.172 45.2392 127.425 45.9989C127.862 46.3541 128.378 46.5987 128.929 46.7118C129.48 46.825 130.05 46.8034 130.591 46.6488C132.506 46.1317 132.953 45.4398 132.953 45.4398Z" fill="#49768C"/>
<path d="M126.202 40.6667C126.202 40.6667 124.847 42.0644 125.504 43.6228C125.946 44.5937 126.626 45.4374 127.481 46.0757C127.775 45.5949 127.948 45.0502 127.986 44.488C128.024 43.9258 127.925 43.3628 127.698 42.8471C126.95 41.051 126.202 40.6667 126.202 40.6667Z" fill="#49768C"/>
<path d="M142.381 47.0681C142.381 47.0681 141.144 45.5586 139.523 46.0408C138.505 46.3642 137.586 46.9414 136.853 47.718C137.296 48.066 137.816 48.3017 138.37 48.4051C138.924 48.5086 139.494 48.4766 140.033 48.312C141.941 47.7669 142.381 47.0681 142.381 47.0681Z" fill="#49768C"/>
<path d="M139.257 43.8464C139.257 43.8464 138.02 42.3299 136.399 42.8191C135.383 43.1424 134.464 43.7169 133.729 44.4893C134.171 44.8385 134.692 45.0755 135.245 45.1801C135.799 45.2848 136.37 45.254 136.909 45.0903C138.817 44.5452 139.257 43.8464 139.257 43.8464Z" fill="#49768C"/>
<path d="M151.466 38.7378C151.466 38.7378 150.229 37.2283 148.608 37.7105C147.59 38.0339 146.671 38.6111 145.938 39.3878C146.381 39.7357 146.901 39.9714 147.455 40.0749C148.009 40.1783 148.579 40.1464 149.118 39.9818C151.053 39.4367 151.466 38.7378 151.466 38.7378Z" fill="#49768C"/>
<path d="M146.155 28.4718C146.155 28.4718 144.918 26.9553 143.296 27.4375C142.282 27.7638 141.366 28.3407 140.634 29.1147C141.075 29.4627 141.594 29.6991 142.146 29.8037C142.699 29.9083 143.268 29.8781 143.806 29.7157C145.714 29.1706 146.155 28.4718 146.155 28.4718Z" fill="#49768C"/>
<path d="M146.176 59.2211C146.176 59.2211 147.615 57.9003 147.035 56.3139C146.652 55.3174 146.022 54.4348 145.204 53.7491C144.883 54.2116 144.679 54.7448 144.608 55.3033C144.538 55.8618 144.603 56.4291 144.799 56.9568C145.456 58.7878 146.176 59.2211 146.176 59.2211Z" fill="#49768C"/>
<path d="M127.796 105.785H135.246C137.768 104.073 139.488 100.67 139.488 96.7492C139.515 94.3876 138.844 92.0705 137.559 90.0892H125.483C124.197 92.0705 123.526 94.3876 123.554 96.7492C123.554 100.67 125.273 104.073 127.796 105.785Z" stroke="#263238" stroke-linecap="round" stroke-linejoin="round"/>
<path d="M151.857 79.9629H147.098V106.121H151.857V79.9629Z" stroke="#263238" stroke-linecap="round" stroke-linejoin="round"/>
<path d="M157.085 79.9629H152.325V106.121H157.085V79.9629Z" stroke="#263238" stroke-linecap="round" stroke-linejoin="round"/>
<path d="M162.319 79.9629H157.56V106.121H162.319V79.9629Z" stroke="#263238" stroke-linecap="round" stroke-linejoin="round"/>
<path d="M31.9138 226.316C30.0245 222.346 29.5987 217.836 30.7118 213.583C32.5568 206.329 33.2277 207.545 31.3058 203.366C29.384 199.186 27.7208 198.334 28.8669 194.749C30.013 191.164 31.9837 185.559 31.2709 182.169C30.5581 178.78 29.0066 177.382 29.7055 173.713C30.4043 170.044 32.5638 168.276 31.5085 164.272C30.4532 160.268 28.6083 160.456 29.3071 156.78C30.006 153.104 30.9844 152.825 30.7048 149.505C30.4253 146.186 31.194 144.613 31.194 144.613C31.194 144.613 32.4589 149.806 33.2906 152.678C34.1222 155.55 34.241 157.207 33.8427 159.303C33.4443 161.4 38.1965 165.034 38.3363 166.69C38.476 168.346 39.4894 170.184 37.91 173.678C36.3306 177.173 35.9322 179.269 36.8407 181.624C37.7492 183.979 38.7346 183.616 37.8331 188.34C36.9316 193.064 34.1991 193.078 36.2257 196.726C38.2524 200.374 39.4684 201.15 38.5319 203.715C37.5955 206.28 36.1139 209.236 36.687 210.976C37.0204 211.841 37.4272 212.675 37.903 213.471C39.0653 215.532 39.4544 217.941 39.0002 220.264L38.7276 221.696L39.6151 228.929L35.3033 232.459C35.3033 232.459 33.3045 230.935 31.9138 226.316Z" fill="#49768C"/>
<path d="M26.938 226.945C25.69 225.557 24.7313 223.934 24.1181 222.171C23.5049 220.409 23.2495 218.541 23.3669 216.679C23.8141 210.431 24.7087 211.325 22.0321 208.202C19.3555 205.078 17.5664 204.637 18.0137 201.514C18.461 198.39 19.3555 193.484 18.0137 190.807C16.6719 188.131 14.8899 187.236 14.8899 184.112C14.8899 180.988 16.6789 179.22 14.8899 176.082C13.1008 172.945 11.3187 173.406 11.3187 170.282C11.3187 167.158 12.2133 164.482 11.3187 161.805C10.4242 159.128 11.0112 159.708 11.0112 159.708C11.0112 159.708 13.1078 164.062 14.4426 166.292C15.7774 168.521 16.2316 169.863 16.2316 171.645C16.2316 173.427 21.5848 175.663 22.0321 176.998C22.4793 178.333 23.8141 179.682 22.9196 182.798C22.0251 185.915 22.0321 187.69 23.3669 189.493C24.7017 191.296 25.5962 190.835 25.5962 194.847C25.5962 198.858 22.9196 199.305 25.5962 201.989C28.2728 204.672 29.6146 205.106 29.1673 207.342C28.7201 209.578 27.8325 212.234 28.7201 213.583C29.0566 214.05 29.4305 214.49 29.8382 214.896C31.6937 216.809 32.7336 219.367 32.7384 222.032L34.9678 227.832L31.3966 231.403C31.3966 231.403 29.1673 230.509 26.938 226.945Z" fill="#49768C"/>
<path d="M52.3691 226.945C53.6152 225.556 54.5722 223.933 55.1842 222.17C55.7961 220.408 56.0508 218.541 55.9333 216.679C55.493 210.431 54.5984 211.325 57.275 208.202C59.9516 205.078 61.7337 204.637 61.2934 201.514C60.8531 198.39 59.9516 193.484 61.2934 190.807C62.6352 188.131 64.4103 187.236 64.4103 184.112C64.4103 180.988 62.6282 179.22 64.4103 176.082C66.1923 172.945 67.9814 173.406 67.9814 170.282C67.9814 167.158 67.0869 164.482 67.9814 161.805C68.8759 159.128 67.8067 160.659 67.8067 160.659C67.8067 160.659 66.1993 164.034 64.8575 166.25C63.5158 168.465 63.0755 169.821 63.0755 171.603C63.0755 173.385 57.7223 175.621 57.275 176.956C56.8278 178.291 55.493 179.64 56.3805 182.756C57.2681 185.873 57.275 187.648 55.9333 189.451C54.5915 191.254 53.7039 190.793 53.7039 194.805C53.7039 198.816 56.3805 199.263 53.7039 201.947C51.0273 204.63 49.6925 205.064 50.1398 207.3C50.5871 209.536 51.4746 212.192 50.5801 213.541C50.2529 214.003 49.8857 214.436 49.4829 214.834C47.6102 216.77 46.565 219.359 46.5687 222.053L44.3394 227.853L47.9035 231.424C47.9035 231.424 50.1328 230.509 52.3691 226.945Z" fill="#49768C"/>
<path d="M44.5001 228.063C45.3111 226.795 45.8611 225.378 46.1179 223.895C46.3746 222.411 46.3331 220.892 45.9957 219.425C44.8216 214.533 44.2276 215.337 45.9467 212.499C47.6659 209.662 49.0287 209.068 48.2599 206.643C47.4912 204.218 46.1634 200.423 46.8622 198.117C47.5611 195.811 48.8819 194.861 48.4696 192.373C48.0573 189.885 46.373 188.704 47.4143 185.978C48.4556 183.253 49.9022 183.378 49.5109 180.898C49.1195 178.417 48.0363 176.397 48.3997 174.147C48.7631 171.896 47.9734 172.483 47.9734 172.483C47.6115 174.39 47.1188 176.27 46.4988 178.109C45.7231 180.059 45.5484 181.184 45.8 182.603C46.0516 184.021 42.0681 186.509 41.8864 187.627C41.7047 188.746 40.8172 189.997 41.9423 192.366C43.0675 194.735 43.2981 196.153 42.4665 197.754C41.6348 199.354 40.8661 199.11 41.3902 202.31C41.9144 205.511 44.1088 205.511 42.3337 207.992C40.5586 210.473 39.5383 211.011 40.1952 212.723C40.8521 214.435 41.9074 216.455 41.3693 217.615C40.5751 218.939 39.6654 220.19 38.6508 221.354L39.2378 224.904L38.2245 229.796L41.537 232.165C41.537 232.165 43.1933 231.201 44.5001 228.063Z" fill="#49768C"/>
<path d="M57.5895 224.429L56.5413 250.594H53.634V270.769H24.1916V250.594H21.473L20.4248 224.429H57.5895Z" fill="#263238" stroke="#263238" stroke-miterlimit="10"/>
<path d="M20.6134 229.216L20.7672 233.004H57.247L57.3938 229.216H20.6134Z" fill="white" stroke="#263238" stroke-miterlimit="10"/>
<path d="M56.9676 239.894L57.0654 237.483H20.9489L21.0468 239.894H56.9676Z" fill="white" stroke="#263238" stroke-miterlimit="10"/>
<path d="M21.473 250.587H20.1732V299.22H24.1916V270.769" stroke="#263238" stroke-miterlimit="10"/>
<path d="M56.5412 250.587H57.6454V299.22H53.634V270.769" stroke="#263238" stroke-miterlimit="10"/>
<path d="M87.1298 199.69C87.1298 199.69 79.2189 154.614 79.2189 144.481C79.2189 134.347 89.6317 118.274 113.784 111.984C137.936 105.695 168.755 109.888 177.917 114.43C187.079 118.973 192.488 128.756 194.571 144.83C196.653 160.904 200.818 225.547 200.818 225.547L90.8826 227.294L87.1298 199.69Z" fill="#666666" stroke="#263238" stroke-linecap="round" stroke-linejoin="round"/>
<path d="M218.017 286.563C215.669 289.121 212.868 291.222 209.757 292.762C204.865 295.082 202.524 297.654 202.768 299.471C203.013 301.288 205.871 301.568 210.77 301.798C215.669 302.029 232.973 301.281 235.817 301.281C238.661 301.281 240.974 300.505 240.974 298.178C240.974 295.851 240.457 289.918 240.457 289.918L218.017 286.563Z" fill="white" stroke="#263238" stroke-linecap="round" stroke-linejoin="round"/>
<path d="M228.339 299.213C219.212 299.213 206.947 298.688 202.88 298.514C202.777 298.824 202.744 299.153 202.782 299.478C203.041 301.288 205.885 301.575 210.784 301.805C215.683 302.036 232.986 301.288 235.831 301.288C238.389 301.288 240.527 300.652 240.918 298.821C238.179 299.01 234 299.213 228.339 299.213Z" fill="white" stroke="#263238" stroke-linecap="round" stroke-linejoin="round"/>
<path d="M242.54 173.238C242.54 173.238 232.987 212.479 232.987 215.574C232.987 218.67 242.023 232.871 242.281 243.969C242.54 255.066 238.41 276.759 239.185 279.079C239.961 281.399 241.282 282.95 240.988 285.019C240.695 287.088 239.961 292.504 239.961 292.504C239.961 292.504 236.341 292.762 228.856 291.211C224.597 290.369 220.44 289.071 216.459 287.339C216.459 287.339 215.942 281.916 215.942 280.889C215.942 279.862 216.976 277.269 217.234 275.207C217.493 273.146 216.459 253.005 214.397 242.424C212.336 231.844 208.457 218.153 208.457 210.927C208.457 203.701 208.198 178.144 208.198 178.144C213.19 174.706 218.456 171.684 223.943 169.108C233.238 164.719 239.695 167.046 239.695 167.046L242.54 173.238Z" fill="#49768C" stroke="#263238" stroke-linecap="round" stroke-linejoin="round"/>
<path d="M227.389 167.731C226.215 168.126 225.067 168.593 223.951 169.129C219.247 171.356 214.697 173.894 210.33 176.725L212.021 180.366C212.021 180.366 230.296 186.237 239.318 185.105L239.703 185.049C241.296 178.368 242.54 173.259 242.54 173.259L240.779 169.429C240.05 168.969 239.252 168.627 238.417 168.416C237.424 168.276 232.421 167.99 227.389 167.731Z" fill="#263238" stroke="#263238" stroke-linecap="round" stroke-linejoin="round"/>
<path d="M246.411 286.563C244.053 289.122 241.244 291.223 238.123 292.762C233.231 295.082 230.897 297.654 231.135 299.471C231.372 301.288 234.231 301.568 239.136 301.798C244.042 302.029 261.339 301.281 264.176 301.281C267.014 301.281 269.341 300.505 269.341 298.178C269.341 295.851 268.824 289.918 268.824 289.918L246.411 286.563Z" fill="white" stroke="#263238" stroke-linecap="round" stroke-linejoin="round"/>
<path d="M256.733 299.213C247.606 299.213 235.342 298.688 231.274 298.514C231.171 298.824 231.138 299.153 231.176 299.478C231.435 301.288 234.272 301.575 239.178 301.805C244.084 302.036 261.381 301.288 264.218 301.288C266.783 301.288 268.914 300.652 269.313 298.821C266.573 299.01 262.394 299.213 256.733 299.213Z" fill="white" stroke="#263238" stroke-linecap="round" stroke-linejoin="round"/>
<path d="M270.969 173.238C270.969 173.238 261.416 212.479 261.416 215.574C261.416 218.67 270.452 232.871 270.71 243.969C270.969 255.066 266.839 276.759 267.607 279.079C268.376 281.399 269.704 282.95 269.417 285.019C269.131 287.088 268.383 292.504 268.383 292.504C268.383 292.504 264.77 292.762 257.285 291.211C253.028 290.368 248.874 289.07 244.895 287.339C244.895 287.339 244.378 281.916 244.378 280.889C244.378 279.862 245.412 277.269 245.671 275.207C245.929 273.146 244.895 253.005 242.826 242.424C240.758 231.844 236.893 218.153 236.893 210.927C236.893 203.701 236.635 178.144 236.635 178.144C241.625 174.704 246.892 171.682 252.38 169.108C261.674 164.719 268.125 167.046 268.125 167.046L270.969 173.238Z" fill="#49768C" stroke="#263238" stroke-linecap="round" stroke-linejoin="round"/>
<path d="M262.394 166.459C258.902 166.672 255.487 167.572 252.345 169.108C246.857 171.682 241.59 174.704 236.6 178.144C236.6 178.144 236.6 181.093 236.669 185.265C238.312 185.608 242.847 186.279 251.499 185.762C261.045 185.188 267.02 183.33 268.635 182.77L269.138 180.674L269.32 171.764C269.32 171.764 265.029 168.241 262.394 166.459Z" fill="#263238" stroke="#263238" stroke-linecap="round" stroke-linejoin="round"/>
<path d="M215.382 92.3954C215.382 92.3954 209.093 94.3173 207.52 95.3655C205.948 96.4138 203.502 104.625 202.803 106.547C202.104 108.469 198.435 118.428 198.435 118.428L204.376 119.651C204.376 119.651 204.201 125.591 205.074 128.037C205.948 130.483 212.238 137.821 212.238 137.821L214.509 143.935L212.063 177.83C212.063 177.83 220.973 182.547 235.999 183.945C251.024 185.342 261.332 183.945 262.555 183.246C263.279 182.83 264.039 182.479 264.826 182.197L265.874 177.305L267.447 181.848C269.409 181.665 271.344 181.254 273.212 180.625C275.309 179.751 278.454 178.004 278.454 178.004C278.454 178.004 271.989 153.545 269.194 146.906C266.398 140.267 261.681 129.959 261.681 129.959C261.681 129.959 259.585 106.023 255.392 97.9862C251.198 89.9495 243.336 87.8529 237.746 87.3288C232.155 86.8046 215.382 92.3954 215.382 92.3954Z" fill="#49768C" stroke="#263238" stroke-linecap="round" stroke-linejoin="round"/>
<path d="M213.663 93.255C212.488 97.2467 211.838 101.374 211.728 105.534L213.663 93.255Z" fill="white"/>
<path d="M213.663 93.255C212.488 97.2467 211.838 101.374 211.728 105.534" stroke="#263238" stroke-width="2" stroke-linecap="round" stroke-linejoin="round"/>
<path d="M212.573 131.901C212.497 131.899 212.422 131.888 212.35 131.866C211.975 131.729 211.613 131.56 211.266 131.363C210.952 131.573 210.693 131.727 210.567 131.803C210.41 131.875 210.231 131.885 210.067 131.832C209.902 131.779 209.762 131.667 209.675 131.518C209.589 131.368 209.56 131.192 209.596 131.023C209.631 130.853 209.729 130.703 209.869 130.601L210.064 130.483C209.414 129.926 208.93 129.201 208.667 128.386C207.968 126.157 207.52 107.358 208.743 105.401C209.072 104.871 209.56 104.458 210.138 104.222C210.715 103.986 211.352 103.939 211.958 104.087C212.657 104.276 214.397 105.066 214.558 108.322C214.761 112.341 215.005 125.989 214.768 127.638C214.628 128.596 213.579 129.637 212.552 130.434C212.629 130.47 212.708 130.501 212.79 130.525C212.877 130.554 212.958 130.6 213.027 130.66C213.097 130.721 213.153 130.794 213.194 130.877C213.235 130.959 213.259 131.049 213.266 131.141C213.272 131.233 213.26 131.325 213.23 131.412C213.186 131.552 213.099 131.675 212.981 131.763C212.863 131.851 212.72 131.899 212.573 131.901ZM211.259 105.345C210.993 105.349 210.732 105.419 210.5 105.55C210.268 105.681 210.073 105.867 209.931 106.093C209.051 107.609 209.372 125.814 210.008 127.939C210.24 128.617 210.674 129.207 211.252 129.63C212.37 128.805 213.314 127.911 213.391 127.394C213.6 125.933 213.391 112.655 213.167 108.343C213.083 106.701 212.524 105.625 211.616 105.394C211.5 105.361 211.38 105.344 211.259 105.345Z" fill="white" stroke="#263238" stroke-linecap="round" stroke-linejoin="round"/>
<path d="M210.043 130.462L211.266 131.342C210.765 131.759 210.195 132.086 209.582 132.307C208.932 132.439 208.415 131.901 210.043 130.462Z" fill="#263238" stroke="#263238" stroke-linecap="round" stroke-linejoin="round"/>
<path d="M212.559 130.427L211.266 131.342C211.266 131.342 212.58 133.089 214.013 132.439C215.445 131.789 212.559 130.427 212.559 130.427Z" fill="#263238" stroke="#263238" stroke-linecap="round" stroke-linejoin="round"/>
<path d="M231.135 87.2169C231.135 87.2169 228.339 101.229 228.339 112.215" stroke="#263238" stroke-width="2" stroke-linecap="round" stroke-linejoin="round"/>
<path d="M231.54 114.801C231.54 117.54 229.946 119.762 227.983 119.762C226.019 119.762 224.426 117.54 224.426 114.801C224.426 112.061 226.019 109.846 227.983 109.846C229.946 109.846 231.54 112.068 231.54 114.801Z" fill="white" stroke="#263238" stroke-linecap="round" stroke-linejoin="round"/>
<path d="M228.954 114.158C228.954 115.898 227.941 117.309 226.69 117.309C225.439 117.309 224.426 115.912 224.426 114.158C224.426 112.403 225.439 111.006 226.69 111.006C227.941 111.006 228.954 112.417 228.954 114.158Z" fill="white" stroke="#263238" stroke-linecap="round" stroke-linejoin="round"/>
<path d="M263.484 105.674L258.187 110.915L255.217 105.499L263.484 105.674Z" fill="#263238" stroke="#263238" stroke-linecap="round" stroke-linejoin="round"/>
<path d="M240.422 110.097L242.519 128.498C242.519 128.498 212.238 134.326 208.974 134.089C205.08 133.67 201.146 134.315 197.59 135.955C192.929 138.051 190.601 139.218 190.832 140.378C191.063 141.538 193.159 145.27 193.159 145.27C193.159 145.27 197.122 145.508 197.352 144.809C197.506 144.277 197.586 143.727 197.59 143.174C197.59 143.174 201.783 143.411 203.642 142.475C204.835 141.859 205.934 141.075 206.905 140.148C206.905 140.148 231.365 142.014 240.681 142.244C249.996 142.475 260.717 141.776 261.884 140.148C263.051 138.519 257.691 105.205 257.691 105.205L240.422 110.097Z" fill="white" stroke="#263238" stroke-linecap="round" stroke-linejoin="round"/>
<path d="M242.519 128.498C242.519 128.498 251.925 125.129 257.195 127.17" stroke="#263238" stroke-linecap="round" stroke-linejoin="round"/>
<path d="M208.974 134.089L209.519 140.287L212.287 140.721L211.7 133.725L208.974 134.089Z" fill="white" stroke="#263238" stroke-linecap="round" stroke-linejoin="round"/>
<path d="M212.72 133.6C212.755 134.242 211.811 134.823 210.623 134.892C209.435 134.962 208.408 134.501 208.366 133.858C208.324 133.215 209.275 132.635 210.463 132.565C211.651 132.495 212.678 132.957 212.72 133.6Z" fill="white" stroke="#263238" stroke-linecap="round" stroke-linejoin="round"/>
<path d="M197.562 143.174L195.088 142.475" stroke="#263238" stroke-linecap="round" stroke-linejoin="round"/>
<path d="M238.556 99.6145L239.723 112.893L263.484 105.674C263.484 105.674 255.594 91.9272 251.136 88.433C246.677 84.9387 237.627 87.9647 236.46 88.9012" fill="#49768C"/>
<path d="M238.556 99.6145L239.723 112.893L263.484 105.674C263.484 105.674 255.594 91.9272 251.136 88.433C246.677 84.9387 237.627 87.9647 236.46 88.9012" stroke="#263238" stroke-linecap="round" stroke-linejoin="round"/>
<path d="M193.194 55.5312C193.194 55.5312 184.633 63.5679 188.127 67.4116C191.622 71.2553 196.514 73.7012 197.213 78.069C197.911 82.4368 199.309 85.0575 197.387 88.9012C195.465 92.7449 194.068 93.6184 194.068 93.6184C194.068 93.6184 202.279 97.8115 207.521 97.4621C212.762 97.1127 220.275 91.1724 220.275 91.1724C220.275 91.1724 232.504 90.9977 237.92 86.2805C243.336 81.5633 243.162 73.5265 240.891 67.9357C238.619 62.345 230.757 55.7269 226.942 51.5338C223.126 47.3407 215.585 44.5453 207.723 45.4188C199.861 46.2924 193.194 55.5312 193.194 55.5312Z" fill="#263238" stroke="#263238" stroke-linecap="round" stroke-linejoin="round"/>
<path d="M212.964 92.9196C212.964 92.9196 214.537 96.938 215.585 100.607C216.633 104.276 219.429 113.536 219.429 113.011C219.429 112.487 225.02 98.5104 226.417 94.492C227.251 92.1228 227.78 89.6569 227.99 87.1541L223.272 76.1472C221.793 79.4572 219.653 82.4299 216.983 84.8828C212.79 88.5518 211.741 90.2989 211.741 90.2989L212.964 92.9196Z" fill="white" stroke="#263238" stroke-linecap="round" stroke-linejoin="round"/>
<path d="M213.747 94.499C213.747 94.499 220.966 92.4653 224.125 89.7608C227.284 87.0562 227.508 86.3714 227.508 86.3714L223.671 79.1523L213.747 94.499Z" fill="#263238" stroke="#263238" stroke-linecap="round" stroke-linejoin="round"/>
<path d="M194.242 69.5081C194.242 69.5081 197.387 77.3702 197.911 79.6414C198.436 81.9127 200.357 86.2805 203.327 88.9012C206.298 91.5218 208.219 95.0161 212.937 94.3172C217.654 93.6184 223.419 85.2322 224.468 82.6115C225.516 79.9908 223.07 72.8277 223.07 71.9541C223.056 71.6882 222.966 71.4318 222.812 71.2152C222.657 70.9985 222.443 70.8306 222.196 70.7311C222.196 70.7311 213.81 74.0506 208.045 71.6047C204.193 69.8817 200.558 67.712 197.213 65.1403L194.242 69.5081Z" fill="white" stroke="#263238" stroke-linecap="round" stroke-linejoin="round"/>
<path d="M218.178 73.7012C218.178 73.7012 220.449 67.761 223.769 68.4599C227.088 69.1587 226.739 74.9242 224.992 77.0208C223.245 79.1173 221.847 78.069 221.847 78.069" fill="white"/>
<path d="M218.178 73.7012C218.178 73.7012 220.449 67.761 223.769 68.4599C227.088 69.1587 226.739 74.9242 224.992 77.0208C223.245 79.1173 221.847 78.069 221.847 78.069" stroke="#263238" stroke-linecap="round" stroke-linejoin="round"/>
<path d="M203.879 75.2946C204.103 76.3872 204.22 77.4989 204.229 78.6141C204.229 80.3613 203.355 83.1567 204.928 83.8555C206.5 84.5544 208.771 83.8555 209.296 82.9819" stroke="#263238" stroke-linecap="round" stroke-linejoin="round"/>
<path d="M206.822 86.4762C206.822 86.4762 211.539 87.5244 214.16 82.1084" stroke="#263238" stroke-linecap="round" stroke-linejoin="round"/>
<path d="M208.918 76.4966C209.791 76.8269 210.75 76.8512 211.639 76.5656C212.528 76.28 213.293 75.7013 213.81 74.9242" stroke="#263238" stroke-linecap="round" stroke-linejoin="round"/>
<path d="M199.484 77.7196C199.484 77.7196 201.755 78.7679 203.153 77.1955" stroke="#263238" stroke-linecap="round" stroke-linejoin="round"/>
<path d="M202.978 74.4001C202.978 74.4001 200.707 72.8277 198.785 74.7495" stroke="#263238" stroke-linecap="round" stroke-linejoin="round"/>
<path d="M206.123 72.653C206.123 72.653 207.171 70.9059 210.491 71.2553" stroke="#263238" stroke-linecap="round" stroke-linejoin="round"/>
<path d="M172.949 118.33C172.949 118.33 179.238 119.727 181.335 127.883C183.431 136.038 193.662 168.94 193.662 168.94C193.662 168.94 204.488 175.125 207.751 175.593C211.015 176.062 213.803 176.292 214.041 179.786C214.278 183.281 213.342 188.871 211.476 189.801C209.61 190.73 202.622 190.737 197.499 190.5C192.376 190.262 189.113 189.102 186.317 187.243C183.522 185.384 180.496 166.976 177.232 158.122C173.969 149.268 167.358 130.93 168.057 126.276C168.755 121.621 170.621 118.33 172.949 118.33Z" fill="#49768C" stroke="#263238" stroke-linecap="round" stroke-linejoin="round"/>
<path d="M197.59 194.798L193.096 194.462C191.29 194.325 189.475 194.566 187.767 195.169C186.059 195.772 184.495 196.724 183.175 197.964C181.855 199.205 180.807 200.707 180.099 202.374C179.392 204.042 179.039 205.838 179.063 207.65L179.902 298.409C179.907 299.102 180.187 299.765 180.679 300.253C181.171 300.742 181.836 301.016 182.53 301.016H223.636L234.188 194.448L197.59 194.798Z" fill="#333333" stroke="#263238" stroke-linecap="round" stroke-linejoin="round"/>
<path d="M223.622 301.023C222.929 301.023 222.263 300.749 221.771 300.26C221.279 299.772 221 299.109 220.994 298.416L220.156 207.656C220.131 205.845 220.484 204.049 221.192 202.381C221.9 200.714 222.947 199.212 224.267 197.971C225.587 196.731 227.151 195.779 228.859 195.176C230.567 194.573 232.382 194.332 234.189 194.469L238.682 194.805C240.454 194.939 242.18 195.433 243.755 196.257C245.329 197.081 246.719 198.217 247.839 199.597C248.959 200.977 249.785 202.57 250.268 204.281C250.751 205.991 250.88 207.782 250.646 209.543L238.822 298.716C238.74 299.348 238.431 299.929 237.953 300.349C237.475 300.77 236.859 301.002 236.222 301.002L223.622 301.023Z" fill="#666666" stroke="#263238" stroke-linecap="round" stroke-linejoin="round"/>
<path d="M128.488 215.064H207.458C209.682 215.064 211.815 215.948 213.387 217.521C214.96 219.093 215.844 221.226 215.844 223.45V301.023H128.488V215.064Z" fill="#666666" stroke="#263238" stroke-linecap="round" stroke-linejoin="round"/>
<path d="M216.193 244.744H133.729" stroke="#263238" stroke-linecap="round" stroke-linejoin="round"/>
<path d="M182.418 181.61L186.143 185.573C194.152 185.955 202.038 187.686 209.47 190.695C221.113 195.587 236.027 201.416 236.956 208.167C237.885 214.918 225.544 252.893 223.447 262.216C221.351 271.538 221.113 274.795 221.113 274.795C221.113 274.795 223.21 276.654 222.748 278.289C222.287 279.924 219.715 287.835 219.715 287.835C216.039 288.685 212.299 289.232 208.534 289.471C204.708 289.538 200.885 289.224 197.122 288.534C197.122 288.534 196.423 280.616 197.122 278.75C197.82 276.884 200.385 274.795 200.616 273.397C200.846 271.999 201.783 249.867 201.783 241.25C201.783 232.633 206.675 218.887 206.675 218.887C206.675 218.887 183.613 217.951 176.855 217.252C170.097 216.553 153.793 200.948 153.325 193.26C152.857 185.573 171.236 177.187 182.418 181.61Z" fill="#263238" stroke="#263238" stroke-linecap="round" stroke-linejoin="round"/>
<path d="M219.953 285.04C219.953 285.04 217.856 281.084 215.292 282.943C212.727 284.802 212.266 287.374 210.868 287.374C209.47 287.374 197.122 285.04 197.122 285.04C197.122 285.04 193.858 297.857 195.025 299.255C196.192 300.652 206.905 301.812 211.567 302.511C216.228 303.21 226.473 305.775 233.231 305.775C239.989 305.775 238.822 300.883 237.187 299.255C235.551 297.626 223.908 291.33 222.28 289.233C221.295 287.962 220.511 286.548 219.953 285.04Z" fill="white" stroke="#263238" stroke-linecap="round" stroke-linejoin="round"/>
<path d="M238.389 302.791C235.611 303.378 232.779 303.675 229.94 303.678C223.881 303.678 218.989 301.351 211.301 299.953C205.256 298.849 197.765 297.032 194.85 296.305C194.69 297.766 194.697 298.891 194.997 299.255C196.164 300.652 206.878 301.812 211.539 302.511C216.2 303.21 226.445 305.775 233.203 305.775C236.837 305.775 238.179 304.356 238.389 302.791Z" fill="white" stroke="#263238" stroke-linecap="round" stroke-linejoin="round"/>
<path d="M134.428 116.387C134.428 116.387 120.451 121.747 115.328 125.241C110.206 128.736 113.463 142.014 113.463 149.463C113.463 156.913 112.065 176.956 111.834 180.912C111.604 184.867 116.726 190.234 120.22 192.331C123.715 194.427 153.534 195.587 161.452 195.587C169.37 195.587 186.38 190.465 184.983 175.321C183.585 160.177 178.693 148.534 177.994 145.969C177.295 143.404 177.058 135.025 177.295 132.691C177.533 130.357 179.392 123.375 175.898 120.112C172.403 116.848 157.728 113.123 150.97 113.361C144.212 113.598 134.428 116.387 134.428 116.387Z" fill="#49768C" stroke="#263238" stroke-linecap="round" stroke-linejoin="round"/>
<path d="M136.259 131.741C136.599 132.695 137.092 133.587 137.719 134.382C139.682 136.829 141.782 139.162 144.009 141.371C149.09 146.458 157.085 149.848 157.085 149.848C157.085 149.848 159.747 135.808 160.229 129.511C160.712 123.215 157.322 118.134 151.752 116.233C146.183 114.332 136.021 116.471 134.568 120.349C133.505 123.236 135.308 129.064 136.259 131.741Z" fill="white" stroke="#263238" stroke-linecap="round" stroke-linejoin="round"/>
<path d="M137.021 112.075C136.535 112.097 136.059 112.221 135.623 112.438C134.576 112.969 133.767 113.875 133.359 114.975C132.143 117.882 131.178 121.034 131.178 121.034C131.876 124.653 132.848 128.213 134.086 131.685C135.303 134.982 136.208 138.386 136.79 141.853C136.79 141.853 145.505 135.312 147.196 133.865C148.791 132.66 150.494 131.605 152.284 130.713C152.284 130.713 158.091 133.62 160.754 135.312C163.416 137.003 165.597 138.463 165.597 138.463C165.293 133.67 164.315 128.943 162.689 124.424C160.027 117.156 158.818 114.975 157.364 113.529C155.911 112.082 144.771 107.959 137.021 112.075Z" fill="white" stroke="#263238" stroke-linecap="round" stroke-linejoin="round"/>
<path d="M157.057 77.3911C157.057 77.3911 158.776 75.1898 159.768 76.9299C160.318 77.9148 160.984 78.8299 161.753 79.6554C161.753 79.6554 163.731 80.6478 163.982 82.3809C164.153 83.4462 164.235 84.5238 164.227 85.6026C164.227 86.3434 166.456 86.8396 166.456 88.0835C166.456 89.3275 165.219 89.8167 164.975 91.0536C164.73 92.2906 165.792 93.3878 164.723 95.0161C163.654 96.6444 164.821 96.0504 163.654 96.6514C162.487 97.2524 161.257 97.9932 161.257 97.9932L155.554 79.1243L157.057 77.3911Z" fill="#C7C7C7" stroke="#7D7D7D" stroke-linecap="round" stroke-linejoin="round"/>
<path d="M138.327 68.8512C138.327 68.8512 131.73 70.7801 128.977 76.28C126.223 81.7799 125.951 85.9101 127.328 90.5854C128.704 95.2607 133.925 108.462 135.581 112.313C137.237 116.163 137.782 123.319 141.081 127.687C144.379 132.055 152.36 135.941 152.36 135.941C152.36 135.941 158.405 127.687 159.51 123.564C160.614 119.441 158.405 111.187 158.405 111.187C158.405 111.187 164.457 103.759 163.633 96.6095C162.808 89.4603 158.405 80.1307 157.057 77.3912C155.708 74.6517 150.704 66.1048 138.327 68.8512Z" fill="white" stroke="#263238" stroke-linecap="round" stroke-linejoin="round"/>
<path d="M143.08 79.8721C143.08 79.8721 147.923 77.454 151.067 78.1809" stroke="#263238" stroke-linecap="round" stroke-linejoin="round"/>
<path d="M141.137 78.9077C141.137 78.9077 145.498 76.7273 148.643 76.7273" stroke="#263238" stroke-linecap="round" stroke-linejoin="round"/>
<path d="M158.405 111.215C158.405 111.215 154.694 113.529 151.305 113.529C147.916 113.529 141.619 110.866 139.683 108.923C139.683 108.923 145.421 115.492 151.515 117.135C157.609 118.777 159.251 116.198 159.251 116.198L158.405 111.215Z" fill="#263238" stroke="#263238" stroke-linecap="round" stroke-linejoin="round"/>
<path d="M128.767 96.9589C128.954 96.8488 129.133 96.7275 129.305 96.5955C130.151 95.9735 131.674 94.6178 131.493 92.9965C131.248 90.7671 131.493 89.5022 130.256 87.79C129.019 86.0779 127.034 82.339 127.034 82.339C125.567 82.2199 124.099 82.5672 122.841 83.3314C121.108 84.5683 121.597 85.5607 121.108 87.2939C120.619 89.027 119.368 87.79 118.627 90.2709C117.886 92.7519 118.871 94.2334 119.864 94.7296C120.856 95.2258 120.115 96.7143 120.115 98.9227C120.153 99.723 120.472 100.485 121.015 101.074C121.558 101.663 122.291 102.042 123.086 102.144C123.833 102.144 124.078 103.137 125.07 104.129C126.063 105.121 129.263 104.01 129.263 104.01C129.263 104.01 130.766 103.137 131.01 102.144C131.255 101.152 128.767 96.9589 128.767 96.9589Z" fill="#C7C7C7" stroke="#7D7D7D" stroke-linecap="round" stroke-linejoin="round"/>
<path d="M130.906 96.6374C130.906 96.6374 127.6 92.2347 125.399 94.7086C123.197 97.1825 127.048 103.235 129.249 104.059C131.451 104.884 134.204 102.661 134.204 102.661" fill="white"/>
<path d="M130.906 96.6374C130.906 96.6374 127.6 92.2347 125.399 94.7086C123.197 97.1825 127.048 103.235 129.249 104.059C131.451 104.884 134.204 102.661 134.204 102.661" stroke="#263238" stroke-linecap="round" stroke-linejoin="round"/>
<path d="M150.984 83.4292C150.984 83.4292 150.704 85.9101 151.256 86.7347C151.808 87.5594 155.107 88.9361 154.555 91.41C154.003 93.884 150.704 96.0853 149.055 93.884" stroke="#263238" stroke-linecap="round" stroke-linejoin="round"/>
<path d="M146.853 98.2867C148.456 98.7202 150.151 98.6636 151.72 98.1243C153.29 97.5849 154.662 96.5874 155.659 95.2607" stroke="#263238" stroke-linecap="round" stroke-linejoin="round"/>
<path d="M138.607 86.9095C138.529 86.9081 138.451 86.8963 138.376 86.8745C138.283 86.848 138.196 86.8023 138.122 86.7404C138.047 86.6785 137.986 86.6017 137.943 86.5149C137.899 86.4281 137.874 86.3332 137.87 86.2363C137.865 86.1394 137.88 86.0426 137.915 85.952C139.145 82.2621 143.82 81.6332 144.016 81.6122C144.207 81.5881 144.4 81.6408 144.552 81.7588C144.704 81.8767 144.803 82.0503 144.827 82.2412C144.851 82.4321 144.798 82.6247 144.68 82.7767C144.562 82.9288 144.389 83.0277 144.198 83.0518C144.156 83.0518 140.235 83.5899 139.306 86.4133C139.261 86.5618 139.168 86.6912 139.041 86.7811C138.915 86.8709 138.762 86.9161 138.607 86.9095Z" fill="#C7C7C7" stroke="#7D7D7D" stroke-linecap="round" stroke-linejoin="round"/>
<path d="M156.484 82.332C156.389 82.3335 156.295 82.3157 156.207 82.2797C156.119 82.2436 156.04 82.1901 155.973 82.1224C155.439 81.6021 154.759 81.2567 154.024 81.1318C153.289 81.007 152.533 81.1088 151.857 81.4235C151.685 81.5097 151.485 81.5239 151.303 81.4629C151.12 81.402 150.969 81.2709 150.882 81.0985C150.796 80.9262 150.782 80.7266 150.843 80.5438C150.904 80.361 151.035 80.2098 151.207 80.1237C152.154 79.6695 153.217 79.5184 154.253 79.691C155.289 79.8636 156.246 80.3515 156.994 81.0881C157.065 81.1535 157.121 81.2329 157.16 81.3213C157.199 81.4097 157.219 81.5052 157.219 81.6017C157.219 81.6982 157.199 81.7937 157.16 81.8821C157.121 81.9705 157.065 82.0499 156.994 82.1154C156.928 82.1844 156.849 82.2392 156.761 82.2764C156.673 82.3137 156.579 82.3326 156.484 82.332Z" fill="#C7C7C7" stroke="#7D7D7D" stroke-linecap="round" stroke-linejoin="round"/>
<path d="M146.308 90.0333C146.145 91.0481 145.766 92.016 145.196 92.871C144.625 93.726 143.877 94.4481 143.003 94.9881" stroke="#263238" stroke-linecap="round" stroke-linejoin="round"/>
<path d="M154.834 88.6566C156.304 89.6892 158.001 90.351 159.782 90.5854" stroke="#263238" stroke-linecap="round" stroke-linejoin="round"/>
<path d="M144.477 89.1388C144.722 90.0123 144.519 90.83 144.023 90.9698C143.527 91.1095 142.94 90.5085 142.695 89.635C142.451 88.7614 142.653 87.9368 143.15 87.804C143.646 87.6712 144.24 88.2652 144.477 89.1388Z" fill="#263238"/>
<path d="M155.442 86.0289C155.68 86.9025 155.477 87.7201 154.988 87.8599C154.499 87.9997 153.898 87.3986 153.66 86.5181C153.423 85.6375 153.618 84.8269 154.108 84.6871C154.597 84.5473 155.198 85.1484 155.442 86.0289Z" fill="#263238"/>
<path d="M144.596 87.0702L141.074 89.4184" stroke="#263238" stroke-linecap="round" stroke-linejoin="round"/>
<path d="M152.975 85.0645L156.833 84.8968" stroke="#263238" stroke-linecap="round" stroke-linejoin="round"/>
<path d="M227.389 183.91C227.389 183.91 232.56 186.23 233.511 186.901C234.461 187.572 237.075 191.653 237.291 192.925C237.508 194.197 237.249 194.721 236.453 194.26C235.656 193.798 233.399 191.094 231.652 189.249C229.905 187.404 227.675 186.244 227.13 185.147C226.585 184.049 226.522 183.7 227.389 183.91Z" fill="white" stroke="#263238" stroke-linecap="round" stroke-linejoin="round"/>
<path d="M211.895 178.375C211.895 178.375 220.414 181.17 223.405 182.058C225.643 182.751 227.702 183.927 229.436 185.503C230.289 186.307 234.992 191.639 235.502 193.19C236.013 194.742 236.718 198.893 235.845 199.277C234.971 199.662 234.077 198.641 233.685 197.761C233.238 196.934 232.709 196.154 232.106 195.434C232.106 195.434 233.161 198.795 232.98 200.486C232.798 202.178 232.281 203.205 230.883 203.442C229.485 203.68 227.92 201.346 226.837 199.179C226.178 197.868 225.33 196.66 224.321 195.594L220.98 194.043C221.554 195.724 222.309 197.339 223.231 198.858C224.509 200.766 226.026 201.213 225.474 202.254C224.922 203.296 222.378 203.498 221.183 202.052C219.988 200.605 218.066 199.04 216.99 197.097C215.914 195.154 213.419 189.906 213.419 189.906L206.598 188.718C206.598 188.718 202.608 187.516 202.349 183.309C202.09 179.102 210.05 177.278 211.895 178.375Z" fill="white" stroke="#263238" stroke-linecap="round" stroke-linejoin="round"/>
<path d="M225.837 192.037C225.837 192.037 228.891 196 229.898 197.719C230.904 199.438 230.89 203.456 230.89 203.456" stroke="#263238" stroke-linecap="round" stroke-linejoin="round"/>
<path d="M232.106 195.448L229.387 189.298" stroke="#263238" stroke-linecap="round" stroke-linejoin="round"/>
<path d="M143.08 192.792C143.08 192.792 158.685 190.933 166.603 193.728C174.521 196.524 182.215 206.308 182.215 214.456C182.215 222.605 180.58 267.338 181.048 268.505C181.516 269.672 184.074 269.903 184.074 272.23C184.074 274.557 182.215 286.675 182.215 286.675C182.215 286.675 171.264 290.631 167.539 290.631H163.808C163.808 290.631 158.454 276.423 158.685 274.096C158.916 271.769 160.313 269.903 160.313 268.736C160.313 267.569 153.562 243.109 153.562 235.89V219.816L140.515 217.021C140.515 217.021 134.694 200.479 143.08 192.792Z" fill="#263238" stroke="#263238" stroke-linecap="round" stroke-linejoin="round"/>
<path d="M191.733 297.158C191.733 297.158 184.745 289.002 181.95 284.579C179.154 280.155 174.032 277.59 171.006 279.917C167.98 282.245 167.973 288.073 167.973 288.073L162.85 287.137C162.85 287.137 164.716 293.426 165.645 296.92C166.575 300.415 167.973 302.749 174.032 303.678C180.091 304.608 190.105 305.307 192.901 302.511C195.696 299.716 191.733 297.158 191.733 297.158Z" fill="white" stroke="#263238" stroke-linecap="round" stroke-linejoin="round"/>
<path d="M192.901 302.511C193.35 302.145 193.668 301.644 193.808 301.082C193.948 300.52 193.902 299.928 193.676 299.394C192.374 300.133 191.024 300.787 189.637 301.351C184.514 303.448 177.526 302.979 171.705 301.113C169.552 300.496 167.574 299.386 165.925 297.871C166.882 300.841 168.546 302.833 174.032 303.678C180.119 304.608 190.105 305.307 192.901 302.511Z" fill="white" stroke="#263238" stroke-linecap="round" stroke-linejoin="round"/>
<path d="M200.888 179.73C200.888 179.73 200.427 185.258 200.273 186.943C200.12 188.627 201.042 190.633 201.671 190.933C202.3 191.234 202.594 190.633 202.594 189.249V186.943C202.573 186.481 200.888 179.73 200.888 179.73Z" fill="white" stroke="#263238" stroke-linecap="round" stroke-linejoin="round"/>
<path d="M210.071 168.388C210.071 165.984 213.272 160.917 213.272 160.917L214.509 143.935L213.67 140.644L209.939 140.378C208.464 145.326 203.285 162.742 202.601 165.453C201.805 169.138 201.27 172.874 201 176.635C201 177.962 201 184.098 201.538 186.502C202.076 188.906 205.801 191.296 205.801 191.296C205.801 191.296 210.833 191.296 211.63 190.765C212.426 190.234 210.407 188.459 210.407 188.459C210.106 188.459 209.219 181.876 211.106 179.835C212.629 178.207 216.976 180.101 216.976 180.101C216.976 180.101 215.907 177.166 214.572 174.51C213.237 171.854 210.071 170.785 210.071 168.388Z" fill="white" stroke="#263238" stroke-linecap="round" stroke-linejoin="round"/>
<path d="M210.868 191.241C210.868 191.241 206.877 189.095 206.416 188.173C205.955 187.25 205.808 180.192 205.808 180.192" stroke="#263238" stroke-linecap="round" stroke-linejoin="round"/>
<path d="M206.717 191.241C206.717 191.241 203.495 187.865 203.495 186.635C203.495 185.405 202.726 180.192 202.726 180.192" stroke="#263238" stroke-linecap="round" stroke-linejoin="round"/>
<path d="M130.389 194.798L103.755 194.483C103.069 194.427 102.38 194.427 101.694 194.483L97.1933 194.819C95.4215 194.952 93.6957 195.447 92.1216 196.271C90.5475 197.095 89.1581 198.232 88.0387 199.611C86.9193 200.991 86.0933 202.585 85.6114 204.295C85.1294 206.005 85.0017 207.796 85.236 209.557L97.1164 298.751C97.1995 299.384 97.5098 299.964 97.9895 300.385C98.4691 300.805 99.0853 301.037 99.7231 301.037H132.918L130.389 194.798Z" fill="#333333" stroke="#263238" stroke-linecap="round" stroke-linejoin="round"/>
<path d="M145.456 301.023C146.148 301.021 146.813 300.746 147.304 300.258C147.796 299.771 148.076 299.109 148.083 298.416L148.922 207.656C148.946 205.845 148.592 204.049 147.884 202.382C147.176 200.715 146.128 199.214 144.808 197.974C143.489 196.734 141.925 195.781 140.217 195.178C138.51 194.575 136.695 194.333 134.889 194.469L130.389 194.805C128.617 194.938 126.891 195.433 125.317 196.257C123.743 197.081 122.353 198.218 121.234 199.597C120.115 200.977 119.289 202.571 118.807 204.281C118.325 205.991 118.197 207.782 118.431 209.543L130.312 298.737C130.395 299.37 130.705 299.95 131.185 300.371C131.664 300.791 132.281 301.023 132.918 301.023H145.456Z" fill="#666666" stroke="#263238" stroke-linecap="round" stroke-linejoin="round"/>
<path d="M121.849 122.677C121.849 122.677 112.065 122.907 108.34 128.498C104.615 134.089 101.582 153.195 100.883 158.087C100.184 162.979 97.1583 180.213 98.3254 183.476C99.4925 186.74 102.518 187.201 108.109 187.439C113.7 187.676 116.258 184.643 117.425 181.149C118.592 177.655 121.618 145.04 121.618 145.04" fill="#49768C"/>
<path d="M121.849 122.677C121.849 122.677 112.065 122.907 108.34 128.498C104.615 134.089 101.582 153.195 100.883 158.087C100.184 162.979 97.1583 180.213 98.3254 183.476C99.4925 186.74 102.518 187.201 108.109 187.439C113.7 187.676 116.258 184.643 117.425 181.149C118.592 177.655 121.618 145.04 121.618 145.04" stroke="#263238" stroke-linecap="round" stroke-linejoin="round"/>
<path d="M108.571 171.827C109.968 172.295 122.547 175.321 123.484 177.886C123.78 178.54 123.872 179.268 123.747 179.975C123.622 180.682 123.287 181.335 122.785 181.848C122.785 181.848 118.592 191.862 114.86 192.792C111.128 193.721 102.749 191.164 98.556 189.298C94.3629 187.432 98.556 173.224 99.0242 172.525" fill="#49768C"/>
<path d="M108.571 171.827C109.968 172.295 122.547 175.321 123.484 177.886C123.78 178.54 123.872 179.268 123.747 179.975C123.622 180.682 123.287 181.335 122.785 181.848C122.785 181.848 118.592 191.862 114.86 192.792C111.128 193.721 102.749 191.164 98.556 189.298C94.3629 187.432 98.556 173.224 99.0242 172.525" stroke="#263238" stroke-linecap="round" stroke-linejoin="round"/>
<path d="M125.608 184.643C125.608 184.643 126.538 183.246 125.371 182.547C124.204 181.848 122.345 179.751 120.248 179.751C118.152 179.751 114.427 181.61 113.49 185.573C112.554 189.535 113.26 192.331 114.888 192.792C116.516 193.253 120.018 194.19 121.646 194.19C123.274 194.19 124.441 190.695 124.672 189.997C124.903 189.298 125.608 184.643 125.608 184.643Z" fill="#49768C" stroke="#263238" stroke-linecap="round" stroke-linejoin="round"/>
<path d="M140.718 186.041C140.718 186.041 144.68 190.933 146.546 191.863C148.412 192.792 150.04 193.959 148.642 195.357C147.245 196.754 143.981 196.056 142.583 194.19C141.186 192.324 140.718 186.041 140.718 186.041Z" fill="white" stroke="#263238" stroke-linecap="round" stroke-linejoin="round"/>
<path d="M127.209 184.643C127.209 184.643 138.16 183.008 139.788 183.008C141.416 183.008 143.981 194.658 144.212 196.524C144.442 198.39 145.379 199.55 144.212 200.479C143.704 200.976 143.055 201.304 142.353 201.416C141.712 201.963 141.008 202.432 140.256 202.813C139.557 203.044 136.993 202.576 136.993 202.576C136.993 202.576 136.762 203.512 134.896 203.275C133.03 203.037 126.741 195.126 126.741 195.126C126.741 195.126 122.086 193.959 120.22 192.331C118.354 190.702 119.053 187.9 120.22 186.041C121.387 184.182 123.945 183.707 123.945 183.707L127.209 184.643Z" fill="white" stroke="#263238" stroke-linecap="round" stroke-linejoin="round"/>
<path d="M137.461 188.368L143.282 200.948" stroke="#263238" stroke-linecap="round" stroke-linejoin="round"/>
<path d="M133.03 190.465L140.256 202.813" stroke="#263238" stroke-linecap="round" stroke-linejoin="round"/>
<path d="M136.993 202.576L130.235 192.792" stroke="#263238" stroke-linecap="round" stroke-linejoin="round"/>
</svg>
