<svg width="357" height="266" viewBox="0 0 357 266" fill="none" xmlns="http://www.w3.org/2000/svg">
<path d="M356.399 233.37H0V233.548H356.399V233.37Z" fill="#EBEBEB"/>
<path d="M320.688 244.839H297.08V245.017H320.688V244.839Z" fill="#EBEBEB"/>
<path d="M236.093 246.778H229.899V246.956H236.093V246.778Z" fill="#EBEBEB"/>
<path d="M296.367 238.224H282.689V238.402H296.367V238.224Z" fill="#EBEBEB"/>
<path d="M68.1791 239.422H37.3933V239.6H68.1791V239.422Z" fill="#EBEBEB"/>
<path d="M79.0422 239.422H74.5302V239.6H79.0422V239.422Z" fill="#EBEBEB"/>
<path d="M160.486 242.43H93.7115V242.608H160.486V242.43Z" fill="#EBEBEB"/>
<path d="M168.933 201.579H31.2989C30.2207 201.577 29.1873 201.148 28.4255 200.385C27.6638 199.622 27.236 198.587 27.236 197.509V4.03444C27.2453 2.96241 27.6773 1.93737 28.4381 1.18197C29.1988 0.42658 30.2268 0.00183644 31.2989 0H168.933C170.013 0 171.048 0.428811 171.811 1.1921C172.574 1.95539 173.003 2.99062 173.003 4.07008V197.509C173.003 198.589 172.574 199.624 171.811 200.387C171.048 201.15 170.013 201.579 168.933 201.579ZM31.2989 0.14256C30.268 0.144448 29.2799 0.555316 28.5515 1.28498C27.8232 2.01464 27.4142 3.00348 27.4142 4.03444V197.509C27.4142 198.54 27.8232 199.529 28.5515 200.259C29.2799 200.988 30.268 201.399 31.2989 201.401H168.933C169.965 201.399 170.954 200.989 171.683 200.259C172.412 199.53 172.823 198.541 172.825 197.509V4.03444C172.823 3.00283 172.412 2.01401 171.683 1.28454C170.954 0.555084 169.965 0.144444 168.933 0.14256H31.2989Z" fill="#EBEBEB"/>
<path d="M323.118 201.579H185.477C184.398 201.577 183.364 201.148 182.601 200.385C181.838 199.622 181.409 198.588 181.407 197.509V4.03444C181.418 2.96176 181.852 1.93673 182.614 1.18153C183.376 0.426331 184.404 0.00181642 185.477 0H323.118C324.189 0.00370975 325.216 0.429282 325.975 1.18448C326.734 1.93967 327.165 2.96364 327.174 4.03444V197.509C327.174 198.586 326.747 199.619 325.987 200.382C325.227 201.145 324.195 201.575 323.118 201.579ZM185.477 0.14256C184.446 0.144444 183.457 0.555084 182.727 1.28454C181.998 2.01401 181.587 3.00283 181.585 4.03444V197.509C181.587 198.541 181.998 199.53 182.727 200.259C183.457 200.989 184.446 201.399 185.477 201.401H323.118C324.15 201.399 325.139 200.989 325.868 200.259C326.598 199.53 327.008 198.541 327.01 197.509V4.03444C327.008 3.00283 326.598 2.01401 325.868 1.28454C325.139 0.555084 324.15 0.144444 323.118 0.14256H185.477Z" fill="#EBEBEB"/>
<path d="M308.884 225.515V192.142H306.033V176.239H301.863V120.955H295.825V113.82L282.952 107.811V100.619H281.17V120.955H278.676V176.239H276.174V147.171H269.402V132.188H267.506V176.239H262.36V159.474H258.974V155.197H251.126V140.571H246.828V130.228H241.546V115.152H239.657V130.228H234.375V140.571H230.077V155.197H222.229V159.474H218.843V176.239H214.823V155.197H206.975V109.892H204.48V104.902H187.715V109.892H184.144V142.709H169.881V145.924H164.528V148.419H169.881V161.263H154.898V118.453H151.691V109.357H144.734V77.0748H142.766V109.357H137.777V118.453H108.502V115.459H106.713V135.795H104.218V136.152H102.721V156.481H100.219V162.012H94.9447V147.029H93.0558V182.697H90.9459V167.721H89.057V191.08H87.9094V174.315H84.5165V170.038H76.6686V155.411H72.3704V145.069H67.0886V130H65.2068V145.069H59.9178V155.411H55.6268V170.038H47.7789V174.315H44.386V190.723H43.7801V191.08H42.0979V225.515H308.884Z" fill="#E6E6E6"/>
<path d="M126.857 120.456H124.832V122.48H126.857V120.456Z" fill="#F0F0F0"/>
<path d="M126.857 123.841H124.832V125.866H126.857V123.841Z" fill="#F0F0F0"/>
<path d="M126.857 137.399H124.832V139.423H126.857V137.399Z" fill="#F0F0F0"/>
<path d="M126.857 140.785H124.832V142.809H126.857V140.785Z" fill="#F0F0F0"/>
<path d="M126.857 144.178H124.832V146.202H126.857V144.178Z" fill="#F0F0F0"/>
<path d="M126.857 154.342H124.832V156.367H126.857V154.342Z" fill="#F0F0F0"/>
<path d="M126.857 157.728H124.832V159.752H126.857V157.728Z" fill="#F0F0F0"/>
<path d="M130.071 134.013H128.047V136.038H130.071V134.013Z" fill="#F0F0F0"/>
<path d="M130.071 137.399H128.047V139.423H130.071V137.399Z" fill="#F0F0F0"/>
<path d="M130.071 140.785H128.047V142.809H130.071V140.785Z" fill="#F0F0F0"/>
<path d="M130.071 144.178H128.047V146.202H130.071V144.178Z" fill="#F0F0F0"/>
<path d="M130.071 147.563H128.047V149.588H130.071V147.563Z" fill="#F0F0F0"/>
<path d="M130.071 154.342H128.047V156.367H130.071V154.342Z" fill="#F0F0F0"/>
<path d="M130.071 157.728H128.047V159.752H130.071V157.728Z" fill="#F0F0F0"/>
<path d="M133.279 120.456H131.255V122.48H133.279V120.456Z" fill="#F0F0F0"/>
<path d="M133.279 123.841H131.255V125.866H133.279V123.841Z" fill="#F0F0F0"/>
<path d="M133.279 127.234H131.255V129.259H133.279V127.234Z" fill="#F0F0F0"/>
<path d="M133.279 130.62H131.255V132.645H133.279V130.62Z" fill="#F0F0F0"/>
<path d="M133.279 134.013H131.255V136.038H133.279V134.013Z" fill="#F0F0F0"/>
<path d="M133.279 137.399H131.255V139.423H133.279V137.399Z" fill="#F0F0F0"/>
<path d="M133.279 140.785H131.255V142.809H133.279V140.785Z" fill="#F0F0F0"/>
<path d="M133.279 144.178H131.255V146.202H133.279V144.178Z" fill="#F0F0F0"/>
<path d="M133.279 147.563H131.255V149.588H133.279V147.563Z" fill="#F0F0F0"/>
<path d="M133.279 150.956H131.255V152.981H133.279V150.956Z" fill="#F0F0F0"/>
<path d="M133.279 157.728H131.255V159.752H133.279V157.728Z" fill="#F0F0F0"/>
<path d="M136.487 120.456H134.462V122.48H136.487V120.456Z" fill="#F0F0F0"/>
<path d="M136.487 123.841H134.462V125.866H136.487V123.841Z" fill="#F0F0F0"/>
<path d="M136.487 127.234H134.462V129.259H136.487V127.234Z" fill="#F0F0F0"/>
<path d="M136.487 130.62H134.462V132.645H136.487V130.62Z" fill="#F0F0F0"/>
<path d="M136.487 134.013H134.462V136.038H136.487V134.013Z" fill="#F0F0F0"/>
<path d="M136.487 137.399H134.462V139.423H136.487V137.399Z" fill="#F0F0F0"/>
<path d="M136.487 140.785H134.462V142.809H136.487V140.785Z" fill="#F0F0F0"/>
<path d="M136.487 171.285H134.462V173.31H136.487V171.285Z" fill="#F0F0F0"/>
<path d="M139.701 120.456H137.677V122.48H139.701V120.456Z" fill="#F0F0F0"/>
<path d="M139.701 123.841H137.677V125.866H139.701V123.841Z" fill="#F0F0F0"/>
<path d="M139.701 127.234H137.677V129.259H139.701V127.234Z" fill="#F0F0F0"/>
<path d="M139.701 130.62H137.677V132.645H139.701V130.62Z" fill="#F0F0F0"/>
<path d="M139.701 134.013H137.677V136.038H139.701V134.013Z" fill="#F0F0F0"/>
<path d="M139.701 137.399H137.677V139.423H139.701V137.399Z" fill="#F0F0F0"/>
<path d="M139.701 140.785H137.677V142.809H139.701V140.785Z" fill="#F0F0F0"/>
<path d="M139.701 144.178H137.677V146.202H139.701V144.178Z" fill="#F0F0F0"/>
<path d="M139.701 164.507H137.677V166.531H139.701V164.507Z" fill="#F0F0F0"/>
<path d="M139.701 167.9H137.677V169.924H139.701V167.9Z" fill="#F0F0F0"/>
<path d="M139.701 171.285H137.677V173.31H139.701V171.285Z" fill="#F0F0F0"/>
<path d="M139.701 174.671H137.677V176.696H139.701V174.671Z" fill="#F0F0F0"/>
<path d="M139.701 188.229H137.677V190.253H139.701V188.229Z" fill="#F0F0F0"/>
<path d="M142.909 120.456H140.885V122.48H142.909V120.456Z" fill="#F0F0F0"/>
<path d="M142.909 123.841H140.885V125.866H142.909V123.841Z" fill="#F0F0F0"/>
<path d="M142.909 127.234H140.885V129.259H142.909V127.234Z" fill="#F0F0F0"/>
<path d="M142.909 130.62H140.885V132.645H142.909V130.62Z" fill="#F0F0F0"/>
<path d="M142.909 134.013H140.885V136.038H142.909V134.013Z" fill="#F0F0F0"/>
<path d="M142.909 137.399H140.885V139.423H142.909V137.399Z" fill="#F0F0F0"/>
<path d="M142.909 140.785H140.885V142.809H142.909V140.785Z" fill="#F0F0F0"/>
<path d="M142.909 144.178H140.885V146.202H142.909V144.178Z" fill="#F0F0F0"/>
<path d="M142.909 147.563H140.885V149.588H142.909V147.563Z" fill="#F0F0F0"/>
<path d="M142.909 150.956H140.885V152.981H142.909V150.956Z" fill="#F0F0F0"/>
<path d="M142.909 161.121H140.885V163.145H142.909V161.121Z" fill="#F0F0F0"/>
<path d="M142.909 164.507H140.885V166.531H142.909V164.507Z" fill="#F0F0F0"/>
<path d="M142.909 167.9H140.885V169.924H142.909V167.9Z" fill="#F0F0F0"/>
<path d="M142.909 171.285H140.885V173.31H142.909V171.285Z" fill="#F0F0F0"/>
<path d="M142.909 174.671H140.885V176.696H142.909V174.671Z" fill="#F0F0F0"/>
<path d="M142.909 188.229H140.885V190.253H142.909V188.229Z" fill="#F0F0F0"/>
<path d="M146.124 120.456H144.099V122.48H146.124V120.456Z" fill="#F0F0F0"/>
<path d="M146.124 123.841H144.099V125.866H146.124V123.841Z" fill="#F0F0F0"/>
<path d="M146.124 127.234H144.099V129.259H146.124V127.234Z" fill="#F0F0F0"/>
<path d="M146.124 130.62H144.099V132.645H146.124V130.62Z" fill="#F0F0F0"/>
<path d="M146.124 134.013H144.099V136.038H146.124V134.013Z" fill="#F0F0F0"/>
<path d="M146.124 137.399H144.099V139.423H146.124V137.399Z" fill="#F0F0F0"/>
<path d="M146.124 140.785H144.099V142.809H146.124V140.785Z" fill="#F0F0F0"/>
<path d="M146.124 144.178H144.099V146.202H146.124V144.178Z" fill="#F0F0F0"/>
<path d="M146.124 147.563H144.099V149.588H146.124V147.563Z" fill="#F0F0F0"/>
<path d="M146.124 150.956H144.099V152.981H146.124V150.956Z" fill="#F0F0F0"/>
<path d="M146.124 154.342H144.099V156.367H146.124V154.342Z" fill="#F0F0F0"/>
<path d="M146.124 157.728H144.099V159.752H146.124V157.728Z" fill="#F0F0F0"/>
<path d="M146.124 161.121H144.099V163.145H146.124V161.121Z" fill="#F0F0F0"/>
<path d="M146.124 164.507H144.099V166.531H146.124V164.507Z" fill="#F0F0F0"/>
<path d="M146.124 167.9H144.099V169.924H146.124V167.9Z" fill="#F0F0F0"/>
<path d="M146.124 171.285H144.099V173.31H146.124V171.285Z" fill="#F0F0F0"/>
<path d="M146.124 174.671H144.099V176.696H146.124V174.671Z" fill="#F0F0F0"/>
<path d="M146.124 178.064H144.099V180.088H146.124V178.064Z" fill="#F0F0F0"/>
<path d="M149.331 120.456H147.307V122.48H149.331V120.456Z" fill="#F0F0F0"/>
<path d="M149.331 123.841H147.307V125.866H149.331V123.841Z" fill="#F0F0F0"/>
<path d="M149.331 127.234H147.307V129.259H149.331V127.234Z" fill="#F0F0F0"/>
<path d="M149.331 130.62H147.307V132.645H149.331V130.62Z" fill="#F0F0F0"/>
<path d="M149.331 134.013H147.307V136.038H149.331V134.013Z" fill="#F0F0F0"/>
<path d="M149.331 137.399H147.307V139.423H149.331V137.399Z" fill="#F0F0F0"/>
<path d="M149.331 140.785H147.307V142.809H149.331V140.785Z" fill="#F0F0F0"/>
<path d="M149.331 144.178H147.307V146.202H149.331V144.178Z" fill="#F0F0F0"/>
<path d="M149.331 147.563H147.307V149.588H149.331V147.563Z" fill="#F0F0F0"/>
<path d="M149.331 150.956H147.307V152.981H149.331V150.956Z" fill="#F0F0F0"/>
<path d="M149.331 161.121H147.307V163.145H149.331V161.121Z" fill="#F0F0F0"/>
<path d="M149.331 164.507H147.307V166.531H149.331V164.507Z" fill="#F0F0F0"/>
<path d="M149.331 167.9H147.307V169.924H149.331V167.9Z" fill="#F0F0F0"/>
<path d="M149.331 171.285H147.307V173.31H149.331V171.285Z" fill="#F0F0F0"/>
<path d="M152.539 120.456H150.514V122.48H152.539V120.456Z" fill="#F0F0F0"/>
<path d="M152.539 123.841H150.514V125.866H152.539V123.841Z" fill="#F0F0F0"/>
<path d="M152.539 127.234H150.514V129.259H152.539V127.234Z" fill="#F0F0F0"/>
<path d="M152.539 130.62H150.514V132.645H152.539V130.62Z" fill="#F0F0F0"/>
<path d="M152.539 134.013H150.514V136.038H152.539V134.013Z" fill="#F0F0F0"/>
<path d="M152.539 137.399H150.514V139.423H152.539V137.399Z" fill="#F0F0F0"/>
<path d="M152.539 140.785H150.514V142.809H152.539V140.785Z" fill="#F0F0F0"/>
<path d="M152.539 144.178H150.514V146.202H152.539V144.178Z" fill="#F0F0F0"/>
<path d="M152.539 147.563H150.514V149.588H152.539V147.563Z" fill="#F0F0F0"/>
<path d="M152.539 150.956H150.514V152.981H152.539V150.956Z" fill="#F0F0F0"/>
<path d="M152.539 161.121H150.514V163.145H152.539V161.121Z" fill="#F0F0F0"/>
<path d="M152.539 164.507H150.514V166.531H152.539V164.507Z" fill="#F0F0F0"/>
<path d="M152.539 167.9H150.514V169.924H152.539V167.9Z" fill="#F0F0F0"/>
<path d="M188.685 111.66H186.66V113.684H188.685V111.66Z" fill="#F0F0F0"/>
<path d="M188.685 115.046H186.66V117.07H188.685V115.046Z" fill="#F0F0F0"/>
<path d="M188.685 118.431H186.66V120.456H188.685V118.431Z" fill="#F0F0F0"/>
<path d="M188.685 121.824H186.66V123.849H188.685V121.824Z" fill="#F0F0F0"/>
<path d="M188.685 125.21H186.66V127.234H188.685V125.21Z" fill="#F0F0F0"/>
<path d="M188.685 128.603H186.66V130.627H188.685V128.603Z" fill="#F0F0F0"/>
<path d="M188.685 131.989H186.66V134.013H188.685V131.989Z" fill="#F0F0F0"/>
<path d="M188.685 135.375H186.66V137.399H188.685V135.375Z" fill="#F0F0F0"/>
<path d="M188.685 145.546H186.66V147.571H188.685V145.546Z" fill="#F0F0F0"/>
<path d="M188.685 148.932H186.66V150.956H188.685V148.932Z" fill="#F0F0F0"/>
<path d="M191.899 111.66H189.875V113.684H191.899V111.66Z" fill="#F0F0F0"/>
<path d="M191.899 115.046H189.875V117.07H191.899V115.046Z" fill="#F0F0F0"/>
<path d="M191.899 118.431H189.875V120.456H191.899V118.431Z" fill="#F0F0F0"/>
<path d="M191.899 121.824H189.875V123.849H191.899V121.824Z" fill="#F0F0F0"/>
<path d="M191.899 125.21H189.875V127.234H191.899V125.21Z" fill="#F0F0F0"/>
<path d="M191.899 128.603H189.875V130.627H191.899V128.603Z" fill="#F0F0F0"/>
<path d="M191.899 131.989H189.875V134.013H191.899V131.989Z" fill="#F0F0F0"/>
<path d="M191.899 135.375H189.875V137.399H191.899V135.375Z" fill="#F0F0F0"/>
<path d="M191.899 148.932H189.875V150.956H191.899V148.932Z" fill="#F0F0F0"/>
<path d="M195.107 111.66H193.083V113.684H195.107V111.66Z" fill="#F0F0F0"/>
<path d="M195.107 115.046H193.083V117.07H195.107V115.046Z" fill="#F0F0F0"/>
<path d="M195.107 118.431H193.083V120.456H195.107V118.431Z" fill="#F0F0F0"/>
<path d="M195.107 121.824H193.083V123.849H195.107V121.824Z" fill="#F0F0F0"/>
<path d="M195.107 125.21H193.083V127.234H195.107V125.21Z" fill="#F0F0F0"/>
<path d="M195.107 128.603H193.083V130.627H195.107V128.603Z" fill="#F0F0F0"/>
<path d="M195.107 131.989H193.083V134.013H195.107V131.989Z" fill="#F0F0F0"/>
<path d="M195.107 135.375H193.083V137.399H195.107V135.375Z" fill="#F0F0F0"/>
<path d="M198.315 111.66H196.29V113.684H198.315V111.66Z" fill="#F0F0F0"/>
<path d="M198.315 115.046H196.29V117.07H198.315V115.046Z" fill="#F0F0F0"/>
<path d="M198.315 118.431H196.29V120.456H198.315V118.431Z" fill="#F0F0F0"/>
<path d="M198.315 121.824H196.29V123.849H198.315V121.824Z" fill="#F0F0F0"/>
<path d="M198.315 125.21H196.29V127.234H198.315V125.21Z" fill="#F0F0F0"/>
<path d="M198.315 128.603H196.29V130.627H198.315V128.603Z" fill="#F0F0F0"/>
<path d="M198.315 135.375H196.29V137.399H198.315V135.375Z" fill="#F0F0F0"/>
<path d="M198.315 138.767H196.29V140.792H198.315V138.767Z" fill="#F0F0F0"/>
<path d="M198.315 148.932H196.29V150.956H198.315V148.932Z" fill="#F0F0F0"/>
<path d="M198.315 152.318H196.29V154.342H198.315V152.318Z" fill="#F0F0F0"/>
<path d="M198.315 155.711H196.29V157.735H198.315V155.711Z" fill="#F0F0F0"/>
<path d="M198.315 159.096H196.29V161.121H198.315V159.096Z" fill="#F0F0F0"/>
<path d="M198.315 162.489H196.29V164.514H198.315V162.489Z" fill="#F0F0F0"/>
<path d="M198.315 165.875H196.29V167.9H198.315V165.875Z" fill="#F0F0F0"/>
<path d="M198.315 169.261H196.29V171.285H198.315V169.261Z" fill="#F0F0F0"/>
<path d="M201.529 111.66H199.505V113.684H201.529V111.66Z" fill="#F0F0F0"/>
<path d="M201.529 115.046H199.505V117.07H201.529V115.046Z" fill="#F0F0F0"/>
<path d="M201.529 118.431H199.505V120.456H201.529V118.431Z" fill="#F0F0F0"/>
<path d="M201.529 121.824H199.505V123.849H201.529V121.824Z" fill="#F0F0F0"/>
<path d="M201.529 125.21H199.505V127.234H201.529V125.21Z" fill="#F0F0F0"/>
<path d="M201.529 128.603H199.505V130.627H201.529V128.603Z" fill="#F0F0F0"/>
<path d="M201.529 138.767H199.505V140.792H201.529V138.767Z" fill="#F0F0F0"/>
<path d="M201.529 142.153H199.505V144.178H201.529V142.153Z" fill="#F0F0F0"/>
<path d="M201.529 145.546H199.505V147.571H201.529V145.546Z" fill="#F0F0F0"/>
<path d="M201.529 148.932H199.505V150.956H201.529V148.932Z" fill="#F0F0F0"/>
<path d="M201.529 152.318H199.505V154.342H201.529V152.318Z" fill="#F0F0F0"/>
<path d="M201.529 155.711H199.505V157.735H201.529V155.711Z" fill="#F0F0F0"/>
<path d="M201.529 159.096H199.505V161.121H201.529V159.096Z" fill="#F0F0F0"/>
<path d="M201.529 162.489H199.505V164.514H201.529V162.489Z" fill="#F0F0F0"/>
<path d="M201.529 165.875H199.505V167.9H201.529V165.875Z" fill="#F0F0F0"/>
<path d="M201.529 169.261H199.505V171.285H201.529V169.261Z" fill="#F0F0F0"/>
<path d="M201.529 172.654H199.505V174.678H201.529V172.654Z" fill="#F0F0F0"/>
<path d="M201.529 179.433H199.505V181.457H201.529V179.433Z" fill="#F0F0F0"/>
<path d="M204.737 111.66H202.713V113.684H204.737V111.66Z" fill="#F0F0F0"/>
<path d="M204.737 115.046H202.713V117.07H204.737V115.046Z" fill="#F0F0F0"/>
<path d="M204.737 118.431H202.713V120.456H204.737V118.431Z" fill="#F0F0F0"/>
<path d="M204.737 121.824H202.713V123.849H204.737V121.824Z" fill="#F0F0F0"/>
<path d="M204.737 125.21H202.713V127.234H204.737V125.21Z" fill="#F0F0F0"/>
<path d="M204.737 128.603H202.713V130.627H204.737V128.603Z" fill="#F0F0F0"/>
<path d="M204.737 138.767H202.713V140.792H204.737V138.767Z" fill="#F0F0F0"/>
<path d="M204.737 142.153H202.713V144.178H204.737V142.153Z" fill="#F0F0F0"/>
<path d="M204.737 145.546H202.713V147.571H204.737V145.546Z" fill="#F0F0F0"/>
<path d="M204.737 148.932H202.713V150.956H204.737V148.932Z" fill="#F0F0F0"/>
<path d="M204.737 159.096H202.713V161.121H204.737V159.096Z" fill="#F0F0F0"/>
<path d="M204.737 162.489H202.713V164.514H204.737V162.489Z" fill="#F0F0F0"/>
<path d="M204.737 165.875H202.713V167.9H204.737V165.875Z" fill="#F0F0F0"/>
<path d="M204.737 169.261H202.713V171.285H204.737V169.261Z" fill="#F0F0F0"/>
<path d="M204.737 172.654H202.713V174.678H204.737V172.654Z" fill="#F0F0F0"/>
<path d="M204.737 179.433H202.713V181.457H204.737V179.433Z" fill="#F0F0F0"/>
<path d="M204.737 182.818H202.713V184.843H204.737V182.818Z" fill="#F0F0F0"/>
<path d="M233.869 143.165H231.845V145.19H233.869V143.165Z" fill="#F0F0F0"/>
<path d="M233.869 146.551H231.845V148.576H233.869V146.551Z" fill="#F0F0F0"/>
<path d="M233.869 149.944H231.845V151.969H233.869V149.944Z" fill="#F0F0F0"/>
<path d="M233.869 153.33H231.845V155.354H233.869V153.33Z" fill="#F0F0F0"/>
<path d="M233.869 156.723H231.845V158.747H233.869V156.723Z" fill="#F0F0F0"/>
<path d="M233.869 160.109H231.845V162.133H233.869V160.109Z" fill="#F0F0F0"/>
<path d="M233.869 163.494H231.845V165.519H233.869V163.494Z" fill="#F0F0F0"/>
<path d="M233.869 173.666H231.845V175.69H233.869V173.666Z" fill="#F0F0F0"/>
<path d="M233.869 177.052H231.845V179.076H233.869V177.052Z" fill="#F0F0F0"/>
<path d="M233.869 180.438H231.845V182.462H233.869V180.438Z" fill="#F0F0F0"/>
<path d="M237.077 143.165H235.052V145.19H237.077V143.165Z" fill="#F0F0F0"/>
<path d="M237.077 146.551H235.052V148.576H237.077V146.551Z" fill="#F0F0F0"/>
<path d="M237.077 149.944H235.052V151.969H237.077V149.944Z" fill="#F0F0F0"/>
<path d="M237.077 153.33H235.052V155.354H237.077V153.33Z" fill="#F0F0F0"/>
<path d="M237.077 156.723H235.052V158.747H237.077V156.723Z" fill="#F0F0F0"/>
<path d="M237.077 160.109H235.052V162.133H237.077V160.109Z" fill="#F0F0F0"/>
<path d="M237.077 163.494H235.052V165.519H237.077V163.494Z" fill="#F0F0F0"/>
<path d="M240.291 143.165H238.267V145.19H240.291V143.165Z" fill="#F0F0F0"/>
<path d="M240.291 146.551H238.267V148.576H240.291V146.551Z" fill="#F0F0F0"/>
<path d="M240.291 149.944H238.267V151.969H240.291V149.944Z" fill="#F0F0F0"/>
<path d="M240.291 153.33H238.267V155.354H240.291V153.33Z" fill="#F0F0F0"/>
<path d="M240.291 156.723H238.267V158.747H240.291V156.723Z" fill="#F0F0F0"/>
<path d="M240.291 160.109H238.267V162.133H240.291V160.109Z" fill="#F0F0F0"/>
<path d="M240.291 163.494H238.267V165.519H240.291V163.494Z" fill="#F0F0F0"/>
<path d="M243.499 143.165H241.475V145.19H243.499V143.165Z" fill="#F0F0F0"/>
<path d="M243.499 146.551H241.475V148.576H243.499V146.551Z" fill="#F0F0F0"/>
<path d="M243.499 149.944H241.475V151.969H243.499V149.944Z" fill="#F0F0F0"/>
<path d="M243.499 153.33H241.475V155.354H243.499V153.33Z" fill="#F0F0F0"/>
<path d="M243.499 156.723H241.475V158.747H243.499V156.723Z" fill="#F0F0F0"/>
<path d="M243.499 160.109H241.475V162.133H243.499V160.109Z" fill="#F0F0F0"/>
<path d="M243.499 163.494H241.475V165.519H243.499V163.494Z" fill="#F0F0F0"/>
<path d="M243.499 166.887H241.475V168.912H243.499V166.887Z" fill="#F0F0F0"/>
<path d="M243.499 170.273H241.475V172.298H243.499V170.273Z" fill="#F0F0F0"/>
<path d="M243.499 173.666H241.475V175.69H243.499V173.666Z" fill="#F0F0F0"/>
<path d="M243.499 177.052H241.475V179.076H243.499V177.052Z" fill="#F0F0F0"/>
<path d="M246.714 143.165H244.689V145.19H246.714V143.165Z" fill="#F0F0F0"/>
<path d="M246.714 146.551H244.689V148.576H246.714V146.551Z" fill="#F0F0F0"/>
<path d="M246.714 149.944H244.689V151.969H246.714V149.944Z" fill="#F0F0F0"/>
<path d="M246.714 153.33H244.689V155.354H246.714V153.33Z" fill="#F0F0F0"/>
<path d="M246.714 156.723H244.689V158.747H246.714V156.723Z" fill="#F0F0F0"/>
<path d="M246.714 160.109H244.689V162.133H246.714V160.109Z" fill="#F0F0F0"/>
<path d="M246.714 163.494H244.689V165.519H246.714V163.494Z" fill="#F0F0F0"/>
<path d="M246.714 166.887H244.689V168.912H246.714V166.887Z" fill="#F0F0F0"/>
<path d="M246.714 170.273H244.689V172.298H246.714V170.273Z" fill="#F0F0F0"/>
<path d="M246.714 173.666H244.689V175.69H246.714V173.666Z" fill="#F0F0F0"/>
<path d="M246.714 177.052H244.689V179.076H246.714V177.052Z" fill="#F0F0F0"/>
<path d="M246.714 180.438H244.689V182.462H246.714V180.438Z" fill="#F0F0F0"/>
<path d="M246.714 190.609H244.689V192.634H246.714V190.609Z" fill="#F0F0F0"/>
<path d="M246.714 193.995H244.689V196.019H246.714V193.995Z" fill="#F0F0F0"/>
<path d="M249.921 143.165H247.897V145.19H249.921V143.165Z" fill="#F0F0F0"/>
<path d="M249.921 146.551H247.897V148.576H249.921V146.551Z" fill="#F0F0F0"/>
<path d="M249.921 149.944H247.897V151.969H249.921V149.944Z" fill="#F0F0F0"/>
<path d="M249.921 160.109H247.897V162.133H249.921V160.109Z" fill="#F0F0F0"/>
<path d="M249.921 163.494H247.897V165.519H249.921V163.494Z" fill="#F0F0F0"/>
<path d="M249.921 166.887H247.897V168.912H249.921V166.887Z" fill="#F0F0F0"/>
<path d="M249.921 170.273H247.897V172.298H249.921V170.273Z" fill="#F0F0F0"/>
<path d="M249.921 173.666H247.897V175.69H249.921V173.666Z" fill="#F0F0F0"/>
<path d="M249.921 177.052H247.897V179.076H249.921V177.052Z" fill="#F0F0F0"/>
<path d="M249.921 180.438H247.897V182.462H249.921V180.438Z" fill="#F0F0F0"/>
<path d="M249.921 190.609H247.897V192.634H249.921V190.609Z" fill="#F0F0F0"/>
<path d="M249.921 193.995H247.897V196.019H249.921V193.995Z" fill="#F0F0F0"/>
<path d="M249.921 197.381H247.897V199.405H249.921V197.381Z" fill="#F0F0F0"/>
<path d="M283.572 122.836H281.548V124.861H283.572V122.836Z" fill="#F0F0F0"/>
<path d="M283.572 126.222H281.548V128.247H283.572V126.222Z" fill="#F0F0F0"/>
<path d="M283.572 129.608H281.548V131.632H283.572V129.608Z" fill="#F0F0F0"/>
<path d="M283.572 133.001H281.548V135.025H283.572V133.001Z" fill="#F0F0F0"/>
<path d="M283.572 136.387H281.548V138.411H283.572V136.387Z" fill="#F0F0F0"/>
<path d="M283.572 139.78H281.548V141.804H283.572V139.78Z" fill="#F0F0F0"/>
<path d="M283.572 143.165H281.548V145.19H283.572V143.165Z" fill="#F0F0F0"/>
<path d="M283.572 146.551H281.548V148.576H283.572V146.551Z" fill="#F0F0F0"/>
<path d="M283.572 149.944H281.548V151.969H283.572V149.944Z" fill="#F0F0F0"/>
<path d="M283.572 153.33H281.548V155.354H283.572V153.33Z" fill="#F0F0F0"/>
<path d="M283.572 156.723H281.548V158.747H283.572V156.723Z" fill="#F0F0F0"/>
<path d="M283.572 160.109H281.548V162.133H283.572V160.109Z" fill="#F0F0F0"/>
<path d="M283.572 163.494H281.548V165.519H283.572V163.494Z" fill="#F0F0F0"/>
<path d="M283.572 166.887H281.548V168.912H283.572V166.887Z" fill="#F0F0F0"/>
<path d="M283.572 170.273H281.548V172.298H283.572V170.273Z" fill="#F0F0F0"/>
<path d="M283.572 173.666H281.548V175.69H283.572V173.666Z" fill="#F0F0F0"/>
<path d="M283.572 177.052H281.548V179.076H283.572V177.052Z" fill="#F0F0F0"/>
<path d="M283.572 180.438H281.548V182.462H283.572V180.438Z" fill="#F0F0F0"/>
<path d="M283.572 183.831H281.548V185.855H283.572V183.831Z" fill="#F0F0F0"/>
<path d="M283.572 187.216H281.548V189.241H283.572V187.216Z" fill="#F0F0F0"/>
<path d="M283.572 190.609H281.548V192.634H283.572V190.609Z" fill="#F0F0F0"/>
<path d="M283.572 193.995H281.548V196.019H283.572V193.995Z" fill="#F0F0F0"/>
<path d="M283.572 197.381H281.548V199.405H283.572V197.381Z" fill="#F0F0F0"/>
<path d="M286.78 122.836H284.756V124.861H286.78V122.836Z" fill="#F0F0F0"/>
<path d="M286.78 126.222H284.756V128.247H286.78V126.222Z" fill="#F0F0F0"/>
<path d="M286.78 129.608H284.756V131.632H286.78V129.608Z" fill="#F0F0F0"/>
<path d="M286.78 133.001H284.756V135.025H286.78V133.001Z" fill="#F0F0F0"/>
<path d="M286.78 136.387H284.756V138.411H286.78V136.387Z" fill="#F0F0F0"/>
<path d="M286.78 139.78H284.756V141.804H286.78V139.78Z" fill="#F0F0F0"/>
<path d="M286.78 143.165H284.756V145.19H286.78V143.165Z" fill="#F0F0F0"/>
<path d="M286.78 146.551H284.756V148.576H286.78V146.551Z" fill="#F0F0F0"/>
<path d="M286.78 149.944H284.756V151.969H286.78V149.944Z" fill="#F0F0F0"/>
<path d="M286.78 153.33H284.756V155.354H286.78V153.33Z" fill="#F0F0F0"/>
<path d="M286.78 156.723H284.756V158.747H286.78V156.723Z" fill="#F0F0F0"/>
<path d="M286.78 160.109H284.756V162.133H286.78V160.109Z" fill="#F0F0F0"/>
<path d="M286.78 163.494H284.756V165.519H286.78V163.494Z" fill="#F0F0F0"/>
<path d="M286.78 166.887H284.756V168.912H286.78V166.887Z" fill="#F0F0F0"/>
<path d="M286.78 170.273H284.756V172.298H286.78V170.273Z" fill="#F0F0F0"/>
<path d="M286.78 173.666H284.756V175.69H286.78V173.666Z" fill="#F0F0F0"/>
<path d="M286.78 177.052H284.756V179.076H286.78V177.052Z" fill="#F0F0F0"/>
<path d="M286.78 180.438H284.756V182.462H286.78V180.438Z" fill="#F0F0F0"/>
<path d="M286.78 183.831H284.756V185.855H286.78V183.831Z" fill="#F0F0F0"/>
<path d="M289.988 122.836H287.963V124.861H289.988V122.836Z" fill="#F0F0F0"/>
<path d="M289.988 126.222H287.963V128.247H289.988V126.222Z" fill="#F0F0F0"/>
<path d="M289.988 129.608H287.963V131.632H289.988V129.608Z" fill="#F0F0F0"/>
<path d="M289.988 133.001H287.963V135.025H289.988V133.001Z" fill="#F0F0F0"/>
<path d="M289.988 136.387H287.963V138.411H289.988V136.387Z" fill="#F0F0F0"/>
<path d="M289.988 139.78H287.963V141.804H289.988V139.78Z" fill="#F0F0F0"/>
<path d="M289.988 143.165H287.963V145.19H289.988V143.165Z" fill="#F0F0F0"/>
<path d="M289.988 146.551H287.963V148.576H289.988V146.551Z" fill="#F0F0F0"/>
<path d="M289.988 149.944H287.963V151.969H289.988V149.944Z" fill="#F0F0F0"/>
<path d="M289.988 153.33H287.963V155.354H289.988V153.33Z" fill="#F0F0F0"/>
<path d="M289.988 156.723H287.963V158.747H289.988V156.723Z" fill="#F0F0F0"/>
<path d="M289.988 160.109H287.963V162.133H289.988V160.109Z" fill="#F0F0F0"/>
<path d="M289.988 163.494H287.963V165.519H289.988V163.494Z" fill="#F0F0F0"/>
<path d="M289.988 166.887H287.963V168.912H289.988V166.887Z" fill="#F0F0F0"/>
<path d="M289.988 170.273H287.963V172.298H289.988V170.273Z" fill="#F0F0F0"/>
<path d="M289.988 173.666H287.963V175.69H289.988V173.666Z" fill="#F0F0F0"/>
<path d="M289.988 177.052H287.963V179.076H289.988V177.052Z" fill="#F0F0F0"/>
<path d="M289.988 180.438H287.963V182.462H289.988V180.438Z" fill="#F0F0F0"/>
<path d="M289.988 183.831H287.963V185.855H289.988V183.831Z" fill="#F0F0F0"/>
<path d="M293.202 122.836H291.178V124.861H293.202V122.836Z" fill="#F0F0F0"/>
<path d="M293.202 126.222H291.178V128.247H293.202V126.222Z" fill="#F0F0F0"/>
<path d="M293.202 129.608H291.178V131.632H293.202V129.608Z" fill="#F0F0F0"/>
<path d="M293.202 133.001H291.178V135.025H293.202V133.001Z" fill="#F0F0F0"/>
<path d="M293.202 136.387H291.178V138.411H293.202V136.387Z" fill="#F0F0F0"/>
<path d="M293.202 139.78H291.178V141.804H293.202V139.78Z" fill="#F0F0F0"/>
<path d="M293.202 143.165H291.178V145.19H293.202V143.165Z" fill="#F0F0F0"/>
<path d="M293.202 146.551H291.178V148.576H293.202V146.551Z" fill="#F0F0F0"/>
<path d="M293.202 149.944H291.178V151.969H293.202V149.944Z" fill="#F0F0F0"/>
<path d="M293.202 153.33H291.178V155.354H293.202V153.33Z" fill="#F0F0F0"/>
<path d="M293.202 156.723H291.178V158.747H293.202V156.723Z" fill="#F0F0F0"/>
<path d="M293.202 160.109H291.178V162.133H293.202V160.109Z" fill="#F0F0F0"/>
<path d="M293.202 163.494H291.178V165.519H293.202V163.494Z" fill="#F0F0F0"/>
<path d="M293.202 166.887H291.178V168.912H293.202V166.887Z" fill="#F0F0F0"/>
<path d="M293.202 170.273H291.178V172.298H293.202V170.273Z" fill="#F0F0F0"/>
<path d="M296.41 122.836H294.385V124.861H296.41V122.836Z" fill="#F0F0F0"/>
<path d="M296.41 126.222H294.385V128.247H296.41V126.222Z" fill="#F0F0F0"/>
<path d="M296.41 129.608H294.385V131.632H296.41V129.608Z" fill="#F0F0F0"/>
<path d="M296.41 133.001H294.385V135.025H296.41V133.001Z" fill="#F0F0F0"/>
<path d="M296.41 136.387H294.385V138.411H296.41V136.387Z" fill="#F0F0F0"/>
<path d="M296.41 139.78H294.385V141.804H296.41V139.78Z" fill="#F0F0F0"/>
<path d="M296.41 143.165H294.385V145.19H296.41V143.165Z" fill="#F0F0F0"/>
<path d="M296.41 146.551H294.385V148.576H296.41V146.551Z" fill="#F0F0F0"/>
<path d="M296.41 149.944H294.385V151.969H296.41V149.944Z" fill="#F0F0F0"/>
<path d="M296.41 153.33H294.385V155.354H296.41V153.33Z" fill="#F0F0F0"/>
<path d="M296.41 156.723H294.385V158.747H296.41V156.723Z" fill="#F0F0F0"/>
<path d="M296.41 160.109H294.385V162.133H296.41V160.109Z" fill="#F0F0F0"/>
<path d="M296.41 163.494H294.385V165.519H296.41V163.494Z" fill="#F0F0F0"/>
<path d="M299.625 122.836H297.6V124.861H299.625V122.836Z" fill="#F0F0F0"/>
<path d="M299.625 126.222H297.6V128.247H299.625V126.222Z" fill="#F0F0F0"/>
<path d="M299.625 129.608H297.6V131.632H299.625V129.608Z" fill="#F0F0F0"/>
<path d="M299.625 133.001H297.6V135.025H299.625V133.001Z" fill="#F0F0F0"/>
<path d="M299.625 136.387H297.6V138.411H299.625V136.387Z" fill="#F0F0F0"/>
<path d="M299.625 139.78H297.6V141.804H299.625V139.78Z" fill="#F0F0F0"/>
<path d="M299.625 143.165H297.6V145.19H299.625V143.165Z" fill="#F0F0F0"/>
<path d="M299.625 146.551H297.6V148.576H299.625V146.551Z" fill="#F0F0F0"/>
<path d="M299.625 149.944H297.6V151.969H299.625V149.944Z" fill="#F0F0F0"/>
<path d="M299.625 153.33H297.6V155.354H299.625V153.33Z" fill="#F0F0F0"/>
<path d="M299.625 156.723H297.6V158.747H299.625V156.723Z" fill="#F0F0F0"/>
<path d="M299.625 160.109H297.6V162.133H299.625V160.109Z" fill="#F0F0F0"/>
<path d="M63.7242 147.563H61.6998V149.588H63.7242V147.563Z" fill="#F0F0F0"/>
<path d="M63.7242 150.956H61.6998V152.981H63.7242V150.956Z" fill="#F0F0F0"/>
<path d="M63.7242 154.342H61.6998V156.367H63.7242V154.342Z" fill="#F0F0F0"/>
<path d="M63.7242 157.728H61.6998V159.752H63.7242V157.728Z" fill="#F0F0F0"/>
<path d="M63.7242 161.121H61.6998V163.145H63.7242V161.121Z" fill="#F0F0F0"/>
<path d="M63.7242 164.507H61.6998V166.531H63.7242V164.507Z" fill="#F0F0F0"/>
<path d="M63.7242 167.9H61.6998V169.924H63.7242V167.9Z" fill="#F0F0F0"/>
<path d="M63.7242 171.285H61.6998V173.31H63.7242V171.285Z" fill="#F0F0F0"/>
<path d="M63.7242 174.671H61.6998V176.696H63.7242V174.671Z" fill="#F0F0F0"/>
<path d="M63.7242 178.064H61.6998V180.088H63.7242V178.064Z" fill="#F0F0F0"/>
<path d="M63.7242 181.45H61.6998V183.474H63.7242V181.45Z" fill="#F0F0F0"/>
<path d="M63.7242 184.843H61.6998V186.867H63.7242V184.843Z" fill="#F0F0F0"/>
<path d="M63.7242 188.229H61.6998V190.253H63.7242V188.229Z" fill="#F0F0F0"/>
<path d="M63.7242 191.614H61.6998V193.639H63.7242V191.614Z" fill="#F0F0F0"/>
<path d="M63.7242 195.007H61.6998V197.032H63.7242V195.007Z" fill="#F0F0F0"/>
<path d="M63.7242 198.393H61.6998V200.417H63.7242V198.393Z" fill="#F0F0F0"/>
<path d="M63.7242 201.786H61.6998V203.81H63.7242V201.786Z" fill="#F0F0F0"/>
<path d="M63.7242 205.172H61.6998V207.196H63.7242V205.172Z" fill="#F0F0F0"/>
<path d="M63.7242 208.558H61.6998V210.582H63.7242V208.558Z" fill="#F0F0F0"/>
<path d="M63.7242 211.95H61.6998V213.975H63.7242V211.95Z" fill="#F0F0F0"/>
<path d="M66.9318 147.563H64.9075V149.588H66.9318V147.563Z" fill="#F0F0F0"/>
<path d="M66.9318 150.956H64.9075V152.981H66.9318V150.956Z" fill="#F0F0F0"/>
<path d="M66.9318 154.342H64.9075V156.367H66.9318V154.342Z" fill="#F0F0F0"/>
<path d="M66.9318 157.728H64.9075V159.752H66.9318V157.728Z" fill="#F0F0F0"/>
<path d="M66.9318 161.121H64.9075V163.145H66.9318V161.121Z" fill="#F0F0F0"/>
<path d="M66.9318 164.507H64.9075V166.531H66.9318V164.507Z" fill="#F0F0F0"/>
<path d="M66.9318 167.9H64.9075V169.924H66.9318V167.9Z" fill="#F0F0F0"/>
<path d="M66.9318 171.285H64.9075V173.31H66.9318V171.285Z" fill="#F0F0F0"/>
<path d="M66.9318 174.671H64.9075V176.696H66.9318V174.671Z" fill="#F0F0F0"/>
<path d="M66.9318 178.064H64.9075V180.088H66.9318V178.064Z" fill="#F0F0F0"/>
<path d="M66.9318 181.45H64.9075V183.474H66.9318V181.45Z" fill="#F0F0F0"/>
<path d="M66.9318 184.843H64.9075V186.867H66.9318V184.843Z" fill="#F0F0F0"/>
<path d="M66.9318 188.229H64.9075V190.253H66.9318V188.229Z" fill="#F0F0F0"/>
<path d="M66.9318 191.614H64.9075V193.639H66.9318V191.614Z" fill="#F0F0F0"/>
<path d="M66.9318 195.007H64.9075V197.032H66.9318V195.007Z" fill="#F0F0F0"/>
<path d="M66.9318 198.393H64.9075V200.417H66.9318V198.393Z" fill="#F0F0F0"/>
<path d="M66.9318 201.786H64.9075V203.81H66.9318V201.786Z" fill="#F0F0F0"/>
<path d="M66.9318 205.172H64.9075V207.196H66.9318V205.172Z" fill="#F0F0F0"/>
<path d="M70.1393 147.563H68.115V149.588H70.1393V147.563Z" fill="#F0F0F0"/>
<path d="M70.1393 150.956H68.115V152.981H70.1393V150.956Z" fill="#F0F0F0"/>
<path d="M70.1393 154.342H68.115V156.367H70.1393V154.342Z" fill="#F0F0F0"/>
<path d="M70.1393 157.728H68.115V159.752H70.1393V157.728Z" fill="#F0F0F0"/>
<path d="M70.1393 161.121H68.115V163.145H70.1393V161.121Z" fill="#F0F0F0"/>
<path d="M70.1393 164.507H68.115V166.531H70.1393V164.507Z" fill="#F0F0F0"/>
<path d="M70.1393 167.9H68.115V169.924H70.1393V167.9Z" fill="#F0F0F0"/>
<path d="M70.1393 171.285H68.115V173.31H70.1393V171.285Z" fill="#F0F0F0"/>
<path d="M70.1393 174.671H68.115V176.696H70.1393V174.671Z" fill="#F0F0F0"/>
<path d="M70.1393 178.064H68.115V180.088H70.1393V178.064Z" fill="#F0F0F0"/>
<path d="M70.1393 181.45H68.115V183.474H70.1393V181.45Z" fill="#F0F0F0"/>
<path d="M70.1393 184.843H68.115V186.867H70.1393V184.843Z" fill="#F0F0F0"/>
<path d="M70.1393 188.229H68.115V190.253H70.1393V188.229Z" fill="#F0F0F0"/>
<path d="M70.1393 191.614H68.115V193.639H70.1393V191.614Z" fill="#F0F0F0"/>
<path d="M70.1393 195.007H68.115V197.032H70.1393V195.007Z" fill="#F0F0F0"/>
<path d="M70.1393 198.393H68.115V200.417H70.1393V198.393Z" fill="#F0F0F0"/>
<path d="M70.1393 201.786H68.115V203.81H70.1393V201.786Z" fill="#F0F0F0"/>
<path d="M70.1393 205.172H68.115V207.196H70.1393V205.172Z" fill="#F0F0F0"/>
<path d="M51.7134 172.298H49.6891V174.322H51.7134V172.298Z" fill="#F0F0F0"/>
<path d="M51.7134 175.683H49.6891V177.708H51.7134V175.683Z" fill="#F0F0F0"/>
<path d="M51.7134 179.076H49.6891V181.101H51.7134V179.076Z" fill="#F0F0F0"/>
<path d="M51.7134 182.462H49.6891V184.486H51.7134V182.462Z" fill="#F0F0F0"/>
<path d="M51.7134 185.848H49.6891V187.872H51.7134V185.848Z" fill="#F0F0F0"/>
<path d="M51.7134 189.241H49.6891V191.265H51.7134V189.241Z" fill="#F0F0F0"/>
<path d="M51.7134 192.627H49.6891V194.651H51.7134V192.627Z" fill="#F0F0F0"/>
<path d="M51.7134 196.019H49.6891V198.044H51.7134V196.019Z" fill="#F0F0F0"/>
<path d="M51.7134 199.405H49.6891V201.43H51.7134V199.405Z" fill="#F0F0F0"/>
<path d="M51.7134 202.791H49.6891V204.815H51.7134V202.791Z" fill="#F0F0F0"/>
<path d="M51.7134 206.184H49.6891V208.208H51.7134V206.184Z" fill="#F0F0F0"/>
<path d="M51.7134 209.57H49.6891V211.594H51.7134V209.57Z" fill="#F0F0F0"/>
<path d="M51.7134 212.963H49.6891V214.987H51.7134V212.963Z" fill="#F0F0F0"/>
<path d="M54.9211 172.298H52.8967V174.322H54.9211V172.298Z" fill="#F0F0F0"/>
<path d="M54.9211 175.683H52.8967V177.708H54.9211V175.683Z" fill="#F0F0F0"/>
<path d="M54.9211 179.076H52.8967V181.101H54.9211V179.076Z" fill="#F0F0F0"/>
<path d="M54.9211 182.462H52.8967V184.486H54.9211V182.462Z" fill="#F0F0F0"/>
<path d="M54.9211 185.848H52.8967V187.872H54.9211V185.848Z" fill="#F0F0F0"/>
<path d="M54.9211 189.241H52.8967V191.265H54.9211V189.241Z" fill="#F0F0F0"/>
<path d="M54.9211 192.627H52.8967V194.651H54.9211V192.627Z" fill="#F0F0F0"/>
<path d="M54.9211 196.019H52.8967V198.044H54.9211V196.019Z" fill="#F0F0F0"/>
<path d="M54.9211 199.405H52.8967V201.43H54.9211V199.405Z" fill="#F0F0F0"/>
<path d="M54.9211 202.791H52.8967V204.815H54.9211V202.791Z" fill="#F0F0F0"/>
<path d="M54.9211 206.184H52.8967V208.208H54.9211V206.184Z" fill="#F0F0F0"/>
<path d="M54.9211 209.57H52.8967V211.594H54.9211V209.57Z" fill="#F0F0F0"/>
<path d="M54.9211 212.963H52.8967V214.987H54.9211V212.963Z" fill="#F0F0F0"/>
<path d="M58.1358 172.298H56.1115V174.322H58.1358V172.298Z" fill="#F0F0F0"/>
<path d="M58.1358 175.683H56.1115V177.708H58.1358V175.683Z" fill="#F0F0F0"/>
<path d="M58.1358 179.076H56.1115V181.101H58.1358V179.076Z" fill="#F0F0F0"/>
<path d="M58.1358 182.462H56.1115V184.486H58.1358V182.462Z" fill="#F0F0F0"/>
<path d="M58.1358 185.848H56.1115V187.872H58.1358V185.848Z" fill="#F0F0F0"/>
<path d="M58.1358 189.241H56.1115V191.265H58.1358V189.241Z" fill="#F0F0F0"/>
<path d="M58.1358 192.627H56.1115V194.651H58.1358V192.627Z" fill="#F0F0F0"/>
<path d="M58.1358 196.019H56.1115V198.044H58.1358V196.019Z" fill="#F0F0F0"/>
<path d="M58.1358 199.405H56.1115V201.43H58.1358V199.405Z" fill="#F0F0F0"/>
<path d="M58.1358 202.791H56.1115V204.815H58.1358V202.791Z" fill="#F0F0F0"/>
<path d="M58.1358 206.184H56.1115V208.208H58.1358V206.184Z" fill="#F0F0F0"/>
<path d="M58.1358 209.57H56.1115V211.594H58.1358V209.57Z" fill="#F0F0F0"/>
<path d="M58.1358 212.963H56.1115V214.987H58.1358V212.963Z" fill="#F0F0F0"/>
<path d="M58.1358 216.348H56.1115V218.373H58.1358V216.348Z" fill="#F0F0F0"/>
<path d="M75.97 173.31H73.9457V175.334H75.97V173.31Z" fill="#F0F0F0"/>
<path d="M75.97 176.695H73.9457V178.72H75.97V176.695Z" fill="#F0F0F0"/>
<path d="M75.97 180.081H73.9457V182.106H75.97V180.081Z" fill="#F0F0F0"/>
<path d="M75.97 183.474H73.9457V185.499H75.97V183.474Z" fill="#F0F0F0"/>
<path d="M75.97 186.86H73.9457V188.884H75.97V186.86Z" fill="#F0F0F0"/>
<path d="M75.97 190.253H73.9457V192.277H75.97V190.253Z" fill="#F0F0F0"/>
<path d="M75.97 193.639H73.9457V195.663H75.97V193.639Z" fill="#F0F0F0"/>
<path d="M75.97 197.025H73.9457V199.049H75.97V197.025Z" fill="#F0F0F0"/>
<path d="M75.97 200.417H73.9457V202.442H75.97V200.417Z" fill="#F0F0F0"/>
<path d="M75.97 203.803H73.9457V205.828H75.97V203.803Z" fill="#F0F0F0"/>
<path d="M75.97 213.968H73.9457V215.992H75.97V213.968Z" fill="#F0F0F0"/>
<path d="M79.1775 173.31H77.1532V175.334H79.1775V173.31Z" fill="#F0F0F0"/>
<path d="M79.1775 176.695H77.1532V178.72H79.1775V176.695Z" fill="#F0F0F0"/>
<path d="M79.1775 180.081H77.1532V182.106H79.1775V180.081Z" fill="#F0F0F0"/>
<path d="M79.1775 183.474H77.1532V185.499H79.1775V183.474Z" fill="#F0F0F0"/>
<path d="M79.1775 186.86H77.1532V188.884H79.1775V186.86Z" fill="#F0F0F0"/>
<path d="M79.1775 190.253H77.1532V192.277H79.1775V190.253Z" fill="#F0F0F0"/>
<path d="M79.1775 193.639H77.1532V195.663H79.1775V193.639Z" fill="#F0F0F0"/>
<path d="M79.1775 197.025H77.1532V199.049H79.1775V197.025Z" fill="#F0F0F0"/>
<path d="M79.1775 200.417H77.1532V202.442H79.1775V200.417Z" fill="#F0F0F0"/>
<path d="M79.1775 210.582H77.1532V212.606H79.1775V210.582Z" fill="#F0F0F0"/>
<path d="M79.1775 213.968H77.1532V215.992H79.1775V213.968Z" fill="#F0F0F0"/>
<path d="M82.3923 173.31H80.3679V175.334H82.3923V173.31Z" fill="#F0F0F0"/>
<path d="M82.3923 176.695H80.3679V178.72H82.3923V176.695Z" fill="#F0F0F0"/>
<path d="M82.3923 180.081H80.3679V182.106H82.3923V180.081Z" fill="#F0F0F0"/>
<path d="M82.3923 183.474H80.3679V185.499H82.3923V183.474Z" fill="#F0F0F0"/>
<path d="M82.3923 186.86H80.3679V188.884H82.3923V186.86Z" fill="#F0F0F0"/>
<path d="M82.3923 190.253H80.3679V192.277H82.3923V190.253Z" fill="#F0F0F0"/>
<path d="M82.3923 193.639H80.3679V195.663H82.3923V193.639Z" fill="#F0F0F0"/>
<path d="M82.3923 197.025H80.3679V199.049H82.3923V197.025Z" fill="#F0F0F0"/>
<path d="M82.3923 207.196H80.3679V209.22H82.3923V207.196Z" fill="#F0F0F0"/>
<path d="M82.3923 210.582H80.3679V212.606H82.3923V210.582Z" fill="#F0F0F0"/>
<path d="M82.3923 213.968H80.3679V215.992H82.3923V213.968Z" fill="#F0F0F0"/>
<path d="M112.23 121.824H110.206V123.849H112.23V121.824Z" fill="#F0F0F0"/>
<path d="M112.23 125.21H110.206V127.234H112.23V125.21Z" fill="#F0F0F0"/>
<path d="M112.23 128.603H110.206V130.627H112.23V128.603Z" fill="#F0F0F0"/>
<path d="M112.23 131.989H110.206V134.013H112.23V131.989Z" fill="#F0F0F0"/>
<path d="M112.23 135.375H110.206V137.399H112.23V135.375Z" fill="#F0F0F0"/>
<path d="M112.23 138.767H110.206V140.792H112.23V138.767Z" fill="#F0F0F0"/>
<path d="M112.23 142.153H110.206V144.178H112.23V142.153Z" fill="#F0F0F0"/>
<path d="M112.23 145.546H110.206V147.571H112.23V145.546Z" fill="#F0F0F0"/>
<path d="M112.23 148.932H110.206V150.956H112.23V148.932Z" fill="#F0F0F0"/>
<path d="M112.23 152.318H110.206V154.342H112.23V152.318Z" fill="#F0F0F0"/>
<path d="M112.23 155.711H110.206V157.735H112.23V155.711Z" fill="#F0F0F0"/>
<path d="M112.23 159.096H110.206V161.121H112.23V159.096Z" fill="#F0F0F0"/>
<path d="M112.23 162.489H110.206V164.514H112.23V162.489Z" fill="#F0F0F0"/>
<path d="M112.23 165.875H110.206V167.9H112.23V165.875Z" fill="#F0F0F0"/>
<path d="M112.23 169.261H110.206V171.285H112.23V169.261Z" fill="#F0F0F0"/>
<path d="M112.23 172.654H110.206V174.678H112.23V172.654Z" fill="#F0F0F0"/>
<path d="M112.23 176.04H110.206V178.064H112.23V176.04Z" fill="#F0F0F0"/>
<path d="M112.23 182.818H110.206V184.843H112.23V182.818Z" fill="#F0F0F0"/>
<path d="M112.23 186.204H110.206V188.229H112.23V186.204Z" fill="#F0F0F0"/>
<path d="M112.23 189.597H110.206V191.621H112.23V189.597Z" fill="#F0F0F0"/>
<path d="M112.23 192.983H110.206V195.007H112.23V192.983Z" fill="#F0F0F0"/>
<path d="M112.23 196.376H110.206V198.4H112.23V196.376Z" fill="#F0F0F0"/>
<path d="M115.445 121.824H113.42V123.849H115.445V121.824Z" fill="#F0F0F0"/>
<path d="M115.445 125.21H113.42V127.234H115.445V125.21Z" fill="#F0F0F0"/>
<path d="M115.445 128.603H113.42V130.627H115.445V128.603Z" fill="#F0F0F0"/>
<path d="M115.445 131.989H113.42V134.013H115.445V131.989Z" fill="#F0F0F0"/>
<path d="M115.445 135.375H113.42V137.399H115.445V135.375Z" fill="#F0F0F0"/>
<path d="M115.445 138.767H113.42V140.792H115.445V138.767Z" fill="#F0F0F0"/>
<path d="M115.445 142.153H113.42V144.178H115.445V142.153Z" fill="#F0F0F0"/>
<path d="M115.445 145.546H113.42V147.571H115.445V145.546Z" fill="#F0F0F0"/>
<path d="M115.445 148.932H113.42V150.956H115.445V148.932Z" fill="#F0F0F0"/>
<path d="M115.445 152.318H113.42V154.342H115.445V152.318Z" fill="#F0F0F0"/>
<path d="M115.445 155.711H113.42V157.735H115.445V155.711Z" fill="#F0F0F0"/>
<path d="M115.445 159.096H113.42V161.121H115.445V159.096Z" fill="#F0F0F0"/>
<path d="M115.445 162.489H113.42V164.514H115.445V162.489Z" fill="#F0F0F0"/>
<path d="M115.445 165.875H113.42V167.9H115.445V165.875Z" fill="#F0F0F0"/>
<path d="M115.445 169.261H113.42V171.285H115.445V169.261Z" fill="#F0F0F0"/>
<path d="M115.445 172.654H113.42V174.678H115.445V172.654Z" fill="#F0F0F0"/>
<path d="M115.445 192.983H113.42V195.007H115.445V192.983Z" fill="#F0F0F0"/>
<path d="M115.445 196.376H113.42V198.4H115.445V196.376Z" fill="#F0F0F0"/>
<path d="M118.652 121.824H116.628V123.849H118.652V121.824Z" fill="#F0F0F0"/>
<path d="M118.652 125.21H116.628V127.234H118.652V125.21Z" fill="#F0F0F0"/>
<path d="M118.652 128.603H116.628V130.627H118.652V128.603Z" fill="#F0F0F0"/>
<path d="M118.652 131.989H116.628V134.013H118.652V131.989Z" fill="#F0F0F0"/>
<path d="M118.652 135.375H116.628V137.399H118.652V135.375Z" fill="#F0F0F0"/>
<path d="M118.652 138.767H116.628V140.792H118.652V138.767Z" fill="#F0F0F0"/>
<path d="M118.652 142.153H116.628V144.178H118.652V142.153Z" fill="#F0F0F0"/>
<path d="M118.652 145.546H116.628V147.571H118.652V145.546Z" fill="#F0F0F0"/>
<path d="M118.652 148.932H116.628V150.956H118.652V148.932Z" fill="#F0F0F0"/>
<path d="M118.652 152.318H116.628V154.342H118.652V152.318Z" fill="#F0F0F0"/>
<path d="M118.652 155.711H116.628V157.735H118.652V155.711Z" fill="#F0F0F0"/>
<path d="M118.652 159.096H116.628V161.121H118.652V159.096Z" fill="#F0F0F0"/>
<path d="M118.652 162.489H116.628V164.514H118.652V162.489Z" fill="#F0F0F0"/>
<path d="M118.652 165.875H116.628V167.9H118.652V165.875Z" fill="#F0F0F0"/>
<path d="M118.652 169.261H116.628V171.285H118.652V169.261Z" fill="#F0F0F0"/>
<path d="M118.652 172.654H116.628V174.678H118.652V172.654Z" fill="#F0F0F0"/>
<path d="M118.652 179.433H116.628V181.457H118.652V179.433Z" fill="#F0F0F0"/>
<path d="M118.652 182.818H116.628V184.843H118.652V182.818Z" fill="#F0F0F0"/>
<path d="M118.652 186.204H116.628V188.229H118.652V186.204Z" fill="#F0F0F0"/>
<path d="M118.652 189.597H116.628V191.621H118.652V189.597Z" fill="#F0F0F0"/>
<path d="M118.652 196.376H116.628V198.4H118.652V196.376Z" fill="#F0F0F0"/>
<path d="M100.583 164.507H98.5586V166.531H100.583V164.507Z" fill="#F0F0F0"/>
<path d="M100.583 167.9H98.5586V169.924H100.583V167.9Z" fill="#F0F0F0"/>
<path d="M100.583 171.285H98.5586V173.31H100.583V171.285Z" fill="#F0F0F0"/>
<path d="M100.583 174.671H98.5586V176.696H100.583V174.671Z" fill="#F0F0F0"/>
<path d="M100.583 178.064H98.5586V180.088H100.583V178.064Z" fill="#F0F0F0"/>
<path d="M100.583 181.45H98.5586V183.474H100.583V181.45Z" fill="#F0F0F0"/>
<path d="M100.583 184.843H98.5586V186.867H100.583V184.843Z" fill="#F0F0F0"/>
<path d="M100.583 191.614H98.5586V193.639H100.583V191.614Z" fill="#F0F0F0"/>
<path d="M100.583 195.007H98.5586V197.032H100.583V195.007Z" fill="#F0F0F0"/>
<path d="M100.583 198.393H98.5586V200.417H100.583V198.393Z" fill="#F0F0F0"/>
<path d="M100.583 201.786H98.5586V203.81H100.583V201.786Z" fill="#F0F0F0"/>
<path d="M100.583 205.172H98.5586V207.196H100.583V205.172Z" fill="#F0F0F0"/>
<path d="M100.583 208.558H98.5586V210.582H100.583V208.558Z" fill="#F0F0F0"/>
<path d="M100.583 211.95H98.5586V213.975H100.583V211.95Z" fill="#F0F0F0"/>
<path d="M100.583 215.336H98.5586V217.361H100.583V215.336Z" fill="#F0F0F0"/>
<path d="M103.791 164.507H101.766V166.531H103.791V164.507Z" fill="#F0F0F0"/>
<path d="M103.791 167.9H101.766V169.924H103.791V167.9Z" fill="#F0F0F0"/>
<path d="M103.791 171.285H101.766V173.31H103.791V171.285Z" fill="#F0F0F0"/>
<path d="M103.791 174.671H101.766V176.696H103.791V174.671Z" fill="#F0F0F0"/>
<path d="M103.791 178.064H101.766V180.088H103.791V178.064Z" fill="#F0F0F0"/>
<path d="M103.791 181.45H101.766V183.474H103.791V181.45Z" fill="#F0F0F0"/>
<path d="M103.791 191.614H101.766V193.639H103.791V191.614Z" fill="#F0F0F0"/>
<path d="M103.791 195.007H101.766V197.032H103.791V195.007Z" fill="#F0F0F0"/>
<path d="M103.791 198.393H101.766V200.417H103.791V198.393Z" fill="#F0F0F0"/>
<path d="M103.791 201.786H101.766V203.81H103.791V201.786Z" fill="#F0F0F0"/>
<path d="M103.791 205.172H101.766V207.196H103.791V205.172Z" fill="#F0F0F0"/>
<path d="M103.791 208.558H101.766V210.582H103.791V208.558Z" fill="#F0F0F0"/>
<path d="M103.791 211.95H101.766V213.975H103.791V211.95Z" fill="#F0F0F0"/>
<path d="M103.791 215.336H101.766V217.361H103.791V215.336Z" fill="#F0F0F0"/>
<path d="M107.005 164.507H104.981V166.531H107.005V164.507Z" fill="#F0F0F0"/>
<path d="M107.005 167.9H104.981V169.924H107.005V167.9Z" fill="#F0F0F0"/>
<path d="M107.005 171.285H104.981V173.31H107.005V171.285Z" fill="#F0F0F0"/>
<path d="M107.005 174.671H104.981V176.696H107.005V174.671Z" fill="#F0F0F0"/>
<path d="M107.005 178.064H104.981V180.088H107.005V178.064Z" fill="#F0F0F0"/>
<path d="M107.005 181.45H104.981V183.474H107.005V181.45Z" fill="#F0F0F0"/>
<path d="M107.005 188.229H104.981V190.253H107.005V188.229Z" fill="#F0F0F0"/>
<path d="M107.005 191.614H104.981V193.639H107.005V191.614Z" fill="#F0F0F0"/>
<path d="M107.005 195.007H104.981V197.032H107.005V195.007Z" fill="#F0F0F0"/>
<path d="M107.005 198.393H104.981V200.417H107.005V198.393Z" fill="#F0F0F0"/>
<path d="M107.005 201.786H104.981V203.81H107.005V201.786Z" fill="#F0F0F0"/>
<path d="M107.005 205.172H104.981V207.196H107.005V205.172Z" fill="#F0F0F0"/>
<path d="M107.005 208.558H104.981V210.582H107.005V208.558Z" fill="#F0F0F0"/>
<path d="M107.005 211.95H104.981V213.975H107.005V211.95Z" fill="#F0F0F0"/>
<path d="M107.005 215.336H104.981V217.361H107.005V215.336Z" fill="#F0F0F0"/>
<path d="M174.657 145.546H172.632V147.571H174.657V145.546Z" fill="#F0F0F0"/>
<path d="M174.657 148.932H172.632V150.956H174.657V148.932Z" fill="#F0F0F0"/>
<path d="M174.657 152.318H172.632V154.342H174.657V152.318Z" fill="#F0F0F0"/>
<path d="M174.657 155.711H172.632V157.735H174.657V155.711Z" fill="#F0F0F0"/>
<path d="M174.657 159.096H172.632V161.121H174.657V159.096Z" fill="#F0F0F0"/>
<path d="M174.657 162.489H172.632V164.514H174.657V162.489Z" fill="#F0F0F0"/>
<path d="M174.657 165.875H172.632V167.9H174.657V165.875Z" fill="#F0F0F0"/>
<path d="M174.657 169.261H172.632V171.285H174.657V169.261Z" fill="#F0F0F0"/>
<path d="M174.657 172.654H172.632V174.678H174.657V172.654Z" fill="#F0F0F0"/>
<path d="M174.657 176.04H172.632V178.064H174.657V176.04Z" fill="#F0F0F0"/>
<path d="M174.657 179.433H172.632V181.457H174.657V179.433Z" fill="#F0F0F0"/>
<path d="M174.657 182.818H172.632V184.843H174.657V182.818Z" fill="#F0F0F0"/>
<path d="M174.657 186.204H172.632V188.229H174.657V186.204Z" fill="#F0F0F0"/>
<path d="M174.657 192.983H172.632V195.007H174.657V192.983Z" fill="#F0F0F0"/>
<path d="M174.657 196.376H172.632V198.4H174.657V196.376Z" fill="#F0F0F0"/>
<path d="M174.657 199.762H172.632V201.786H174.657V199.762Z" fill="#F0F0F0"/>
<path d="M174.657 203.147H172.632V205.172H174.657V203.147Z" fill="#F0F0F0"/>
<path d="M174.657 209.926H172.632V211.95H174.657V209.926Z" fill="#F0F0F0"/>
<path d="M174.657 213.319H172.632V215.343H174.657V213.319Z" fill="#F0F0F0"/>
<path d="M174.657 216.705H172.632V218.729H174.657V216.705Z" fill="#F0F0F0"/>
<path d="M177.864 145.546H175.84V147.571H177.864V145.546Z" fill="#F0F0F0"/>
<path d="M177.864 148.932H175.84V150.956H177.864V148.932Z" fill="#F0F0F0"/>
<path d="M177.864 152.318H175.84V154.342H177.864V152.318Z" fill="#F0F0F0"/>
<path d="M177.864 155.711H175.84V157.735H177.864V155.711Z" fill="#F0F0F0"/>
<path d="M177.864 159.096H175.84V161.121H177.864V159.096Z" fill="#F0F0F0"/>
<path d="M177.864 162.489H175.84V164.514H177.864V162.489Z" fill="#F0F0F0"/>
<path d="M177.864 165.875H175.84V167.9H177.864V165.875Z" fill="#F0F0F0"/>
<path d="M177.864 169.261H175.84V171.285H177.864V169.261Z" fill="#F0F0F0"/>
<path d="M177.864 172.654H175.84V174.678H177.864V172.654Z" fill="#F0F0F0"/>
<path d="M177.864 176.04H175.84V178.064H177.864V176.04Z" fill="#F0F0F0"/>
<path d="M177.864 179.433H175.84V181.457H177.864V179.433Z" fill="#F0F0F0"/>
<path d="M177.864 182.818H175.84V184.843H177.864V182.818Z" fill="#F0F0F0"/>
<path d="M177.864 186.204H175.84V188.229H177.864V186.204Z" fill="#F0F0F0"/>
<path d="M177.864 196.376H175.84V198.4H177.864V196.376Z" fill="#F0F0F0"/>
<path d="M177.864 199.762H175.84V201.786H177.864V199.762Z" fill="#F0F0F0"/>
<path d="M177.864 206.54H175.84V208.565H177.864V206.54Z" fill="#F0F0F0"/>
<path d="M177.864 209.926H175.84V211.95H177.864V209.926Z" fill="#F0F0F0"/>
<path d="M177.864 213.319H175.84V215.343H177.864V213.319Z" fill="#F0F0F0"/>
<path d="M177.864 216.705H175.84V218.729H177.864V216.705Z" fill="#F0F0F0"/>
<path d="M181.079 145.546H179.055V147.571H181.079V145.546Z" fill="#F0F0F0"/>
<path d="M181.079 148.932H179.055V150.956H181.079V148.932Z" fill="#F0F0F0"/>
<path d="M181.079 152.318H179.055V154.342H181.079V152.318Z" fill="#F0F0F0"/>
<path d="M181.079 155.711H179.055V157.735H181.079V155.711Z" fill="#F0F0F0"/>
<path d="M181.079 159.096H179.055V161.121H181.079V159.096Z" fill="#F0F0F0"/>
<path d="M181.079 162.489H179.055V164.514H181.079V162.489Z" fill="#F0F0F0"/>
<path d="M181.079 165.875H179.055V167.9H181.079V165.875Z" fill="#F0F0F0"/>
<path d="M181.079 169.261H179.055V171.285H181.079V169.261Z" fill="#F0F0F0"/>
<path d="M181.079 172.654H179.055V174.678H181.079V172.654Z" fill="#F0F0F0"/>
<path d="M181.079 176.04H179.055V178.064H181.079V176.04Z" fill="#F0F0F0"/>
<path d="M181.079 179.433H179.055V181.457H181.079V179.433Z" fill="#F0F0F0"/>
<path d="M181.079 182.818H179.055V184.843H181.079V182.818Z" fill="#F0F0F0"/>
<path d="M181.079 186.204H179.055V188.229H181.079V186.204Z" fill="#F0F0F0"/>
<path d="M181.079 189.597H179.055V191.621H181.079V189.597Z" fill="#F0F0F0"/>
<path d="M181.079 196.376H179.055V198.4H181.079V196.376Z" fill="#F0F0F0"/>
<path d="M181.079 203.147H179.055V205.172H181.079V203.147Z" fill="#F0F0F0"/>
<path d="M181.079 206.54H179.055V208.565H181.079V206.54Z" fill="#F0F0F0"/>
<path d="M181.079 209.926H179.055V211.95H181.079V209.926Z" fill="#F0F0F0"/>
<path d="M181.079 213.319H179.055V215.343H181.079V213.319Z" fill="#F0F0F0"/>
<path d="M181.079 216.705H179.055V218.729H181.079V216.705Z" fill="#F0F0F0"/>
<path d="M161.577 164.863H159.553V166.887H161.577V164.863Z" fill="#F0F0F0"/>
<path d="M161.577 168.256H159.553V170.28H161.577V168.256Z" fill="#F0F0F0"/>
<path d="M161.577 171.642H159.553V173.666H161.577V171.642Z" fill="#F0F0F0"/>
<path d="M161.577 175.028H159.553V177.052H161.577V175.028Z" fill="#F0F0F0"/>
<path d="M161.577 178.421H159.553V180.445H161.577V178.421Z" fill="#F0F0F0"/>
<path d="M161.577 181.806H159.553V183.831H161.577V181.806Z" fill="#F0F0F0"/>
<path d="M161.577 191.978H159.553V194.002H161.577V191.978Z" fill="#F0F0F0"/>
<path d="M161.577 195.364H159.553V197.388H161.577V195.364Z" fill="#F0F0F0"/>
<path d="M161.577 198.749H159.553V200.774H161.577V198.749Z" fill="#F0F0F0"/>
<path d="M161.577 202.142H159.553V204.167H161.577V202.142Z" fill="#F0F0F0"/>
<path d="M161.577 205.528H159.553V207.552H161.577V205.528Z" fill="#F0F0F0"/>
<path d="M161.577 208.921H159.553V210.945H161.577V208.921Z" fill="#F0F0F0"/>
<path d="M161.577 212.307H159.553V214.331H161.577V212.307Z" fill="#F0F0F0"/>
<path d="M164.785 164.863H162.76V166.887H164.785V164.863Z" fill="#F0F0F0"/>
<path d="M164.785 168.256H162.76V170.28H164.785V168.256Z" fill="#F0F0F0"/>
<path d="M164.785 171.642H162.76V173.666H164.785V171.642Z" fill="#F0F0F0"/>
<path d="M164.785 175.028H162.76V177.052H164.785V175.028Z" fill="#F0F0F0"/>
<path d="M164.785 178.421H162.76V180.445H164.785V178.421Z" fill="#F0F0F0"/>
<path d="M164.785 181.806H162.76V183.831H164.785V181.806Z" fill="#F0F0F0"/>
<path d="M164.785 191.978H162.76V194.002H164.785V191.978Z" fill="#F0F0F0"/>
<path d="M164.785 195.364H162.76V197.388H164.785V195.364Z" fill="#F0F0F0"/>
<path d="M164.785 198.749H162.76V200.774H164.785V198.749Z" fill="#F0F0F0"/>
<path d="M164.785 202.142H162.76V204.167H164.785V202.142Z" fill="#F0F0F0"/>
<path d="M164.785 205.528H162.76V207.552H164.785V205.528Z" fill="#F0F0F0"/>
<path d="M164.785 208.921H162.76V210.945H164.785V208.921Z" fill="#F0F0F0"/>
<path d="M164.785 215.693H162.76V217.717H164.785V215.693Z" fill="#F0F0F0"/>
<path d="M271.441 149.944H269.416V151.969H271.441V149.944Z" fill="#F0F0F0"/>
<path d="M271.441 153.33H269.416V155.354H271.441V153.33Z" fill="#F0F0F0"/>
<path d="M271.441 156.723H269.416V158.747H271.441V156.723Z" fill="#F0F0F0"/>
<path d="M271.441 160.109H269.416V162.133H271.441V160.109Z" fill="#F0F0F0"/>
<path d="M271.441 163.494H269.416V165.519H271.441V163.494Z" fill="#F0F0F0"/>
<path d="M271.441 166.887H269.416V168.912H271.441V166.887Z" fill="#F0F0F0"/>
<path d="M271.441 170.273H269.416V172.298H271.441V170.273Z" fill="#F0F0F0"/>
<path d="M271.441 173.666H269.416V175.69H271.441V173.666Z" fill="#F0F0F0"/>
<path d="M271.441 177.052H269.416V179.076H271.441V177.052Z" fill="#F0F0F0"/>
<path d="M271.441 180.438H269.416V182.462H271.441V180.438Z" fill="#F0F0F0"/>
<path d="M271.441 183.831H269.416V185.855H271.441V183.831Z" fill="#F0F0F0"/>
<path d="M271.441 190.609H269.416V192.634H271.441V190.609Z" fill="#F0F0F0"/>
<path d="M271.441 193.995H269.416V196.019H271.441V193.995Z" fill="#F0F0F0"/>
<path d="M271.441 197.381H269.416V199.405H271.441V197.381Z" fill="#F0F0F0"/>
<path d="M271.441 200.774H269.416V202.798H271.441V200.774Z" fill="#F0F0F0"/>
<path d="M271.441 204.16H269.416V206.184H271.441V204.16Z" fill="#F0F0F0"/>
<path d="M271.441 207.552H269.416V209.577H271.441V207.552Z" fill="#F0F0F0"/>
<path d="M271.441 210.938H269.416V212.963H271.441V210.938Z" fill="#F0F0F0"/>
<path d="M271.441 214.331H269.416V216.356H271.441V214.331Z" fill="#F0F0F0"/>
<path d="M274.655 149.944H272.631V151.969H274.655V149.944Z" fill="#F0F0F0"/>
<path d="M274.655 153.33H272.631V155.354H274.655V153.33Z" fill="#F0F0F0"/>
<path d="M274.655 156.723H272.631V158.747H274.655V156.723Z" fill="#F0F0F0"/>
<path d="M274.655 160.109H272.631V162.133H274.655V160.109Z" fill="#F0F0F0"/>
<path d="M274.655 163.494H272.631V165.519H274.655V163.494Z" fill="#F0F0F0"/>
<path d="M274.655 166.887H272.631V168.912H274.655V166.887Z" fill="#F0F0F0"/>
<path d="M274.655 170.273H272.631V172.298H274.655V170.273Z" fill="#F0F0F0"/>
<path d="M274.655 173.666H272.631V175.69H274.655V173.666Z" fill="#F0F0F0"/>
<path d="M274.655 177.052H272.631V179.076H274.655V177.052Z" fill="#F0F0F0"/>
<path d="M274.655 180.438H272.631V182.462H274.655V180.438Z" fill="#F0F0F0"/>
<path d="M274.655 183.831H272.631V185.855H274.655V183.831Z" fill="#F0F0F0"/>
<path d="M274.655 187.216H272.631V189.241H274.655V187.216Z" fill="#F0F0F0"/>
<path d="M274.655 190.609H272.631V192.634H274.655V190.609Z" fill="#F0F0F0"/>
<path d="M274.655 193.995H272.631V196.019H274.655V193.995Z" fill="#F0F0F0"/>
<path d="M274.655 197.381H272.631V199.405H274.655V197.381Z" fill="#F0F0F0"/>
<path d="M274.655 200.774H272.631V202.798H274.655V200.774Z" fill="#F0F0F0"/>
<path d="M274.655 204.16H272.631V206.184H274.655V204.16Z" fill="#F0F0F0"/>
<path d="M274.655 207.552H272.631V209.577H274.655V207.552Z" fill="#F0F0F0"/>
<path d="M274.655 210.938H272.631V212.963H274.655V210.938Z" fill="#F0F0F0"/>
<path d="M274.655 214.331H272.631V216.356H274.655V214.331Z" fill="#F0F0F0"/>
<path d="M255.631 163.138H253.606V165.162H255.631V163.138Z" fill="#F0F0F0"/>
<path d="M255.631 166.531H253.606V168.555H255.631V166.531Z" fill="#F0F0F0"/>
<path d="M255.631 169.917H253.606V171.941H255.631V169.917Z" fill="#F0F0F0"/>
<path d="M255.631 173.31H253.606V175.334H255.631V173.31Z" fill="#F0F0F0"/>
<path d="M255.631 176.695H253.606V178.72H255.631V176.695Z" fill="#F0F0F0"/>
<path d="M255.631 180.081H253.606V182.106H255.631V180.081Z" fill="#F0F0F0"/>
<path d="M255.631 183.474H253.606V185.499H255.631V183.474Z" fill="#F0F0F0"/>
<path d="M255.631 186.86H253.606V188.884H255.631V186.86Z" fill="#F0F0F0"/>
<path d="M255.631 190.253H253.606V192.277H255.631V190.253Z" fill="#F0F0F0"/>
<path d="M255.631 193.639H253.606V195.663H255.631V193.639Z" fill="#F0F0F0"/>
<path d="M258.838 163.138H256.814V165.162H258.838V163.138Z" fill="#F0F0F0"/>
<path d="M258.838 166.531H256.814V168.555H258.838V166.531Z" fill="#F0F0F0"/>
<path d="M258.838 169.917H256.814V171.941H258.838V169.917Z" fill="#F0F0F0"/>
<path d="M258.838 173.31H256.814V175.334H258.838V173.31Z" fill="#F0F0F0"/>
<path d="M258.838 176.695H256.814V178.72H258.838V176.695Z" fill="#F0F0F0"/>
<path d="M258.838 180.081H256.814V182.106H258.838V180.081Z" fill="#F0F0F0"/>
<path d="M258.838 183.474H256.814V185.499H258.838V183.474Z" fill="#F0F0F0"/>
<path d="M258.838 186.86H256.814V188.884H258.838V186.86Z" fill="#F0F0F0"/>
<path d="M258.838 190.253H256.814V192.277H258.838V190.253Z" fill="#F0F0F0"/>
<path d="M97.1971 79.2917C97.1975 78.311 96.9685 77.3439 96.5284 76.4675C96.0883 75.5912 95.4493 74.83 94.6624 74.2447C93.8756 73.6594 92.9627 73.2663 91.9969 73.0968C91.031 72.9273 90.0388 72.9861 89.0997 73.2685C89.1943 72.6314 89.242 71.9881 89.2423 71.344C89.2422 69.3886 88.8113 67.4573 87.9802 65.6874C87.149 63.9175 85.938 62.3525 84.4334 61.1037C82.9287 59.8549 81.1674 58.9531 79.2746 58.4623C77.3819 57.9715 75.4042 57.9039 73.4823 58.2641C72.1688 56.1112 70.1911 54.4434 67.8473 53.5121C65.5035 52.5808 62.9205 52.4365 60.4875 53.1008C58.0546 53.7652 55.9034 55.2022 54.3581 57.1954C52.8129 59.1886 51.9573 61.6301 51.9202 64.1518H51.7206C48.8774 64.1518 46.1506 65.2813 44.1401 67.2918C42.1296 69.3023 41.0001 72.0291 41.0001 74.8723C41.0001 77.7156 42.1296 80.4424 44.1401 82.4528C46.1506 84.4633 48.8774 85.5928 51.7206 85.5928H91.0884C92.7278 85.5481 94.2847 84.8639 95.4262 83.6864C96.5677 82.509 97.2033 80.9316 97.1971 79.2917Z" fill="#F0F0F0"/>
<path d="M263.022 65.4634C263.022 64.399 263.445 63.3783 264.198 62.6257C264.95 61.8731 265.971 61.4503 267.036 61.4503C267.424 61.4521 267.811 61.5097 268.183 61.6214C268.126 61.2129 268.097 60.8008 268.098 60.3882C268.098 58.1397 268.989 55.9829 270.576 54.3903C272.163 52.7977 274.317 51.8992 276.566 51.8917C277.089 51.8942 277.612 51.9443 278.127 52.0414C278.964 50.6654 280.226 49.599 281.722 49.0028C283.219 48.4066 284.868 48.3131 286.423 48.7362C287.977 49.1593 289.351 50.0762 290.339 51.3487C291.326 52.6211 291.874 54.1801 291.898 55.7907H292.026C293.841 55.7907 295.582 56.5116 296.865 57.7949C298.148 59.0782 298.869 60.8187 298.869 62.6336C298.869 64.4484 298.148 66.1889 296.865 67.4722C295.582 68.7555 293.841 69.4764 292.026 69.4764H266.921C265.876 69.4503 264.882 69.0156 264.153 68.2654C263.424 67.5152 263.018 66.5093 263.022 65.4634Z" fill="#F0F0F0"/>
<path d="M183.104 22.168C183.105 21.5164 183.365 20.892 183.826 20.4312C184.287 19.9704 184.911 19.7108 185.563 19.7089C185.804 19.7071 186.045 19.7432 186.275 19.8158C186.239 19.5656 186.219 19.3131 186.218 19.0602C186.218 18.3763 186.353 17.6991 186.615 17.0673C186.877 16.4355 187.261 15.8616 187.745 15.3783C188.229 14.8951 188.803 14.5119 189.436 14.2508C190.068 13.9898 190.745 13.8559 191.429 13.8568C191.749 13.8563 192.069 13.885 192.384 13.9423C192.899 13.1009 193.673 12.4494 194.59 12.0856C195.507 11.7218 196.517 11.6655 197.468 11.9251C198.42 12.1847 199.261 12.7462 199.867 13.5251C200.472 14.3041 200.808 15.2584 200.824 16.2447H200.895C201.46 16.2214 202.025 16.3126 202.554 16.5129C203.083 16.7132 203.567 17.0184 203.975 17.4103C204.383 17.8021 204.708 18.2724 204.93 18.793C205.152 19.3135 205.266 19.8736 205.266 20.4395C205.266 21.0054 205.152 21.5655 204.93 22.086C204.708 22.6066 204.383 23.0769 203.975 23.4687C203.567 23.8605 203.083 24.1658 202.554 24.3661C202.025 24.5664 201.46 24.6576 200.895 24.6343H185.499C184.856 24.6194 184.244 24.3525 183.796 23.8912C183.348 23.4299 183.1 22.811 183.104 22.168Z" fill="#F0F0F0"/>
<path d="M178.2 265.56C254.528 265.56 316.404 261.947 316.404 257.491C316.404 253.035 254.528 249.422 178.2 249.422C101.871 249.422 39.9951 253.035 39.9951 257.491C39.9951 261.947 101.871 265.56 178.2 265.56Z" fill="#F5F5F5"/>
<path d="M301.514 222.222C301.514 222.222 304.857 211.01 298.085 208.771C291.313 206.533 287.258 201.294 287.507 195.364C287.757 189.433 280.6 183.66 275.254 189.219C269.908 194.779 270.621 184.943 263.493 182.555C256.365 180.167 250.328 185.962 252.281 191.258C254.234 196.554 247.198 199.869 238.787 195.364C230.376 190.859 221.096 199.056 222.878 205.471C224.66 211.886 223.206 212.599 217.888 210.461C212.571 208.322 203.026 214.381 206.369 222.222C209.712 230.063 301.514 222.222 301.514 222.222Z" fill="#49768C"/>
<path opacity="0.3" d="M301.514 222.222C301.514 222.222 304.857 211.01 298.085 208.771C291.313 206.533 287.258 201.294 287.507 195.364C287.757 189.433 280.6 183.66 275.254 189.219C269.908 194.779 270.621 184.943 263.493 182.555C256.365 180.167 250.328 185.962 252.281 191.258C254.234 196.554 247.198 199.869 238.787 195.364C230.376 190.859 221.096 199.056 222.878 205.471C224.66 211.886 223.206 212.599 217.888 210.461C212.571 208.322 203.026 214.381 206.369 222.222C209.712 230.063 301.514 222.222 301.514 222.222Z" fill="white"/>
<path d="M122.359 223.291C125.923 219.727 122.715 213.668 119.151 212.956C115.587 212.243 112.023 205.97 111.838 201.978C111.653 197.987 105.252 185.705 95.2726 193.29C85.2934 200.874 88.3299 194.409 81.1093 192.277C73.8886 190.146 69.341 196.276 72.5058 200.874C72.5058 200.874 65.2567 199.056 62.27 205.828C59.2834 212.599 62.27 216.805 62.27 216.805C62.27 216.805 48.6271 216.398 49.8531 224.838C51.0791 233.277 122.359 223.291 122.359 223.291Z" fill="#49768C"/>
<path opacity="0.3" d="M122.359 223.291C125.923 219.727 122.715 213.668 119.151 212.956C115.587 212.243 112.023 205.97 111.838 201.978C111.653 197.987 105.252 185.705 95.2726 193.29C85.2934 200.874 88.3299 194.409 81.1093 192.277C73.8886 190.146 69.341 196.276 72.5058 200.874C72.5058 200.874 65.2567 199.056 62.27 205.828C59.2834 212.599 62.27 216.805 62.27 216.805C62.27 216.805 48.6271 216.398 49.8531 224.838C51.0791 233.277 122.359 223.291 122.359 223.291Z" fill="white"/>
<path d="M313.745 223.505V233.27H38.6052V223.505C38.5841 223.115 38.6418 222.724 38.7749 222.357C38.9079 221.99 39.1137 221.653 39.3798 221.367C39.6459 221.081 39.967 220.851 40.3237 220.692C40.6805 220.533 41.0657 220.447 41.4564 220.44H310.866C311.259 220.443 311.647 220.526 312.007 220.684C312.367 220.841 312.692 221.07 312.961 221.357C313.23 221.643 313.438 221.981 313.573 222.35C313.708 222.72 313.766 223.112 313.745 223.505Z" fill="#263238"/>
<path d="M71.3939 220.44H54.2867V233.27H71.3939V220.44Z" fill="#49768C"/>
<path d="M103.47 220.44H87.0754V233.27H103.47V220.44Z" fill="#49768C"/>
<path d="M136.259 220.44H119.151V233.27H136.259V220.44Z" fill="#49768C"/>
<path d="M168.334 220.44H151.94V233.27H168.334V220.44Z" fill="#49768C"/>
<path d="M200.41 220.44H184.016V233.27H200.41V220.44Z" fill="#49768C"/>
<path d="M233.199 220.44H216.092V233.27H233.199V220.44Z" fill="#49768C"/>
<path d="M265.275 220.44H248.881V233.27H265.275V220.44Z" fill="#49768C"/>
<path d="M298.064 220.44H280.957V233.27H298.064V220.44Z" fill="#49768C"/>
<g opacity="0.6">
<path d="M71.3939 220.44H54.2867V233.27H71.3939V220.44Z" fill="white"/>
<path d="M103.47 220.44H87.0754V233.27H103.47V220.44Z" fill="white"/>
<path d="M136.259 220.44H119.151V233.27H136.259V220.44Z" fill="white"/>
<path d="M168.334 220.44H151.94V233.27H168.334V220.44Z" fill="white"/>
<path d="M200.41 220.44H184.016V233.27H200.41V220.44Z" fill="white"/>
<path d="M233.199 220.44H216.092V233.27H233.199V220.44Z" fill="white"/>
<path d="M265.275 220.44H248.881V233.27H265.275V220.44Z" fill="white"/>
<path d="M298.064 220.44H280.957V233.27H298.064V220.44Z" fill="white"/>
</g>
<path opacity="0.1" d="M313.745 223.505V233.27H38.6052V223.505C38.5841 223.115 38.6418 222.724 38.7749 222.357C38.9079 221.99 39.1137 221.653 39.3798 221.367C39.6459 221.081 39.967 220.851 40.3237 220.692C40.6805 220.533 41.0657 220.447 41.4564 220.44H310.866C311.259 220.443 311.647 220.526 312.007 220.684C312.367 220.841 312.692 221.07 312.961 221.357C313.23 221.643 313.438 221.981 313.573 222.35C313.708 222.72 313.766 223.112 313.745 223.505Z" fill="white"/>
<path d="M141.412 217.125V68.8278L191.044 62.8474L212.856 67.003L219.984 68.3573L235.287 71.2727L245.488 69.2626L252.616 67.8584L286.188 61.2507V209.548L252.616 216.163L245.488 217.567L235.287 219.577L191.044 211.152L188.164 211.501L179.575 212.535L141.412 217.125Z" fill="#49768C"/>
<path opacity="0.2" d="M141.412 217.125V68.8278L191.044 62.8474L212.856 67.003L219.984 68.3573L235.287 71.2727L245.488 69.2626L252.616 67.8584L286.188 61.2507V209.548L252.616 216.163L245.488 217.567L235.287 219.577L191.044 211.152L188.164 211.501L179.575 212.535L141.412 217.125Z" fill="black"/>
<path d="M245.488 144.313V133.293C245.488 133.034 245.431 132.778 245.321 132.544C245.211 132.31 245.05 132.102 244.851 131.937C244.651 131.773 244.417 131.654 244.166 131.59C243.915 131.526 243.653 131.519 243.399 131.568L141.412 151.177V143.914L181.878 136.144C182.116 136.098 182.342 136.003 182.541 135.865C182.741 135.728 182.91 135.55 183.038 135.344C183.166 135.138 183.249 134.908 183.284 134.668C183.319 134.427 183.303 134.183 183.239 133.949L175.462 105.658C175.346 105.232 175.073 104.865 174.697 104.632C174.322 104.399 173.872 104.318 173.438 104.404L141.412 110.576V103.306L178.563 96.1422C178.997 96.0601 179.446 96.1443 179.821 96.378C180.196 96.6117 180.47 96.9779 180.587 97.4039L190.317 132.858C190.435 133.284 190.708 133.651 191.083 133.884C191.458 134.118 191.907 134.202 192.341 134.12L211.43 130.442C211.831 130.366 212.194 130.151 212.454 129.837C212.714 129.522 212.856 129.126 212.856 128.717V87.0754C212.856 86.6668 212.714 86.2709 212.454 85.9559C212.194 85.641 211.831 85.4268 211.43 85.3504L188.464 81.1164C188.268 81.0844 188.068 81.0844 187.872 81.1164L141.412 88.387V81.202L187.951 73.8815C188.146 73.8458 188.347 73.8458 188.542 73.8815L210.781 77.973C211.035 78.0201 211.295 78.0109 211.544 77.9459C211.794 77.881 212.025 77.762 212.223 77.5973C212.421 77.4326 212.581 77.2264 212.69 76.9932C212.799 76.76 212.856 76.5055 212.856 76.248V67.003L219.984 68.3573V126.671C219.984 126.931 220.042 127.187 220.153 127.422C220.264 127.656 220.425 127.864 220.625 128.029C220.825 128.194 221.059 128.314 221.311 128.378C221.562 128.443 221.824 128.452 222.079 128.403L244.062 124.169C244.464 124.094 244.827 123.881 245.087 123.565C245.348 123.25 245.49 122.853 245.488 122.444V69.2626L252.616 67.837V120.377C252.616 120.637 252.674 120.893 252.785 121.127C252.896 121.361 253.057 121.568 253.257 121.733C253.458 121.898 253.692 122.017 253.943 122.08C254.194 122.144 254.457 122.152 254.711 122.102L269.53 119.251C269.932 119.175 270.294 118.961 270.554 118.646C270.814 118.331 270.956 117.935 270.956 117.526V81.1734C270.956 80.7657 271.098 80.3708 271.358 80.057C271.619 79.7433 271.981 79.5305 272.381 79.4556L286.21 76.6044V83.8821L279.509 85.2649C279.109 85.3426 278.747 85.5571 278.487 85.8718C278.227 86.1864 278.085 86.5817 278.084 86.9899V115.502C278.083 115.761 278.14 116.017 278.25 116.251C278.36 116.486 278.521 116.693 278.721 116.858C278.92 117.022 279.154 117.141 279.405 117.205C279.656 117.269 279.918 117.276 280.172 117.227L286.188 116.072V123.314L254.041 129.494C253.64 129.573 253.278 129.789 253.018 130.105C252.758 130.421 252.616 130.817 252.616 131.226V180.951C252.616 181.206 252.672 181.459 252.78 181.691C252.888 181.922 253.045 182.128 253.241 182.292C253.436 182.457 253.665 182.578 253.912 182.645C254.158 182.712 254.416 182.725 254.668 182.683L286.188 177.487V184.686L254.112 190.018C253.699 190.082 253.322 190.29 253.048 190.606C252.774 190.922 252.621 191.325 252.616 191.743V216.149L245.488 217.574V155.112C245.488 154.856 245.433 154.603 245.325 154.371C245.218 154.138 245.061 153.933 244.865 153.767C244.669 153.602 244.44 153.482 244.193 153.415C243.946 153.348 243.687 153.336 243.435 153.38L216.997 157.935C216.73 157.981 216.478 158.088 216.259 158.248C216.04 158.407 215.861 158.615 215.735 158.854L188.179 211.501L179.589 212.535L190.125 192.413C190.274 192.125 190.341 191.801 190.318 191.477C190.295 191.153 190.183 190.842 189.994 190.578C189.805 190.314 189.547 190.107 189.248 189.98C188.949 189.854 188.621 189.813 188.3 189.861L141.426 196.989V189.79L194.957 181.642C195.231 181.6 195.491 181.495 195.716 181.334C195.942 181.173 196.126 180.961 196.255 180.716L211.074 152.425C211.198 152.186 211.377 151.98 211.594 151.822C211.812 151.663 212.063 151.558 212.328 151.512L244.048 146.045C244.452 145.97 244.818 145.756 245.081 145.44C245.344 145.123 245.488 144.725 245.488 144.313Z" fill="#49768C"/>
<path d="M235.273 215.978L191.743 207.652L191.201 207.545L190.645 207.617L187.794 207.966L179.24 208.999L144.976 213.127V71.9926L190.916 66.4613L212.186 70.51L219.314 71.8643L234.617 74.7796L235.33 74.9079L236.007 74.7796L246.208 72.7695L253.336 71.3439L282.624 65.5774V206.619L251.924 212.67L244.796 214.096L235.273 215.978ZM235.273 219.606L245.473 217.596L252.601 216.17L286.188 209.563V61.3006L252.616 67.9083L245.488 69.3339L235.287 71.2798L219.984 68.3645L212.856 67.0101L191.03 62.8474L141.398 68.8278V217.125L179.561 212.535L188.179 211.501L191.03 211.152L235.273 219.577V219.606Z" fill="#263238"/>
<path opacity="0.1" d="M235.273 215.978L191.743 207.652L191.201 207.545L190.645 207.617L187.794 207.966L179.24 208.999L144.976 213.127V71.9926L190.916 66.4613L212.186 70.51L219.314 71.8643L234.617 74.7796L235.33 74.9079L236.007 74.7796L246.208 72.7695L253.336 71.3439L282.624 65.5774V206.619L251.924 212.67L244.796 214.096L235.273 215.978ZM235.273 219.606L245.473 217.596L252.601 216.17L286.188 209.563V61.3006L252.616 67.9083L245.488 69.3339L235.287 71.2798L219.984 68.3645L212.856 67.0101L191.03 62.8474L141.398 68.8278V217.125L179.561 212.535L188.179 211.501L191.03 211.152L235.273 219.577V219.606Z" fill="white"/>
<path opacity="0.1" d="M235.287 219.577V71.2727L191.044 62.8474V211.152L235.287 219.577Z" fill="black"/>
<g opacity="0.5">
<path d="M268.311 122.708C268.5 122.691 268.688 122.75 268.834 122.872C268.98 122.993 269.071 123.168 269.088 123.357C269.105 123.546 269.047 123.734 268.925 123.88C268.803 124.025 268.629 124.117 268.44 124.134L249.764 127.484V148.797C249.767 148.966 249.709 149.131 249.6 149.262C249.492 149.393 249.34 149.48 249.173 149.509L214.246 155.533L197.032 188.179C196.989 188.264 196.931 188.34 196.859 188.402C196.787 188.464 196.703 188.511 196.613 188.54C196.522 188.569 196.427 188.58 196.332 188.572C196.238 188.564 196.146 188.537 196.061 188.493C195.977 188.449 195.903 188.388 195.843 188.315C195.782 188.241 195.737 188.157 195.71 188.066C195.683 187.975 195.674 187.879 195.684 187.785C195.695 187.69 195.724 187.599 195.77 187.516L213.169 154.52C213.22 154.424 213.292 154.341 213.379 154.276C213.467 154.212 213.568 154.169 213.675 154.15L248.339 148.162V126.878C248.336 126.709 248.393 126.545 248.5 126.414C248.607 126.284 248.757 126.196 248.923 126.165L268.169 122.708H268.311Z" fill="white"/>
<path d="M195.057 187.872C195.056 187.605 195.134 187.344 195.281 187.121C195.429 186.898 195.639 186.725 195.885 186.622C196.132 186.519 196.403 186.492 196.665 186.543C196.927 186.595 197.168 186.724 197.357 186.912C197.546 187.101 197.674 187.342 197.726 187.604C197.778 187.866 197.75 188.137 197.648 188.384C197.545 188.63 197.371 188.841 197.148 188.988C196.926 189.136 196.664 189.214 196.397 189.212C196.042 189.21 195.703 189.069 195.452 188.818C195.201 188.567 195.059 188.227 195.057 187.872Z" fill="white"/>
<path d="M266.971 123.421C266.97 123.154 267.048 122.892 267.196 122.67C267.343 122.447 267.553 122.273 267.8 122.171C268.046 122.068 268.318 122.04 268.58 122.092C268.842 122.144 269.082 122.272 269.271 122.461C269.46 122.65 269.589 122.891 269.64 123.153C269.692 123.415 269.665 123.686 269.562 123.933C269.459 124.179 269.285 124.389 269.063 124.537C268.84 124.684 268.579 124.762 268.312 124.761C267.956 124.761 267.615 124.62 267.364 124.369C267.113 124.117 266.971 123.776 266.971 123.421Z" fill="white"/>
</g>
<path d="M197.096 166.852C196.35 166.105 195.464 165.512 194.488 165.107C193.513 164.703 192.467 164.495 191.411 164.495C190.355 164.495 189.31 164.703 188.334 165.107C187.359 165.512 186.473 166.105 185.727 166.852C184.98 167.598 184.389 168.483 183.985 169.458C183.581 170.433 183.373 171.478 183.373 172.533C183.373 173.588 183.581 174.633 183.985 175.607C184.389 176.582 184.98 177.468 185.727 178.214L191.429 183.916L197.131 178.214C197.875 177.465 198.464 176.578 198.865 175.602C199.266 174.626 199.47 173.58 199.467 172.525C199.464 171.47 199.253 170.426 198.846 169.453C198.439 168.479 197.844 167.595 197.096 166.852ZM189.098 174.842C188.64 174.385 188.329 173.802 188.202 173.167C188.076 172.532 188.141 171.874 188.388 171.277C188.636 170.679 189.055 170.168 189.593 169.808C190.131 169.448 190.764 169.257 191.411 169.257C192.058 169.257 192.691 169.448 193.229 169.808C193.767 170.168 194.186 170.679 194.434 171.277C194.682 171.874 194.746 172.532 194.62 173.167C194.494 173.802 194.182 174.385 193.724 174.842C193.421 175.147 193.06 175.388 192.663 175.553C192.267 175.718 191.841 175.803 191.411 175.803C190.981 175.803 190.556 175.718 190.159 175.553C189.762 175.388 189.401 175.147 189.098 174.842Z" fill="white"/>
<path opacity="0.2" d="M197.096 166.852C196.344 166.098 195.449 165.502 194.463 165.098C193.478 164.694 192.422 164.491 191.358 164.499V169.268C191.799 169.247 192.239 169.317 192.653 169.471C193.067 169.626 193.445 169.863 193.764 170.167C194.083 170.472 194.338 170.839 194.511 171.245C194.685 171.651 194.775 172.088 194.775 172.529C194.775 172.971 194.685 173.408 194.511 173.814C194.338 174.22 194.083 174.586 193.764 174.891C193.445 175.196 193.067 175.433 192.653 175.587C192.239 175.742 191.799 175.811 191.358 175.79V183.845L191.408 183.895L197.11 178.192C198.608 176.685 199.448 174.645 199.446 172.519C199.443 170.393 198.598 168.355 197.096 166.852Z" fill="black"/>
<path d="M273.992 101.06C273.246 100.314 272.361 99.7224 271.386 99.3186C270.411 98.9148 269.366 98.7069 268.311 98.7069C267.256 98.7069 266.212 98.9148 265.237 99.3186C264.262 99.7224 263.376 100.314 262.63 101.06C261.125 102.569 260.279 104.614 260.279 106.745C260.279 108.876 261.125 110.921 262.63 112.43L268.333 118.132L274.035 112.43C274.78 111.681 275.369 110.792 275.77 109.815C276.171 108.838 276.375 107.792 276.371 106.736C276.367 105.68 276.155 104.635 275.747 103.662C275.339 102.688 274.742 101.804 273.992 101.06ZM266.002 109.058C265.543 108.601 265.23 108.018 265.103 107.383C264.976 106.748 265.04 106.09 265.288 105.491C265.535 104.893 265.954 104.381 266.493 104.021C267.031 103.661 267.664 103.469 268.311 103.469C268.959 103.469 269.592 103.661 270.13 104.021C270.669 104.381 271.088 104.893 271.335 105.491C271.582 106.09 271.647 106.748 271.519 107.383C271.392 108.018 271.08 108.601 270.621 109.058C270.008 109.669 269.177 110.012 268.311 110.012C267.446 110.012 266.615 109.669 266.002 109.058Z" fill="white"/>
<path opacity="0.2" d="M273.993 101.06C273.244 100.313 272.354 99.7204 271.376 99.318C270.397 98.9155 269.348 98.7107 268.29 98.7154V103.484C268.731 103.463 269.172 103.532 269.586 103.687C269.999 103.842 270.377 104.078 270.697 104.383C271.016 104.688 271.27 105.055 271.444 105.461C271.618 105.867 271.707 106.303 271.707 106.745C271.707 107.187 271.618 107.624 271.444 108.03C271.27 108.435 271.016 108.802 270.697 109.107C270.377 109.412 269.999 109.649 269.586 109.803C269.172 109.958 268.731 110.027 268.29 110.006V118.061L268.34 118.111L274.042 112.408C275.538 110.896 276.373 108.851 276.364 106.724C276.355 104.597 275.502 102.56 273.993 101.06Z" fill="black"/>
<path d="M65.5989 242.344L69.5478 246.329L79.0921 237.526L75.1432 233.534L65.5989 242.344Z" fill="#EEC1BB"/>
<path d="M70.5671 246.421L65.7771 241.589C65.6977 241.51 65.5941 241.46 65.4829 241.447C65.3717 241.434 65.2594 241.459 65.1641 241.517L60.8445 244.24C60.66 244.36 60.5302 244.548 60.4835 244.763C60.4368 244.978 60.4769 245.202 60.595 245.388C60.6291 245.438 60.6672 245.486 60.7091 245.53C62.2844 247.07 63.5104 248.111 65.4563 250.078C66.6538 251.29 70.1465 255.068 71.8002 256.736C73.4539 258.403 75.3214 256.992 74.8011 256.158C72.4275 252.423 71.066 249.194 70.9734 247.341C70.9609 246.994 70.8155 246.664 70.5671 246.421Z" fill="#263238"/>
<path opacity="0.2" d="M75.1432 233.541L79.085 237.526L74.1595 242.066L70.2178 238.082L75.1432 233.541Z" fill="black"/>
<path d="M70.2748 247.241C70.2592 247.219 70.2507 247.193 70.2507 247.166C70.2507 247.139 70.2592 247.113 70.2748 247.091C70.2892 247.07 70.3105 247.054 70.3351 247.046C70.3597 247.039 70.3862 247.039 70.4103 247.049C70.6455 247.099 72.7055 247.605 72.9122 248.268C72.9396 248.34 72.9447 248.418 72.9269 248.493C72.9091 248.568 72.8692 248.636 72.8124 248.688C72.7319 248.798 72.6232 248.885 72.4979 248.939C72.3725 248.993 72.235 249.012 72.0996 248.995C71.7231 248.924 71.3828 248.725 71.1373 248.431C70.8059 248.068 70.5166 247.669 70.2748 247.241ZM70.674 247.384C70.9762 248.004 71.504 248.486 72.1495 248.731C72.2379 248.738 72.3266 248.723 72.4076 248.687C72.4886 248.651 72.5592 248.595 72.6128 248.524C72.6841 248.446 72.6912 248.374 72.6627 248.353C72.646 248.296 72.614 248.244 72.57 248.203C71.9964 247.811 71.3527 247.533 70.674 247.384Z" fill="#49768C"/>
<path d="M70.2249 247.234C70.2214 247.211 70.2235 247.187 70.2309 247.165C70.2384 247.142 70.251 247.122 70.2677 247.106C70.3247 247.056 71.5649 246.015 72.406 246.108C72.5076 246.114 72.6066 246.142 72.6963 246.19C72.7861 246.238 72.8645 246.305 72.9264 246.386C72.9956 246.458 73.0383 246.552 73.0474 246.651C73.0564 246.751 73.0314 246.851 72.9763 246.935C72.6341 247.434 70.9733 247.505 70.3461 247.319L70.2962 247.27C70.2825 247.269 70.2691 247.265 70.2568 247.259C70.2445 247.253 70.2337 247.244 70.2249 247.234ZM72.406 246.343C71.7704 246.413 71.1725 246.68 70.6953 247.106C71.4081 247.205 72.5771 247.056 72.7838 246.749C72.7838 246.749 72.8622 246.642 72.7411 246.521L72.6983 246.471C72.6203 246.394 72.516 246.348 72.406 246.343Z" fill="#49768C"/>
<path d="M130.178 99.9414C130.178 99.9414 139.081 114.197 140.771 115.987C142.46 117.776 153.601 99.1288 154.471 96.6412C155.34 94.1535 166.481 94.0822 167.244 94.403C168.007 94.7237 167.493 100.105 165.355 101.21C163.217 102.315 155.868 102.03 155.868 102.03C155.868 102.03 149.395 122.879 141.783 123.941C134.17 125.003 125.873 106.157 125.873 106.157L130.178 99.9414Z" fill="#EEC1BB"/>
<path d="M123.649 92.8562C129.237 93.8541 136.565 108.944 136.565 108.944L130.107 117.398L122.074 109.771L123.649 92.8562Z" fill="#49768C"/>
<path opacity="0.4" d="M136.565 108.944L130.107 117.398L129.893 117.191L122.052 109.785L122.152 108.702L123.628 92.8562C129.237 93.8541 136.565 108.944 136.565 108.944Z" fill="white"/>
<path opacity="0.2" d="M129.893 117.191L122.052 109.785L122.152 108.702L124.868 103.206C124.868 103.206 129.858 108.039 129.893 117.191Z" fill="black"/>
<path d="M122.074 142.189C122.074 142.189 108.851 191.564 99.7918 210.988C90.7321 230.412 77.9731 240.598 77.9731 240.598L72.064 233.313C72.064 233.313 88.6722 209.691 92.2718 195.114C95.8714 180.538 97.076 150.4 97.076 150.4L122.074 142.189Z" fill="#263238"/>
<path opacity="0.2" d="M122.074 142.189C122.074 142.189 108.851 191.564 99.7918 210.988C90.7321 230.412 77.9731 240.598 77.9731 240.598L72.064 233.313C72.064 233.313 88.6722 209.691 92.2718 195.114C95.8714 180.538 97.076 150.4 97.076 150.4L122.074 142.189Z" fill="black"/>
<path d="M125.973 253.307L131.29 251.532L127.619 239.072L122.295 240.847L125.973 253.307Z" fill="#EEC1BB"/>
<path d="M131.818 250.67L125.36 252.808C125.255 252.846 125.166 252.917 125.106 253.012C125.047 253.106 125.021 253.218 125.032 253.328L125.567 258.411C125.595 258.625 125.707 258.82 125.877 258.953C126.048 259.087 126.264 259.148 126.479 259.123C126.54 259.116 126.6 259.102 126.657 259.081C128.731 258.368 130.221 257.712 132.837 256.835C134.455 256.301 139.381 254.84 141.612 254.098C143.843 253.357 143.401 251.047 142.424 251.154C138.026 251.625 134.526 251.418 132.823 250.677C132.501 250.546 132.141 250.544 131.818 250.67Z" fill="#263238"/>
<path opacity="0.2" d="M122.302 240.854L127.619 239.08L129.508 245.502L124.191 247.277L122.302 240.854Z" fill="black"/>
<path d="M132.431 251.283C132.404 251.286 132.376 251.28 132.353 251.266C132.33 251.252 132.312 251.23 132.302 251.204C132.286 251.184 132.277 251.159 132.277 251.133C132.277 251.107 132.286 251.082 132.302 251.062C132.445 250.876 133.814 249.251 134.505 249.358C134.581 249.368 134.654 249.399 134.713 249.448C134.772 249.498 134.816 249.563 134.84 249.636C134.897 249.758 134.922 249.892 134.915 250.026C134.907 250.161 134.867 250.291 134.797 250.406C134.568 250.709 134.24 250.923 133.871 251.012C133.402 251.153 132.919 251.244 132.431 251.283ZM132.737 250.983C133.426 250.992 134.091 250.737 134.598 250.27C134.639 250.193 134.661 250.106 134.661 250.017C134.661 249.929 134.639 249.842 134.598 249.764C134.555 249.665 134.498 249.629 134.462 249.643C134.407 249.622 134.346 249.622 134.291 249.643C133.693 249.987 133.166 250.442 132.737 250.983Z" fill="#49768C"/>
<path d="M132.409 251.318C132.385 251.315 132.363 251.304 132.345 251.287C132.328 251.271 132.315 251.249 132.31 251.226C132.31 251.147 131.911 249.579 132.352 248.873C132.404 248.785 132.474 248.709 132.558 248.65C132.641 248.591 132.737 248.55 132.837 248.531C132.932 248.499 133.036 248.501 133.13 248.538C133.224 248.574 133.302 248.643 133.35 248.731C133.65 249.251 132.98 250.777 132.531 251.261H132.466C132.455 251.287 132.435 251.307 132.409 251.318ZM132.566 248.966C132.354 249.57 132.33 250.223 132.495 250.841C132.901 250.249 133.286 249.137 133.101 248.809C133.101 248.809 133.037 248.688 132.88 248.745H132.816C132.713 248.788 132.63 248.867 132.581 248.966H132.566Z" fill="#49768C"/>
<path d="M92.2789 138.946C90.2358 148.22 90.4338 157.848 92.8562 167.03C95.9284 178.064 122.166 244.839 122.166 244.839L131.29 242.216L111.995 162.767C111.995 162.767 119.208 152.553 122.074 142.189L92.2789 138.946Z" fill="#263238"/>
<path d="M132.78 243.278L121.311 247.106L118.453 243.171L131.996 239.479L132.78 243.278Z" fill="#49768C"/>
<path opacity="0.3" d="M132.78 243.278L121.311 247.106L118.453 243.171L131.996 239.479L132.78 243.278Z" fill="white"/>
<path d="M77.6023 244.012L69.0986 235.423L71.3582 231.118L80.6602 241.624L77.6023 244.012Z" fill="#49768C"/>
<path opacity="0.3" d="M77.6023 244.012L69.0986 235.423L71.3582 231.118L80.6602 241.624L77.6023 244.012Z" fill="white"/>
<path d="M95.793 90.2901C96.343 96.536 96.4264 102.814 96.0425 109.072C95.8002 113.442 95.3725 117.569 94.902 121.311C93.8043 130.064 89.3351 146.302 89.3351 146.302L112.366 152.361L114.454 142.189L116.592 152.361L121.176 149.545C128.304 126.928 128.489 104.111 127.591 97.5535C127.448 96.4739 126.999 95.4577 126.296 94.6253C125.594 93.7928 124.668 93.179 123.628 92.8562C122.58 92.5283 121.361 92.1434 120.064 91.8583C119.558 91.7656 119.066 91.6302 118.553 91.5304C114.359 90.8238 110.127 90.362 105.879 90.1476C105.081 90.0977 104.261 90.0763 103.463 90.062C100.904 90.0047 98.3439 90.0808 95.793 90.2901Z" fill="#49768C"/>
<path opacity="0.4" d="M121.176 149.545L116.607 152.361L114.468 142.189L112.38 152.361L89.3492 146.302C89.3492 146.302 93.8185 130.064 94.9162 121.311C95.0302 120.42 95.1372 119.508 95.2441 118.574C95.5791 115.587 95.8713 112.401 96.0567 109.072C96.1707 107.248 96.242 105.416 96.2705 103.591C96.3515 99.1523 96.1969 94.7124 95.8072 90.2901C98.3675 90.0798 100.937 90.0037 103.505 90.062C104.304 90.062 105.123 90.0977 105.922 90.1476C110.17 90.362 114.401 90.8237 118.595 91.5304C119.109 91.6302 119.6 91.7656 120.106 91.8583C121.397 92.1719 122.616 92.5283 123.67 92.8562C124.711 93.1789 125.637 93.7928 126.339 94.6253C127.041 95.4577 127.491 96.4738 127.634 97.5535C128.482 104.111 128.304 126.928 121.176 149.545Z" fill="white"/>
<path d="M108.716 75.9771C109.072 80.147 109.058 87.7027 105.908 90.1119C107.021 91.5565 108.431 92.7455 110.043 93.5989C111.655 94.4522 113.432 94.95 115.252 95.0587C118.766 95.3652 119.216 92.9204 118.581 91.4948C114.148 89.9123 114.632 86.5551 115.773 83.4687L108.716 75.9771Z" fill="#EEC1BB"/>
<path opacity="0.2" d="M111.596 79.0422L115.766 83.4615C115.494 84.1794 115.282 84.9185 115.131 85.6712C113.421 85.2364 111.254 83.0695 111.261 81.2305C111.232 80.4864 111.346 79.7437 111.596 79.0422Z" fill="black"/>
<path d="M108.894 69.7972C108.623 75.3499 108.181 78.586 110.683 81.708C114.418 86.4267 121.504 84.6376 123.435 79.2703C125.16 74.4375 125.296 66.1619 120.128 63.382C118.99 62.7588 117.711 62.4377 116.414 62.4492C115.116 62.4608 113.844 62.8047 112.717 63.4481C111.59 64.0915 110.647 65.0129 109.978 66.1244C109.309 67.2359 108.936 68.5004 108.894 69.7972Z" fill="#EEC1BB"/>
<path d="M117.098 72.2492C117.02 72.6912 117.248 73.0903 117.548 73.1188C117.847 73.1474 118.118 72.8123 118.168 72.3633C118.218 71.9142 118.018 71.5222 117.726 71.4937C117.433 71.4652 117.155 71.8002 117.098 72.2492Z" fill="#263238"/>
<path d="M122.181 72.8052C122.102 73.2471 122.338 73.6392 122.623 73.6748C122.908 73.7104 123.193 73.3612 123.25 72.9121C123.307 72.463 123.093 72.0781 122.801 72.0425C122.509 72.0069 122.231 72.3775 122.181 72.8052Z" fill="#263238"/>
<path d="M120.541 72.848C120.928 74.2805 121.511 75.6526 122.273 76.9252C121.941 77.1122 121.571 77.2243 121.191 77.2539C120.811 77.2834 120.428 77.2296 120.071 77.0962L120.541 72.848Z" fill="#D4827D"/>
<path d="M115.701 70.4387C115.75 70.4496 115.8 70.448 115.847 70.4343C115.894 70.4206 115.937 70.3952 115.972 70.3603C116.193 70.1109 116.469 69.9165 116.779 69.7928C117.088 69.669 117.422 69.6193 117.754 69.6475C117.789 69.6537 117.824 69.653 117.857 69.6456C117.891 69.6382 117.924 69.6241 117.952 69.6042C117.98 69.5844 118.005 69.5591 118.023 69.5298C118.042 69.5005 118.055 69.4679 118.061 69.4337C118.068 69.3994 118.068 69.364 118.061 69.3297C118.054 69.2954 118.04 69.2629 118.02 69.2342C118 69.2055 117.974 69.1812 117.945 69.1628C117.915 69.1444 117.882 69.1323 117.847 69.1272C117.429 69.0782 117.006 69.1303 116.613 69.2792C116.22 69.4281 115.868 69.6693 115.587 69.9825C115.539 70.0319 115.511 70.0985 115.511 70.1679C115.511 70.2372 115.539 70.3038 115.587 70.3532L115.701 70.4387Z" fill="#263238"/>
<path d="M117.747 78.9139C117.106 78.7866 116.504 78.5062 115.994 78.0967C115.484 77.6872 115.08 77.1606 114.818 76.5616C114.808 76.5266 114.811 76.4892 114.827 76.4564C114.842 76.4236 114.87 76.3977 114.903 76.3834C114.919 76.3764 114.937 76.3726 114.955 76.3724C114.973 76.3722 114.99 76.3754 115.007 76.3821C115.024 76.3887 115.039 76.3985 115.051 76.411C115.064 76.4234 115.074 76.4383 115.081 76.4547C115.341 76.9976 115.722 77.4732 116.196 77.8441C116.669 78.2151 117.222 78.4714 117.811 78.5931C117.829 78.5957 117.846 78.6019 117.862 78.6112C117.877 78.6205 117.891 78.6329 117.901 78.6475C117.912 78.6621 117.92 78.6787 117.924 78.6963C117.928 78.7139 117.928 78.7321 117.925 78.7499C117.923 78.7678 117.917 78.785 117.907 78.8005C117.898 78.8159 117.886 78.8294 117.871 78.84C117.856 78.8506 117.84 78.8582 117.822 78.8623C117.805 78.8665 117.786 78.867 117.769 78.864L117.747 78.9139Z" fill="#263238"/>
<path d="M124.554 71.2798C124.605 71.2978 124.66 71.2978 124.711 71.2798C124.776 71.2556 124.83 71.2074 124.86 71.145C124.891 71.0827 124.896 71.011 124.875 70.9448C124.742 70.5447 124.514 70.1824 124.211 69.8884C123.909 69.5945 123.54 69.3774 123.136 69.2555C123.068 69.2425 122.998 69.2559 122.939 69.293C122.881 69.3301 122.839 69.3881 122.822 69.4551C122.809 69.5229 122.821 69.5934 122.857 69.6527C122.892 69.712 122.949 69.7559 123.015 69.7758C123.332 69.8798 123.62 70.0564 123.856 70.2916C124.092 70.5267 124.271 70.8139 124.376 71.1301C124.392 71.1677 124.416 71.201 124.447 71.227C124.478 71.2531 124.515 71.2712 124.554 71.2798Z" fill="#263238"/>
<path d="M109.835 74.4945C109.835 74.4945 113.349 69.954 112.451 65.7699C114.368 65.5199 116.31 65.9732 117.918 67.0458C117.955 66.3994 117.914 65.7509 117.797 65.1141C117.797 65.1141 122.787 65.4634 125.217 68.6282C125.188 66.7826 124.554 64.9975 123.414 63.5459C124.15 63.4145 124.909 63.5037 125.595 63.8025C125.595 63.8025 121.611 59.6042 114.319 60.709C107.027 61.8138 104.261 65.777 105.052 72.2492C105.843 78.7214 108.994 80.5462 108.994 80.5462C108.994 80.5462 108.231 75.5994 108.687 74.5729C109.144 73.5465 109.835 74.4945 109.835 74.4945Z" fill="#263238"/>
<path d="M105.744 75.6136C106.358 76.869 107.445 77.83 108.766 78.2866C110.519 78.8782 111.496 77.3243 111.097 75.6208C110.719 74.1025 109.372 71.9213 107.533 72.0568C105.694 72.1922 105.009 74.0597 105.744 75.6136Z" fill="#EEC1BB"/>
<path d="M120.135 60.8231C118.409 61.1059 116.71 61.54 115.06 62.1204C113.879 62.5357 112.735 63.0483 111.638 63.6529C106.271 66.611 104.902 70.4316 104.902 70.4316C104.902 70.4316 104.731 69.9469 104.503 69.1913C104.275 68.4358 103.969 67.4521 103.691 66.4257C103.156 64.5011 102.714 62.491 102.978 61.9136C105.266 56.7601 112.522 55.3131 113.499 55.5983C114.09 55.7765 116.35 57.6155 118.082 59.0625C118.959 59.7753 119.693 60.4168 120 60.6876L120.135 60.8231Z" fill="#49768C"/>
<path opacity="0.6" d="M119.978 60.6876C118.287 60.9614 116.635 61.4401 115.06 62.1132C114.062 62.5124 112.921 63.0185 111.638 63.6457C107.568 65.6273 105.523 67.616 104.51 69.1842C104.275 68.4357 103.976 67.445 103.698 66.4185C105.701 64.4084 111.061 59.7325 118.082 59.0553C118.938 59.7824 119.672 60.4168 119.978 60.6876Z" fill="white"/>
<path d="M105.031 72.2492C105.031 72.2492 100.141 75.6778 99.8345 73.853C99.0433 69.1699 112.016 58.8843 124.676 59.1266C135.075 59.3191 123.891 62.4981 123.891 62.4981C119.75 61.0654 104.703 67.6089 105.031 72.2492Z" fill="#49768C"/>
<path opacity="0.3" d="M105.031 72.2492C105.031 72.2492 100.141 75.6778 99.8345 73.853C99.0433 69.1699 112.016 58.8843 124.676 59.1266C135.075 59.3191 123.891 62.4981 123.891 62.4981C119.75 61.0654 104.703 67.6089 105.031 72.2492Z" fill="black"/>
<path d="M106.535 87.3676C106.535 87.3676 108.987 89.9195 114.81 92.6637C114.81 92.6637 116.193 91.6017 116.372 88.3869L120.092 91.8868L119.265 97.7531L116.792 95.0231L115.509 112.073C115.509 112.073 116.314 100.668 113.513 95.5719L111.639 98.4659C111.639 98.4659 104.867 96.1208 102.885 90.0691L106.535 87.3676Z" fill="#49768C"/>
<path opacity="0.6" d="M120.092 91.8583L119.265 97.7246L116.792 94.9946L115.509 112.045C115.509 112.045 116.314 100.64 113.513 95.5434L111.639 98.4374C111.639 98.4374 104.867 96.0923 102.885 90.0406L106.535 87.3676C106.535 87.3676 108.987 89.9195 114.81 92.6637C114.967 92.5354 116.193 91.4163 116.357 88.3869L120.092 91.8583Z" fill="white"/>
<path opacity="0.2" d="M115.766 101.538C115.559 97.2613 114.81 92.6638 114.81 92.6638C114.967 92.5354 116.193 91.4164 116.357 88.387C116.572 88.9964 116.645 89.6465 116.572 90.2885C116.499 90.9305 116.282 91.5476 115.937 92.0935L115.766 101.538Z" fill="black"/>
<path d="M84.823 150.579C85.437 151.705 85.7604 152.967 85.7639 154.249C85.8566 156.595 85.379 161.192 84.823 161.769C84.4951 162.104 79.0137 160.565 78.4791 159.203C78.2367 158.583 79.1919 152.275 80.311 150.579C81.4301 148.882 84.823 150.579 84.823 150.579Z" fill="#EEC1BB"/>
<path opacity="0.2" d="M102.707 105.202C102.707 105.202 100.127 115.181 95.2299 118.574C95.5649 115.587 95.8571 112.401 96.0424 109.072C96.1565 107.248 96.2278 105.416 96.2563 103.591L102.707 105.202Z" fill="black"/>
<path d="M89.3351 103.206C89.3351 103.206 82.7132 114.86 81.4943 118.809C80.2754 122.758 80.2968 150.579 80.2968 150.579H84.823C84.823 150.579 87.6742 122.943 89.3351 119.372C90.9959 115.801 97.076 107.568 97.076 107.568L89.3351 103.206Z" fill="#EEC1BB"/>
<path d="M96.9406 90.2188C93.9112 89.7341 85.7782 107.497 85.7782 107.497L94.3318 112.864C94.3318 112.864 99.9201 107.661 102.693 105.202C105.466 102.743 101.859 91.01 96.9406 90.2188Z" fill="#49768C"/>
<path opacity="0.4" d="M96.9406 90.2188C93.9112 89.7341 85.7782 107.497 85.7782 107.497L94.3318 112.864C94.3318 112.864 99.9201 107.661 102.693 105.202C105.466 102.743 101.859 91.01 96.9406 90.2188Z" fill="white"/>
<path d="M85.7639 106.264L95.7858 112.864L93.5619 114.86L84.6804 109.079L85.7639 106.264Z" fill="#49768C"/>
<path opacity="0.6" d="M85.7639 106.264L95.7858 112.864L93.5619 114.86L84.6804 109.079L85.7639 106.264Z" fill="white"/>
<path d="M128.425 116.792L136.08 107.554L137.827 109.978L131.112 118.175L128.425 116.792Z" fill="#49768C"/>
<path opacity="0.6" d="M128.425 116.792L136.08 107.554L137.827 109.978L131.112 118.175L128.425 116.792Z" fill="white"/>
<path d="M157.728 94.9091L165.284 84.4309C165.334 84.3634 165.402 84.311 165.48 84.2796C165.557 84.2481 165.643 84.2388 165.726 84.2527L170.658 85.1224C170.734 85.135 170.806 85.1671 170.866 85.2155C170.926 85.2639 170.973 85.3269 171.001 85.3985C171.03 85.4702 171.04 85.548 171.029 85.6245C171.019 85.7009 170.99 85.7735 170.943 85.8352L163.231 96.3275C163.181 96.3951 163.113 96.447 163.035 96.4773C162.956 96.5076 162.871 96.515 162.789 96.4986L158.027 95.6076C157.952 95.5957 157.882 95.5651 157.822 95.5184C157.762 95.4718 157.715 95.4107 157.685 95.341C157.655 95.2712 157.643 95.195 157.651 95.1195C157.658 95.044 157.685 94.9716 157.728 94.9091Z" fill="#263238"/>
<path d="M157.186 94.6097L164.742 84.1316C164.791 84.0627 164.859 84.0094 164.937 83.9778C165.015 83.9462 165.101 83.9377 165.184 83.9534L170.116 84.8159C170.193 84.8285 170.264 84.8606 170.324 84.909C170.384 84.9574 170.431 85.0204 170.46 85.092C170.488 85.1637 170.498 85.2415 170.488 85.3179C170.478 85.3944 170.448 85.467 170.402 85.5287L162.675 96.0353C162.624 96.1022 162.556 96.1536 162.478 96.1839C162.4 96.2141 162.315 96.2219 162.233 96.2064L157.471 95.3154C157.396 95.3021 157.326 95.27 157.267 95.222C157.208 95.1741 157.162 95.112 157.134 95.0414C157.105 94.9709 157.095 94.8943 157.104 94.8188C157.113 94.7432 157.142 94.6713 157.186 94.6097Z" fill="#263238"/>
<path d="M165.048 84.4808L169.774 85.3219L162.226 95.4721L157.642 94.631L165.048 84.4808Z" fill="white"/>
<path d="M185.078 44.728C185.08 41.0419 184.019 37.4334 182.022 34.3347C180.025 31.236 177.178 28.7785 173.821 27.2565C170.464 25.7345 166.739 25.2124 163.092 25.7529C159.446 26.2934 156.033 27.8735 153.261 30.304C150.49 32.7344 148.478 35.9122 147.466 39.4568C146.454 43.0014 146.486 46.7625 147.556 50.2898C148.627 53.817 150.692 56.9608 153.503 59.3447C156.315 61.7287 159.754 63.2516 163.409 63.7312L164.336 73.8031L166.103 63.8952C171.153 63.8426 175.978 61.8003 179.53 58.2116C183.083 54.623 185.076 49.7777 185.078 44.728Z" fill="#49768C"/>
<path opacity="0.8" d="M185.078 44.728C185.08 41.0419 184.019 37.4334 182.022 34.3347C180.025 31.236 177.178 28.7785 173.821 27.2565C170.464 25.7345 166.739 25.2124 163.092 25.7529C159.446 26.2934 156.033 27.8735 153.261 30.304C150.49 32.7344 148.478 35.9122 147.466 39.4568C146.454 43.0014 146.486 46.7625 147.556 50.2898C148.627 53.817 150.692 56.9608 153.503 59.3447C156.315 61.7287 159.754 63.2516 163.409 63.7312L164.336 73.8031L166.103 63.8952C171.153 63.8426 175.978 61.8003 179.53 58.2116C183.083 54.623 185.076 49.7777 185.078 44.728Z" fill="white"/>
<path d="M175.256 44.728L156.552 36.9086L159.617 44.728L156.552 52.5403L175.256 44.728Z" fill="#49768C"/>
<path opacity="0.3" d="M159.617 44.728H175.256L156.552 52.5403L159.617 44.728Z" fill="black"/>
</svg>
